G04 ================== begin FILE IDENTIFICATION RECORD ==================*
G04 Layout Name:  diode_array_ver00.brd*
G04 Film Name:    Drill_Draw*
G04 File Format:  Gerber RS274X*
G04 File Origin:  Cadence Allegro 17.2-P019*
G04 Origin Date:  Wed Aug 08 21:18:52 2018*
G04 *
G04 Layer:  MANUFACTURING/NCLEGEND-1-2*
G04 Layer:  BOARD GEOMETRY/OUTLINE*
G04 *
G04 Offset:    (0.0 0.0)*
G04 Mirror:    No*
G04 Mode:      Positive*
G04 Rotation:  0*
G04 FullContactRelief:  No*
G04 UndefLineWidth:     0.2*
G04 ================== end FILE IDENTIFICATION RECORD ====================*
%FSLAX35Y35*MOMM*%
%IR0*IPPOS*OFA0.00000B0.00000*MIA0B0*SFA1.00000B1.00000*%
%AMMACRO10*
1,1,.2,.5,0.0*
20,1,.2,.5,0.0,-.5,0.0,0.0*
1,1,.2,-.5,0.0*
1,1,.2,0.0,.5*
20,1,.2,0.0,.5,0.0,-.5,0.0*
1,1,.2,0.0,-.5*
%
%ADD10MACRO10*%
%AMMACRO11*
1,1,.2,4.,4.*
20,1,.2,4.,4.,4.,-4.,0.0*
1,1,.2,4.,-4.*
20,1,.2,4.,-4.,-4.,-4.,0.0*
1,1,.2,-4.,-4.*
20,1,.2,-4.,-4.,-4.,4.,0.0*
1,1,.2,-4.,4.*
20,1,.2,-4.,4.,4.,4.,0.0*
1,1,.2,4.,4.*
%
%ADD11MACRO11*%
%ADD12C,.2*%
G75*
%LPD*%
G75*
G54D10*
X-1000000Y-640000D03*
Y-380000D03*
Y-130000D03*
X-1250000Y-640000D03*
Y-380000D03*
Y-130000D03*
X-1000000Y130000D03*
Y380000D03*
Y640000D03*
X-1250000Y130000D03*
Y380000D03*
Y640000D03*
X-130000Y-1250000D03*
X-380000D03*
X-640000D03*
X-130000Y-1000000D03*
X-380000D03*
X-640000D03*
Y1000000D03*
X-380000D03*
X-130000D03*
X-640000Y1250000D03*
X-380000D03*
X-130000D03*
X640000Y-1250000D03*
X380000D03*
X130000D03*
X640000Y-1000000D03*
X380000D03*
X130000D03*
Y1000000D03*
X380000D03*
X640000D03*
X130000Y1250000D03*
X380000D03*
X640000D03*
X1000000Y-130000D03*
Y-380000D03*
Y-640000D03*
X1250000Y-130000D03*
Y-380000D03*
Y-640000D03*
X1000000Y640000D03*
Y380000D03*
Y130000D03*
X1250000Y640000D03*
Y380000D03*
Y130000D03*
X2780000Y-500000D03*
G54D11*
X0Y0D03*
X2780000Y-1700000D03*
G54D12*
G01X1620000Y-2300000D02*
Y2030000D01*
X19620000D01*
Y-2300000D01*
X1620000D01*
G01Y-1100000D02*
X19620000D01*
G01X1900000Y260000D02*
Y580000D01*
X2060000D01*
G01X2000000Y430000D02*
X1900000D01*
G01X2250000Y580000D02*
X2350000D01*
G01X2300000D02*
Y260000D01*
G01X2250000D02*
X2350000D01*
G01X2640000Y420000D02*
X2720000D01*
Y320000D01*
X2700000Y290000D01*
X2670000Y270000D01*
X2630000Y260000D01*
X2590000Y270000D01*
X2560000Y290000D01*
X2540000Y320000D01*
X2520000Y360000D01*
Y400000D01*
Y440000D01*
Y470000D01*
X2540000Y510000D01*
X2560000Y540000D01*
X2590000Y560000D01*
X2620000Y580000D01*
X2650000D01*
X2680000Y570000D01*
X2700000Y550000D01*
G01X2850000Y580000D02*
Y350000D01*
X2870000Y300000D01*
X2900000Y270000D01*
X2940000Y260000D01*
X2980000Y270000D01*
X3010000Y300000D01*
X3030000Y350000D01*
Y580000D01*
G01X3180000Y260000D02*
Y580000D01*
X3280000D01*
X3310000Y560000D01*
X3330000Y540000D01*
X3340000Y500000D01*
X3330000Y460000D01*
X3310000Y430000D01*
X3280000Y410000D01*
X3180000D01*
G01X3280000D02*
X3340000Y260000D01*
G01X3660000D02*
X3500000D01*
Y580000D01*
X3660000D01*
G01X3600000Y430000D02*
X3500000D01*
G01X1620000Y100000D02*
X19620000D01*
G01X1620000Y1380000D02*
X19620000D01*
G01X1620000Y740000D02*
X19620000D01*
G01X3940000D02*
Y-2300000D01*
G01X4540000Y260000D02*
Y580000D01*
X4700000D01*
G01X4640000Y430000D02*
X4540000D01*
G01X4890000Y580000D02*
X4990000D01*
G01X4940000D02*
Y260000D01*
G01X4890000D02*
X4990000D01*
G01X5170000D02*
Y580000D01*
X5350000Y260000D01*
Y580000D01*
G01X5530000D02*
X5630000D01*
G01X5580000D02*
Y260000D01*
G01X5530000D02*
X5630000D01*
G01X5820000Y300000D02*
X5850000Y280000D01*
X5880000Y260000D01*
X5920000D01*
X5950000Y280000D01*
X5970000Y300000D01*
X5980000Y340000D01*
Y380000D01*
X5960000Y410000D01*
X5920000Y430000D01*
X5870000Y440000D01*
X5840000Y460000D01*
X5830000Y500000D01*
X5840000Y540000D01*
X5860000Y560000D01*
X5890000Y580000D01*
X5920000D01*
X5940000Y570000D01*
X5970000Y540000D01*
G01X6140000Y260000D02*
Y580000D01*
G01X6300000D02*
Y260000D01*
G01Y420000D02*
X6140000D01*
G01X6620000Y260000D02*
X6460000D01*
Y580000D01*
X6620000D01*
G01X6560000Y430000D02*
X6460000D01*
G01X6770000Y260000D02*
Y580000D01*
X6850000D01*
X6880000Y560000D01*
X6910000Y540000D01*
X6930000Y510000D01*
X6940000Y470000D01*
X6950000Y420000D01*
X6940000Y370000D01*
X6930000Y330000D01*
X6910000Y300000D01*
X6880000Y280000D01*
X6850000Y260000D01*
X6770000D01*
G01X7060000Y150000D02*
X7300000D01*
G01X7420000Y300000D02*
X7450000Y280000D01*
X7480000Y260000D01*
X7520000D01*
X7550000Y280000D01*
X7570000Y300000D01*
X7580000Y340000D01*
Y380000D01*
X7560000Y410000D01*
X7520000Y430000D01*
X7470000Y440000D01*
X7440000Y460000D01*
X7430000Y500000D01*
X7440000Y540000D01*
X7460000Y560000D01*
X7490000Y580000D01*
X7520000D01*
X7540000Y570000D01*
X7570000Y540000D01*
G01X7770000Y580000D02*
X7870000D01*
G01X7820000D02*
Y260000D01*
G01X7770000D02*
X7870000D01*
G01X8060000Y580000D02*
X8220000D01*
X8060000Y260000D01*
X8220000D01*
G01X8540000D02*
X8380000D01*
Y580000D01*
X8540000D01*
G01X8480000Y430000D02*
X8380000D01*
G01X6220000Y-1860000D02*
X6250000Y-1850000D01*
X6280000Y-1840000D01*
X6300000Y-1810000D01*
X6310000Y-1770000D01*
X6300000Y-1740000D01*
X6280000Y-1710000D01*
X6240000Y-1690000D01*
X6200000D01*
X6180000Y-1680000D01*
X6160000Y-1650000D01*
X6150000Y-1610000D01*
X6160000Y-1580000D01*
X6190000Y-1550000D01*
X6220000Y-1540000D01*
X6250000Y-1550000D01*
X6280000Y-1580000D01*
X6290000Y-1610000D01*
X6280000Y-1650000D01*
X6260000Y-1680000D01*
X6240000Y-1690000D01*
X6200000D01*
X6160000Y-1710000D01*
X6140000Y-1740000D01*
X6130000Y-1770000D01*
X6140000Y-1810000D01*
X6160000Y-1840000D01*
X6190000Y-1850000D01*
X6220000Y-1860000D01*
G01X6540000Y-1870000D02*
X6530000D01*
Y-1850000D01*
X6540000D01*
X6550000D01*
Y-1870000D01*
X6540000D01*
G01X6860000Y-1540000D02*
X6830000Y-1550000D01*
X6800000Y-1580000D01*
X6790000Y-1610000D01*
X6780000Y-1650000D01*
X6770000Y-1700000D01*
X6780000Y-1750000D01*
X6790000Y-1790000D01*
X6800000Y-1820000D01*
X6830000Y-1850000D01*
X6860000Y-1860000D01*
X6890000Y-1850000D01*
X6920000Y-1820000D01*
X6930000Y-1790000D01*
X6940000Y-1750000D01*
X6950000Y-1700000D01*
X6940000Y-1650000D01*
X6930000Y-1610000D01*
X6920000Y-1580000D01*
X6890000Y-1550000D01*
X6860000Y-1540000D01*
G01X6220000Y-660000D02*
Y-340000D01*
X6170000Y-400000D01*
G01Y-660000D02*
X6270000D01*
G01X6540000Y-670000D02*
X6530000D01*
Y-650000D01*
X6540000D01*
X6550000D01*
Y-670000D01*
X6540000D01*
G01X6860000Y-340000D02*
X6830000Y-350000D01*
X6800000Y-380000D01*
X6790000Y-410000D01*
X6780000Y-450000D01*
X6770000Y-500000D01*
X6780000Y-550000D01*
X6790000Y-590000D01*
X6800000Y-620000D01*
X6830000Y-650000D01*
X6860000Y-660000D01*
X6890000Y-650000D01*
X6920000Y-620000D01*
X6930000Y-590000D01*
X6940000Y-550000D01*
X6950000Y-500000D01*
X6940000Y-450000D01*
X6930000Y-410000D01*
X6920000Y-380000D01*
X6890000Y-350000D01*
X6860000Y-340000D01*
G01X6200000Y900000D02*
X6300000Y1220000D01*
X6400000Y900000D01*
G01X6360000Y1010000D02*
X6240000D01*
G01X6540000Y1220000D02*
Y900000D01*
X6700000D01*
G01X6860000Y1220000D02*
Y900000D01*
X7020000D01*
G01X7490000Y1220000D02*
Y990000D01*
X7510000Y940000D01*
X7540000Y910000D01*
X7580000Y900000D01*
X7620000Y910000D01*
X7650000Y940000D01*
X7670000Y990000D01*
Y1220000D01*
G01X7810000Y900000D02*
Y1220000D01*
X7990000Y900000D01*
Y1220000D01*
G01X8170000D02*
X8270000D01*
G01X8220000D02*
Y900000D01*
G01X8170000D02*
X8270000D01*
G01X8540000Y1220000D02*
Y900000D01*
G01X8450000Y1220000D02*
X8630000D01*
G01X8780000Y940000D02*
X8810000Y920000D01*
X8840000Y900000D01*
X8880000D01*
X8910000Y920000D01*
X8930000Y940000D01*
X8940000Y980000D01*
Y1020000D01*
X8920000Y1050000D01*
X8880000Y1070000D01*
X8830000Y1080000D01*
X8800000Y1100000D01*
X8790000Y1140000D01*
X8800000Y1180000D01*
X8820000Y1200000D01*
X8850000Y1220000D01*
X8880000D01*
X8900000Y1210000D01*
X8930000Y1180000D01*
G01X9400000Y900000D02*
X9500000Y1220000D01*
X9600000Y900000D01*
G01X9560000Y1010000D02*
X9440000D01*
G01X9740000Y900000D02*
Y1220000D01*
X9840000D01*
X9870000Y1200000D01*
X9890000Y1180000D01*
X9900000Y1140000D01*
X9890000Y1100000D01*
X9870000Y1070000D01*
X9840000Y1050000D01*
X9740000D01*
G01X9840000D02*
X9900000Y900000D01*
G01X10220000D02*
X10060000D01*
Y1220000D01*
X10220000D01*
G01X10160000Y1070000D02*
X10060000D01*
G01X10730000Y1220000D02*
X10830000D01*
G01X10780000D02*
Y900000D01*
G01X10730000D02*
X10830000D01*
G01X11010000D02*
Y1220000D01*
X11190000Y900000D01*
Y1220000D01*
G01X11640000Y900000D02*
Y1220000D01*
X11740000Y950000D01*
X11840000Y1220000D01*
Y900000D01*
G01X12010000Y1220000D02*
X12110000D01*
G01X12060000D02*
Y900000D01*
G01X12010000D02*
X12110000D01*
G01X12300000Y1220000D02*
Y900000D01*
X12460000D01*
G01X12620000Y1220000D02*
Y900000D01*
X12780000D01*
G01X12970000Y1220000D02*
X13070000D01*
G01X13020000D02*
Y900000D01*
G01X12970000D02*
X13070000D01*
G01X13240000D02*
Y1220000D01*
X13340000Y950000D01*
X13440000Y1220000D01*
Y900000D01*
G01X13740000D02*
X13580000D01*
Y1220000D01*
X13740000D01*
G01X13680000Y1070000D02*
X13580000D01*
G01X13980000Y1220000D02*
Y900000D01*
G01X13890000Y1220000D02*
X14070000D01*
G01X14380000Y900000D02*
X14220000D01*
Y1220000D01*
X14380000D01*
G01X14320000Y1070000D02*
X14220000D01*
G01X14540000Y900000D02*
Y1220000D01*
X14640000D01*
X14670000Y1200000D01*
X14690000Y1180000D01*
X14700000Y1140000D01*
X14690000Y1100000D01*
X14670000Y1070000D01*
X14640000Y1050000D01*
X14540000D01*
G01X14640000D02*
X14700000Y900000D01*
G01X14860000Y940000D02*
X14890000Y920000D01*
X14920000Y900000D01*
X14960000D01*
X14990000Y920000D01*
X15010000Y940000D01*
X15020000Y980000D01*
Y1020000D01*
X15000000Y1050000D01*
X14960000Y1070000D01*
X14910000Y1080000D01*
X14880000Y1100000D01*
X14870000Y1140000D01*
X14880000Y1180000D01*
X14900000Y1200000D01*
X14930000Y1220000D01*
X14960000D01*
X14980000Y1210000D01*
X15010000Y1180000D01*
G01X6530000Y1550000D02*
Y1870000D01*
X6610000D01*
X6640000Y1850000D01*
X6670000Y1830000D01*
X6690000Y1800000D01*
X6700000Y1760000D01*
X6710000Y1710000D01*
X6700000Y1660000D01*
X6690000Y1620000D01*
X6670000Y1590000D01*
X6640000Y1570000D01*
X6610000Y1550000D01*
X6530000D01*
G01X6860000D02*
Y1870000D01*
X6960000D01*
X6990000Y1850000D01*
X7010000Y1830000D01*
X7020000Y1790000D01*
X7010000Y1750000D01*
X6990000Y1720000D01*
X6960000Y1700000D01*
X6860000D01*
G01X6960000D02*
X7020000Y1550000D01*
G01X7210000Y1870000D02*
X7310000D01*
G01X7260000D02*
Y1550000D01*
G01X7210000D02*
X7310000D01*
G01X7500000Y1870000D02*
Y1550000D01*
X7660000D01*
G01X7820000Y1870000D02*
Y1550000D01*
X7980000D01*
G01X8630000Y1840000D02*
X8600000Y1860000D01*
X8580000Y1870000D01*
X8540000D01*
X8510000Y1850000D01*
X8480000Y1830000D01*
X8460000Y1800000D01*
X8440000Y1740000D01*
Y1690000D01*
X8450000Y1650000D01*
X8460000Y1610000D01*
X8480000Y1580000D01*
X8510000Y1560000D01*
X8540000Y1550000D01*
X8570000D01*
X8600000Y1560000D01*
X8620000Y1580000D01*
X8640000Y1600000D01*
G01X8780000Y1550000D02*
Y1870000D01*
G01X8940000D02*
Y1550000D01*
G01Y1710000D02*
X8780000D01*
G01X9080000Y1550000D02*
X9180000Y1870000D01*
X9280000Y1550000D01*
G01X9240000Y1660000D02*
X9120000D01*
G01X9420000Y1550000D02*
Y1870000D01*
X9520000D01*
X9550000Y1850000D01*
X9570000Y1830000D01*
X9580000Y1790000D01*
X9570000Y1750000D01*
X9550000Y1720000D01*
X9520000Y1700000D01*
X9420000D01*
G01X9520000D02*
X9580000Y1550000D01*
G01X9820000Y1870000D02*
Y1550000D01*
G01X9730000Y1870000D02*
X9910000D01*
G01X10140000Y1540000D02*
X10130000D01*
Y1560000D01*
X10140000D01*
X10150000D01*
Y1540000D01*
X10140000D01*
G01Y1680000D02*
X10130000Y1690000D01*
Y1700000D01*
X10140000D01*
X10150000D01*
Y1690000D01*
X10140000Y1680000D01*
G01X10780000Y1870000D02*
Y1550000D01*
G01X10690000Y1870000D02*
X10870000D01*
G01X11100000Y1550000D02*
X11070000Y1560000D01*
X11040000Y1580000D01*
X11020000Y1610000D01*
X11000000Y1650000D01*
X10990000Y1690000D01*
Y1730000D01*
X11000000Y1770000D01*
X11020000Y1810000D01*
X11040000Y1840000D01*
X11070000Y1860000D01*
X11100000Y1870000D01*
X11130000Y1860000D01*
X11160000Y1840000D01*
X11180000Y1810000D01*
X11200000Y1770000D01*
X11210000Y1730000D01*
Y1690000D01*
X11200000Y1650000D01*
X11180000Y1610000D01*
X11160000Y1580000D01*
X11130000Y1560000D01*
X11100000Y1550000D01*
G01X11340000D02*
Y1870000D01*
X11440000D01*
X11470000Y1850000D01*
X11490000Y1820000D01*
X11500000Y1770000D01*
X11490000Y1730000D01*
X11470000Y1700000D01*
X11440000Y1680000D01*
X11340000D01*
G01X12060000Y1870000D02*
Y1550000D01*
G01X12000000Y1760000D02*
X12120000D01*
G01X12380000Y1550000D02*
X12360000Y1560000D01*
X12330000Y1580000D01*
X12320000Y1610000D01*
X12310000Y1660000D01*
X12320000Y1700000D01*
X12330000Y1740000D01*
X12360000Y1760000D01*
X12380000D01*
X12400000D01*
X12430000Y1740000D01*
X12440000Y1700000D01*
X12450000Y1660000D01*
X12440000Y1610000D01*
X12430000Y1580000D01*
X12400000Y1560000D01*
X12380000Y1550000D01*
G01X13050000Y1720000D02*
X13070000Y1740000D01*
X13080000Y1760000D01*
X13090000Y1800000D01*
X13080000Y1830000D01*
X13060000Y1850000D01*
X13040000Y1870000D01*
X12930000D01*
Y1550000D01*
X13060000D01*
X13090000Y1570000D01*
X13100000Y1600000D01*
X13110000Y1640000D01*
X13100000Y1680000D01*
X13080000Y1710000D01*
X13050000Y1720000D01*
X12930000D01*
G01X13340000Y1550000D02*
X13310000Y1560000D01*
X13280000Y1580000D01*
X13260000Y1610000D01*
X13240000Y1650000D01*
X13230000Y1690000D01*
Y1730000D01*
X13240000Y1770000D01*
X13260000Y1810000D01*
X13280000Y1840000D01*
X13310000Y1860000D01*
X13340000Y1870000D01*
X13370000Y1860000D01*
X13400000Y1840000D01*
X13420000Y1810000D01*
X13440000Y1770000D01*
X13450000Y1730000D01*
Y1690000D01*
X13440000Y1650000D01*
X13420000Y1610000D01*
X13400000Y1580000D01*
X13370000Y1560000D01*
X13340000Y1550000D01*
G01X13660000Y1870000D02*
Y1550000D01*
G01X13570000Y1870000D02*
X13750000D01*
G01X13980000D02*
Y1550000D01*
G01X13890000Y1870000D02*
X14070000D01*
G01X14300000Y1550000D02*
X14270000Y1560000D01*
X14240000Y1580000D01*
X14220000Y1610000D01*
X14200000Y1650000D01*
X14190000Y1690000D01*
Y1730000D01*
X14200000Y1770000D01*
X14220000Y1810000D01*
X14240000Y1840000D01*
X14270000Y1860000D01*
X14300000Y1870000D01*
X14330000Y1860000D01*
X14360000Y1840000D01*
X14380000Y1810000D01*
X14400000Y1770000D01*
X14410000Y1730000D01*
Y1690000D01*
X14400000Y1650000D01*
X14380000Y1610000D01*
X14360000Y1580000D01*
X14330000Y1560000D01*
X14300000Y1550000D01*
G01X14520000D02*
Y1870000D01*
X14620000Y1600000D01*
X14720000Y1870000D01*
Y1550000D01*
G01X9140000Y740000D02*
Y-2300000D01*
G01X9500000Y580000D02*
Y260000D01*
G01X9410000Y580000D02*
X9590000D01*
G01X9820000Y260000D02*
X9790000Y270000D01*
X9760000Y290000D01*
X9740000Y320000D01*
X9720000Y360000D01*
X9710000Y400000D01*
Y440000D01*
X9720000Y480000D01*
X9740000Y520000D01*
X9760000Y550000D01*
X9790000Y570000D01*
X9820000Y580000D01*
X9850000Y570000D01*
X9880000Y550000D01*
X9900000Y520000D01*
X9920000Y480000D01*
X9930000Y440000D01*
Y400000D01*
X9920000Y360000D01*
X9900000Y320000D01*
X9880000Y290000D01*
X9850000Y270000D01*
X9820000Y260000D01*
G01X10060000Y580000D02*
Y260000D01*
X10220000D01*
G01X10540000D02*
X10380000D01*
Y580000D01*
X10540000D01*
G01X10480000Y430000D02*
X10380000D01*
G01X10700000Y260000D02*
Y580000D01*
X10800000D01*
X10830000Y560000D01*
X10850000Y540000D01*
X10860000Y500000D01*
X10850000Y460000D01*
X10830000Y430000D01*
X10800000Y410000D01*
X10700000D01*
G01X10800000D02*
X10860000Y260000D01*
G01X11000000D02*
X11100000Y580000D01*
X11200000Y260000D01*
G01X11160000Y370000D02*
X11040000D01*
G01X11330000Y260000D02*
Y580000D01*
X11510000Y260000D01*
Y580000D01*
G01X11830000Y550000D02*
X11800000Y570000D01*
X11780000Y580000D01*
X11740000D01*
X11710000Y560000D01*
X11680000Y540000D01*
X11660000Y510000D01*
X11640000Y450000D01*
Y400000D01*
X11650000Y360000D01*
X11660000Y320000D01*
X11680000Y290000D01*
X11710000Y270000D01*
X11740000Y260000D01*
X11770000D01*
X11800000Y270000D01*
X11820000Y290000D01*
X11840000Y310000D01*
G01X12140000Y260000D02*
X11980000D01*
Y580000D01*
X12140000D01*
G01X12080000Y430000D02*
X11980000D01*
G01X12260000Y150000D02*
X12500000D01*
G01X12610000Y260000D02*
Y580000D01*
X12690000D01*
X12720000Y560000D01*
X12750000Y540000D01*
X12770000Y510000D01*
X12780000Y470000D01*
X12790000Y420000D01*
X12780000Y370000D01*
X12770000Y330000D01*
X12750000Y300000D01*
X12720000Y280000D01*
X12690000Y260000D01*
X12610000D01*
G01X12940000D02*
Y580000D01*
X13040000D01*
X13070000Y560000D01*
X13090000Y540000D01*
X13100000Y500000D01*
X13090000Y460000D01*
X13070000Y430000D01*
X13040000Y410000D01*
X12940000D01*
G01X13040000D02*
X13100000Y260000D01*
G01X13290000Y580000D02*
X13390000D01*
G01X13340000D02*
Y260000D01*
G01X13290000D02*
X13390000D01*
G01X13580000Y580000D02*
Y260000D01*
X13740000D01*
G01X13900000Y580000D02*
Y260000D01*
X14060000D01*
G01X10420000Y-1750000D02*
X10510000D01*
G01X10460000Y-1680000D02*
Y-1820000D01*
G01X10780000Y-1540000D02*
X10750000Y-1550000D01*
X10720000Y-1580000D01*
X10710000Y-1610000D01*
X10700000Y-1650000D01*
X10690000Y-1700000D01*
X10700000Y-1750000D01*
X10710000Y-1790000D01*
X10720000Y-1820000D01*
X10750000Y-1850000D01*
X10780000Y-1860000D01*
X10810000Y-1850000D01*
X10840000Y-1820000D01*
X10850000Y-1790000D01*
X10860000Y-1750000D01*
X10870000Y-1700000D01*
X10860000Y-1650000D01*
X10850000Y-1610000D01*
X10840000Y-1580000D01*
X10810000Y-1550000D01*
X10780000Y-1540000D01*
G01X11100000Y-1870000D02*
X11090000D01*
Y-1850000D01*
X11100000D01*
X11110000D01*
Y-1870000D01*
X11100000D01*
G01X11420000Y-1860000D02*
Y-1540000D01*
X11370000Y-1600000D01*
G01Y-1860000D02*
X11470000D01*
G01X11670000Y-1870000D02*
X11810000Y-1540000D01*
G01X12010000Y-1750000D02*
X12110000D01*
G01X12380000Y-1540000D02*
X12350000Y-1550000D01*
X12320000Y-1580000D01*
X12310000Y-1610000D01*
X12300000Y-1650000D01*
X12290000Y-1700000D01*
X12300000Y-1750000D01*
X12310000Y-1790000D01*
X12320000Y-1820000D01*
X12350000Y-1850000D01*
X12380000Y-1860000D01*
X12410000Y-1850000D01*
X12440000Y-1820000D01*
X12450000Y-1790000D01*
X12460000Y-1750000D01*
X12470000Y-1700000D01*
X12460000Y-1650000D01*
X12450000Y-1610000D01*
X12440000Y-1580000D01*
X12410000Y-1550000D01*
X12380000Y-1540000D01*
G01X12700000Y-1870000D02*
X12690000D01*
Y-1850000D01*
X12700000D01*
X12710000D01*
Y-1870000D01*
X12700000D01*
G01X13020000Y-1860000D02*
Y-1540000D01*
X12970000Y-1600000D01*
G01Y-1860000D02*
X13070000D01*
G01X10420000Y-550000D02*
X10510000D01*
G01X10460000Y-480000D02*
Y-620000D01*
G01X10780000Y-340000D02*
X10750000Y-350000D01*
X10720000Y-380000D01*
X10710000Y-410000D01*
X10700000Y-450000D01*
X10690000Y-500000D01*
X10700000Y-550000D01*
X10710000Y-590000D01*
X10720000Y-620000D01*
X10750000Y-650000D01*
X10780000Y-660000D01*
X10810000Y-650000D01*
X10840000Y-620000D01*
X10850000Y-590000D01*
X10860000Y-550000D01*
X10870000Y-500000D01*
X10860000Y-450000D01*
X10850000Y-410000D01*
X10840000Y-380000D01*
X10810000Y-350000D01*
X10780000Y-340000D01*
G01X11100000Y-670000D02*
X11090000D01*
Y-650000D01*
X11100000D01*
X11110000D01*
Y-670000D01*
X11100000D01*
G01X11420000Y-660000D02*
Y-340000D01*
X11370000Y-400000D01*
G01Y-660000D02*
X11470000D01*
G01X11670000Y-670000D02*
X11810000Y-340000D01*
G01X12010000Y-550000D02*
X12110000D01*
G01X12380000Y-340000D02*
X12350000Y-350000D01*
X12320000Y-380000D01*
X12310000Y-410000D01*
X12300000Y-450000D01*
X12290000Y-500000D01*
X12300000Y-550000D01*
X12310000Y-590000D01*
X12320000Y-620000D01*
X12350000Y-650000D01*
X12380000Y-660000D01*
X12410000Y-650000D01*
X12440000Y-620000D01*
X12450000Y-590000D01*
X12460000Y-550000D01*
X12470000Y-500000D01*
X12460000Y-450000D01*
X12450000Y-410000D01*
X12440000Y-380000D01*
X12410000Y-350000D01*
X12380000Y-340000D01*
G01X12700000Y-670000D02*
X12690000D01*
Y-650000D01*
X12700000D01*
X12710000D01*
Y-670000D01*
X12700000D01*
G01X13020000Y-660000D02*
Y-340000D01*
X12970000Y-400000D01*
G01Y-660000D02*
X13070000D01*
G01X14450000Y-1860000D02*
Y-1540000D01*
X14630000Y-1860000D01*
Y-1540000D01*
G01X14860000Y-1860000D02*
X14830000Y-1850000D01*
X14800000Y-1830000D01*
X14780000Y-1800000D01*
X14760000Y-1760000D01*
X14750000Y-1720000D01*
Y-1680000D01*
X14760000Y-1640000D01*
X14780000Y-1600000D01*
X14800000Y-1570000D01*
X14830000Y-1550000D01*
X14860000Y-1540000D01*
X14890000Y-1550000D01*
X14920000Y-1570000D01*
X14940000Y-1600000D01*
X14960000Y-1640000D01*
X14970000Y-1680000D01*
Y-1720000D01*
X14960000Y-1760000D01*
X14940000Y-1800000D01*
X14920000Y-1830000D01*
X14890000Y-1850000D01*
X14860000Y-1860000D01*
G01X15090000D02*
Y-1540000D01*
X15270000Y-1860000D01*
Y-1540000D01*
G01X15450000Y-1750000D02*
X15550000D01*
G01X15740000Y-1860000D02*
Y-1540000D01*
X15840000D01*
X15870000Y-1560000D01*
X15890000Y-1590000D01*
X15900000Y-1640000D01*
X15890000Y-1680000D01*
X15870000Y-1710000D01*
X15840000Y-1730000D01*
X15740000D01*
G01X16060000Y-1540000D02*
Y-1860000D01*
X16220000D01*
G01X16360000D02*
X16460000Y-1540000D01*
X16560000Y-1860000D01*
G01X16520000Y-1750000D02*
X16400000D01*
G01X16780000Y-1540000D02*
Y-1860000D01*
G01X16690000Y-1540000D02*
X16870000D01*
G01X17180000Y-1860000D02*
X17020000D01*
Y-1540000D01*
X17180000D01*
G01X17120000Y-1690000D02*
X17020000D01*
G01X17330000Y-1860000D02*
Y-1540000D01*
X17410000D01*
X17440000Y-1560000D01*
X17470000Y-1580000D01*
X17490000Y-1610000D01*
X17500000Y-1650000D01*
X17510000Y-1700000D01*
X17500000Y-1750000D01*
X17490000Y-1790000D01*
X17470000Y-1820000D01*
X17440000Y-1840000D01*
X17410000Y-1860000D01*
X17330000D01*
G01X14340000Y740000D02*
Y-2300000D01*
G01X15100000Y-660000D02*
Y-340000D01*
X15200000D01*
X15230000Y-360000D01*
X15250000Y-390000D01*
X15260000Y-440000D01*
X15250000Y-480000D01*
X15230000Y-510000D01*
X15200000Y-530000D01*
X15100000D01*
G01X15420000Y-340000D02*
Y-660000D01*
X15580000D01*
G01X15720000D02*
X15820000Y-340000D01*
X15920000Y-660000D01*
G01X15880000Y-550000D02*
X15760000D01*
G01X16140000Y-340000D02*
Y-660000D01*
G01X16050000Y-340000D02*
X16230000D01*
G01X16540000Y-660000D02*
X16380000D01*
Y-340000D01*
X16540000D01*
G01X16480000Y-490000D02*
X16380000D01*
G01X16690000Y-660000D02*
Y-340000D01*
X16770000D01*
X16800000Y-360000D01*
X16830000Y-380000D01*
X16850000Y-410000D01*
X16860000Y-450000D01*
X16870000Y-500000D01*
X16860000Y-550000D01*
X16850000Y-590000D01*
X16830000Y-620000D01*
X16800000Y-640000D01*
X16770000Y-660000D01*
X16690000D01*
G01X15100000Y260000D02*
Y580000D01*
X15200000D01*
X15230000Y560000D01*
X15250000Y530000D01*
X15260000Y480000D01*
X15250000Y440000D01*
X15230000Y410000D01*
X15200000Y390000D01*
X15100000D01*
G01X15420000Y580000D02*
Y260000D01*
X15580000D01*
G01X15720000D02*
X15820000Y580000D01*
X15920000Y260000D01*
G01X15880000Y370000D02*
X15760000D01*
G01X16140000Y580000D02*
Y260000D01*
G01X16050000Y580000D02*
X16230000D01*
G01X16540000Y260000D02*
X16380000D01*
Y580000D01*
X16540000D01*
G01X16480000Y430000D02*
X16380000D01*
G01X16690000Y260000D02*
Y580000D01*
X16770000D01*
X16800000Y560000D01*
X16830000Y540000D01*
X16850000Y510000D01*
X16860000Y470000D01*
X16870000Y420000D01*
X16860000Y370000D01*
X16850000Y330000D01*
X16830000Y300000D01*
X16800000Y280000D01*
X16770000Y260000D01*
X16690000D01*
G01X17620000Y740000D02*
Y-2300000D01*
G01X18620000Y-1860000D02*
Y-1540000D01*
X18570000Y-1600000D01*
G01Y-1860000D02*
X18670000D01*
G01X18510000Y-660000D02*
Y-340000D01*
X18360000Y-570000D01*
X18560000D01*
G01X18780000Y-660000D02*
X18810000Y-650000D01*
X18840000Y-640000D01*
X18860000Y-610000D01*
X18870000Y-570000D01*
X18860000Y-540000D01*
X18840000Y-510000D01*
X18800000Y-490000D01*
X18760000D01*
X18740000Y-480000D01*
X18720000Y-450000D01*
X18710000Y-410000D01*
X18720000Y-380000D01*
X18750000Y-350000D01*
X18780000Y-340000D01*
X18810000Y-350000D01*
X18840000Y-380000D01*
X18850000Y-410000D01*
X18840000Y-450000D01*
X18820000Y-480000D01*
X18800000Y-490000D01*
X18760000D01*
X18720000Y-510000D01*
X18700000Y-540000D01*
X18690000Y-570000D01*
X18700000Y-610000D01*
X18720000Y-640000D01*
X18750000Y-650000D01*
X18780000Y-660000D01*
G01X18300000Y260000D02*
X18270000Y270000D01*
X18240000Y290000D01*
X18220000Y320000D01*
X18200000Y360000D01*
X18190000Y400000D01*
Y440000D01*
X18200000Y480000D01*
X18220000Y520000D01*
X18240000Y550000D01*
X18270000Y570000D01*
X18300000Y580000D01*
X18330000Y570000D01*
X18360000Y550000D01*
X18380000Y520000D01*
X18400000Y480000D01*
X18410000Y440000D01*
Y400000D01*
X18400000Y360000D01*
X18380000Y320000D01*
X18360000Y290000D01*
X18330000Y270000D01*
X18300000Y260000D01*
G01X18330000Y350000D02*
X18380000Y260000D01*
G01X18620000Y580000D02*
Y260000D01*
G01X18530000Y580000D02*
X18710000D01*
G01X18940000Y260000D02*
Y400000D01*
X18860000Y580000D01*
G01X19020000D02*
X18940000Y400000D01*
M02*
