G04 ================== begin FILE IDENTIFICATION RECORD ==================*
G04 Layout Name:  artificiall_eye_ver00_routed.brd*
G04 Film Name:    BOTTOM*
G04 File Format:  Gerber RS274X*
G04 File Origin:  Cadence Allegro 17.2-P019*
G04 Origin Date:  Wed Jul 18 17:22:37 2018*
G04 *
G04 Layer:  BOARD GEOMETRY/OUTLINE*
G04 Layer:  ETCH/BOTTOM*
G04 Layer:  PIN/BOTTOM*
G04 Layer:  VIA CLASS/BOTTOM*
G04 *
G04 Offset:    (0.0000 0.0000)*
G04 Mirror:    No*
G04 Mode:      Positive*
G04 Rotation:  0*
G04 FullContactRelief:  No*
G04 UndefLineWidth:     0.2000*
G04 ================== end FILE IDENTIFICATION RECORD ====================*
%FSLAX25Y25*MOMM*%
%IR0*IPPOS*OFA0.00000B0.00000*MIA0B0*SFA1.00000B1.00000*%
%ADD13R,.3X1.3*%
%ADD14R,1.3X.3*%
%ADD17C,15.5*%
%ADD15R,1.651X.3302*%
%ADD11C,.635*%
%AMMACRO20*
4,1,18,-1.1,-3.15,
1.1,-3.15,
1.1,3.15,
-1.1,3.15,
-1.1,1.9843,
-.769863,1.789188,
-.478621,1.539713,
-.235126,1.243454,
-.046774,.909414,
.08071,.547741,
.143454,.169426,
.139551,-.214037,
.06912,-.590997,
-.0657,-.95,
-.260812,-1.280137,
-.510287,-1.571379,
-.806546,-1.814874,
-1.1,-1.9843,
-1.1,-3.15,
0.0*
%
%ADD20MACRO20*%
%ADD16C,1.46*%
%ADD10C,1.4605*%
%ADD12R,1.2497X1.0008*%
%ADD18R,1.0008X1.2497*%
%AMMACRO19*
4,1,18,1.1,3.15,
-1.1,3.15,
-1.1,-3.15,
1.1,-3.15,
1.1,-1.9843,
.769863,-1.789188,
.478621,-1.539713,
.235126,-1.243454,
.046774,-.909414,
-.08071,-.547741,
-.143454,-.169426,
-.139551,.214037,
-.06912,.590997,
.0657,.95,
.260812,1.280137,
.510287,1.571379,
.806546,1.814874,
1.1,1.9843,
1.1,3.15,
0.0*
%
%ADD19MACRO19*%
%ADD21C,.3*%
%ADD22C,.15*%
%ADD23C,.35*%
%ADD24C,.3302*%
%ADD25C,.2*%
G75*
%LPD*%
G75*
G54D10*
X270000Y1233000D03*
Y1487000D03*
X203000Y4060000D03*
X213000Y4475000D03*
Y4729000D03*
Y4983000D03*
Y5237000D03*
Y5491000D03*
Y5745000D03*
X457000Y4060000D03*
X467000Y4475000D03*
Y4983000D03*
Y4729000D03*
Y5745000D03*
Y5491000D03*
Y5237000D03*
X765000Y5503000D03*
Y5757000D03*
X1527000Y5503000D03*
X1273000D03*
X1019000D03*
Y5757000D03*
X1273000D03*
X1527000D03*
X2035000Y5503000D03*
X1781000D03*
Y5757000D03*
X2035000D03*
X2373000Y783000D03*
X2627000D03*
X2373000Y1037000D03*
X2627000D03*
X3273000Y220000D03*
X3527000D03*
X5717000Y913000D03*
Y659000D03*
Y405000D03*
X5463000D03*
Y659000D03*
Y913000D03*
X5717000Y1421000D03*
Y1167000D03*
X5463000D03*
Y1421000D03*
X5717000Y1675000D03*
X5463000D03*
G54D20*
X5755000Y5570000D03*
G54D11*
X263980Y1816950D03*
X260000Y2436870D03*
X146720Y2893190D03*
X210970Y3077490D03*
X161720Y3642000D03*
X203680Y3563500D03*
X171410Y3408400D03*
X92470Y4609230D03*
X330000Y131000D03*
X854030Y138250D03*
X350250Y526870D03*
X833130Y700010D03*
X830760Y361750D03*
X341750Y683750D03*
X613570Y1456750D03*
X890250Y1467170D03*
X811750Y1412920D03*
X293980Y2043130D03*
X655480Y1793010D03*
X765750Y1707500D03*
X821260Y1793010D03*
X657250Y1535250D03*
X611800Y2301690D03*
X821260D03*
X468660Y2672050D03*
X657250Y3077490D03*
X820000Y2726300D03*
X557550D03*
X611800Y2882420D03*
X443780Y2796590D03*
X711500Y3229040D03*
X603000Y3408400D03*
X807720Y3563500D03*
X773250Y3337580D03*
X496570Y3897990D03*
X540930Y4320560D03*
X673680Y4255530D03*
X657250Y4036490D03*
X595180Y4179780D03*
X816710Y4682310D03*
X1439250Y361750D03*
X940000Y553630D03*
X1033290Y700000D03*
X1117540Y542620D03*
X1062030Y474340D03*
X1439250Y780740D03*
X1170760Y361750D03*
X1299500Y699050D03*
X1355000Y620550D03*
X1183130Y1435750D03*
X1180000Y1090000D03*
X1173510Y995000D03*
X1089260Y1232000D03*
X1439250Y1379240D03*
X1035010Y1153500D03*
X980750Y1262000D03*
X925240Y1204820D03*
X1280790Y1862040D03*
X1055510Y1847260D03*
X1301120Y1987420D03*
X1013680Y2052420D03*
X1135000Y1743480D03*
X1013680Y2312460D03*
X1400790Y2467490D03*
X1013680Y2673310D03*
X1276200Y2117420D03*
X1425050Y2106040D03*
X1443480Y3167490D03*
X1073080Y3012460D03*
X1443480Y2905090D03*
X1070000Y2870000D03*
X1187330Y2850840D03*
X1328030Y2796590D03*
X1303790Y2905090D03*
X1093680Y2727580D03*
X1424550Y3802460D03*
X1369040Y3867490D03*
X1389230Y3362570D03*
X1405550Y3633410D03*
X1247720Y4250840D03*
X1407790Y4502460D03*
X1123690Y4280840D03*
X918210Y5099240D03*
X1352280Y4567490D03*
X1239040Y5022510D03*
X1463300Y4762560D03*
X1422780Y4881830D03*
X1002460Y5334990D03*
X1906750Y284260D03*
X2091750Y750000D03*
X1610000Y575380D03*
X1729480D03*
X2075250Y338510D03*
X1816710Y750000D03*
X1814990Y495440D03*
X1501500Y609500D03*
X1860000Y1170000D03*
X1576870Y1186780D03*
X1836710Y1273500D03*
X1643130Y1270000D03*
X1631120Y1030000D03*
X2091750Y1270000D03*
X1587720Y1922420D03*
X1869410Y1689230D03*
X2066870Y1568500D03*
X1926320Y2694390D03*
X1667720Y2700840D03*
X2084810Y2337440D03*
X1956320Y2272420D03*
X1691970Y2870230D03*
X1943080Y3232510D03*
X2034820Y3167490D03*
X2084810Y2893920D03*
X1926320Y2972420D03*
X2067880Y3867490D03*
X1926320Y3802460D03*
X1497730Y3418570D03*
X1581970Y3672430D03*
X1530000Y4210000D03*
X2067880Y4129770D03*
X1926320D03*
X1503930Y4340000D03*
X2013630Y4051270D03*
X1505820Y3930190D03*
X1614820Y4437440D03*
X1902070Y4284750D03*
X1614820Y4081790D03*
X1926320Y4948390D03*
X1796320D03*
X1516280Y4957490D03*
X1667720Y4697540D03*
X1530580Y4827580D03*
X1796320Y5270000D03*
X1876530Y5173250D03*
X2656870Y260000D03*
X2147260Y824270D03*
X2233130Y338500D03*
X2253220Y854270D03*
X2285760Y597520D03*
X2394260Y543270D03*
X2140000Y1050000D03*
X2532510Y1442280D03*
X2100000Y1460000D03*
X2151120Y1349250D03*
X2597540Y1497790D03*
X2209160Y1913290D03*
X2532510Y1758470D03*
X2356460Y2050540D03*
X2140320Y2467490D03*
X2540000Y2571250D03*
X2401500Y2337440D03*
X2575750Y2371500D03*
X2411970Y2106050D03*
X2625500Y2492750D03*
X2485750Y2709750D03*
X2236450Y4502460D03*
X2371500Y4395070D03*
X2532510Y4928170D03*
X2597540Y4983680D03*
X2216920Y4948390D03*
X2272420Y4621740D03*
X2597540Y5545050D03*
X2140090Y5395470D03*
X2413240Y5264780D03*
X2521740D03*
X2943980Y250000D03*
X3153220Y195750D03*
X2871570Y411190D03*
X3297540Y1182000D03*
X3232510Y1442280D03*
X2970270D03*
X2850840Y1913290D03*
X3119000Y2046320D03*
X3113240Y1509110D03*
X2821890Y1774790D03*
X2836500Y2702500D03*
X3297540Y4983680D03*
X3163500D03*
X3232510Y5296530D03*
X3252300Y5451550D03*
X2727580Y5551780D03*
X2905090Y5652780D03*
X2836500Y5737820D03*
X3163500Y5846320D03*
X3407220Y259560D03*
X3392780Y178720D03*
X3490290Y900010D03*
X3463340Y1152460D03*
X3683190Y1454860D03*
X3517590Y1336760D03*
X3596090D03*
X3351790Y964250D03*
X3490300Y1009500D03*
X3490840Y1829040D03*
X3815500Y2046320D03*
X3791690Y1594160D03*
X3457570Y1649360D03*
X3842500Y1757720D03*
X3511820Y1563360D03*
X3362560Y1595110D03*
X3498500Y4928180D03*
X3672420Y4973000D03*
X3609160Y5163780D03*
X3311010Y5242280D03*
X3554910D03*
X3427580Y5428280D03*
X3490840Y5652780D03*
X3923290Y240000D03*
X4383290D03*
X4299340Y1118000D03*
X4190840Y1207930D03*
X4329340Y1486590D03*
X3997540Y1540840D03*
Y1703470D03*
X4200100Y1781970D03*
X4128030Y1649340D03*
X4254350Y1920470D03*
X4314750Y2190550D03*
X4226840Y2820850D03*
X3997540Y4953000D03*
X4264060Y4933750D03*
X4050320Y4634250D03*
X3932510Y5259040D03*
X3997540Y5535800D03*
X4264060Y5313290D03*
X3932510Y5380720D03*
X4127580Y5526400D03*
X4372420Y5242280D03*
X4437440Y5464650D03*
X4313130Y5820000D03*
X4696320Y762420D03*
X4958000Y1197940D03*
X4617820Y1591290D03*
X5092180Y1621290D03*
X4977250Y2402460D03*
X4767990Y2606550D03*
X4849500Y2341500D03*
X4516220Y2136300D03*
Y2504250D03*
X4570470Y2425750D03*
X4983680Y3102460D03*
Y3836470D03*
X4928000Y3306560D03*
X4890000Y3510000D03*
X4873750Y3418560D03*
X4983680Y4567500D03*
X4571250Y4697540D03*
X4896710Y5580000D03*
X4600000Y5440000D03*
X4697540Y5337540D03*
X4827580Y5272280D03*
X4762560Y5464650D03*
X5170680Y763220D03*
X5675720Y787470D03*
X5146430Y1009500D03*
X5344930Y1251700D03*
X5146430Y1794780D03*
Y2022060D03*
X5242280Y2467490D03*
X5530550D03*
X5339630Y2662560D03*
Y2337440D03*
X5242280Y2274800D03*
X5621480Y2190550D03*
X5259040Y3167490D03*
X5557720Y3232510D03*
X5327800Y2766590D03*
X5530550Y2916910D03*
X5485610Y3102460D03*
X5397540Y2972420D03*
X5259040Y3867490D03*
X5503470Y3737440D03*
X5269090Y3416810D03*
X5621480Y3550840D03*
X5242280Y4502460D03*
X5332280Y4166590D03*
X5557720Y3921740D03*
X5332280Y3997540D03*
X5503470Y4437440D03*
Y4062560D03*
X5332280Y4703270D03*
X5503470Y4762560D03*
X5146430Y4920840D03*
X5523630Y5380000D03*
X5188250Y5595280D03*
X5507490Y5657490D03*
X5514370Y5538210D03*
X5593000Y5592460D03*
X5187760Y5907500D03*
X5176870Y5820000D03*
X5842530Y84000D03*
X5850050Y1794780D03*
Y1527510D03*
X5916090Y5787540D03*
G54D21*
G01X885000Y250000D02*
Y170000D01*
X854030Y139030D01*
Y138250D01*
G01D02*
X1135000D01*
Y250000D01*
G01X1183130Y1435750D02*
X1235000Y1487620D01*
Y1590000D01*
G01X1729480Y575380D02*
X1880960Y726860D01*
Y1045000D01*
X1980000D01*
G01X2100000Y1460000D02*
X2070000Y1490000D01*
X1882500D01*
Y1395000D01*
X1980000D01*
G54D12*
X330000Y229920D03*
Y430080D03*
G54D22*
G01X640000Y445000D02*
X552500D01*
Y357540D01*
X174470D01*
Y2442480D01*
X295540Y2563550D01*
Y2572560D01*
X1142980D01*
G01X171410Y3408400D02*
Y3142510D01*
X352980D01*
G01Y2947440D02*
X107470D01*
Y4179780D01*
X595180D01*
G01X802980Y4385580D02*
X697930D01*
Y4376570D01*
X77470D01*
Y2672050D01*
X468660D01*
G01X203680Y3563500D02*
X458030D01*
Y3207540D01*
X352980D01*
G01X92470Y4609230D02*
X908030D01*
G01X213000Y5491000D02*
X369010Y5334990D01*
X1002460D01*
G01X213000Y5237000D02*
X311470Y5138530D01*
X759680D01*
X816710Y5081500D01*
Y4682310D01*
G01X467000Y4983000D02*
X341470Y5108530D01*
X117470D01*
Y5882530D01*
X2183490D01*
X2413240Y5652780D01*
G01X213000Y5745000D02*
X320530Y5852530D01*
X1652530D01*
Y5413790D01*
X1796320Y5270000D01*
G01X5463000Y1421000D02*
X5558530Y1325470D01*
Y84000D01*
X757500D01*
Y795000D01*
X640000D01*
G01X833130Y700010D02*
Y517870D01*
X935000Y416000D01*
G01X640000Y845000D02*
X1117540D01*
Y542620D01*
G01X640000Y495000D02*
X432500D01*
Y2507540D01*
X1142980D01*
G01X640000Y545000D02*
X462500D01*
Y2442510D01*
X1142980D01*
G01X640000Y595000D02*
X492500D01*
Y2377490D01*
X1142980D01*
G01X640000Y645000D02*
X522500D01*
Y2247440D01*
X1142980D01*
G01X835000Y250000D02*
Y357510D01*
X830760Y361750D01*
G01X330000Y430080D02*
X287500D01*
Y629500D01*
X341750Y683750D01*
G01X640000Y1395000D02*
X613570D01*
Y1456750D01*
G01X640000Y895000D02*
X1171790D01*
Y474340D01*
X1062030D01*
G01X640000Y945000D02*
X552500D01*
Y1847260D01*
X1055510D01*
G01X640000Y995000D02*
X1173510D01*
G01X640000Y1295000D02*
X757500D01*
Y1467170D01*
X890250D01*
G01X640000Y1345000D02*
X727500D01*
Y1465000D01*
X657250Y1535250D01*
G01X640000Y1245000D02*
X811750D01*
Y1412920D01*
G01X640000Y1045000D02*
X1089260D01*
Y1232000D01*
G01X640000Y1195000D02*
X787500D01*
Y1078250D01*
X959760D01*
X1035010Y1153500D01*
G01X835000Y1590000D02*
X655480D01*
Y1793010D01*
G01X885000Y1590000D02*
Y1707500D01*
X765750D01*
G01X935000Y1590000D02*
Y1793010D01*
X821260D01*
G01X611800Y2301690D02*
X821260D01*
G01X820000Y2726300D02*
X557550D01*
G01X352980Y2882420D02*
X611800D01*
G01X352980Y3012460D02*
X496570D01*
Y3897990D01*
G01X443780Y2796590D02*
X1046680D01*
X1047520Y2795750D01*
X1092480D01*
X1093320Y2796590D01*
X1328030D01*
G01X927020Y3272560D02*
X795750D01*
Y3174790D01*
X657250D01*
Y4036490D01*
G01X1092980Y4762420D02*
X968030D01*
Y3451830D01*
X711500D01*
Y3229040D01*
G01X927020Y3337580D02*
X773250D01*
G01X673680Y4255530D02*
X802980D01*
G01X908030Y4609230D02*
Y4190510D01*
X802980D01*
G01X457000Y4060000D02*
X582530D01*
Y4125480D01*
X802980D01*
G01X467000Y5745000D02*
Y5491000D01*
G01X1092980Y4827440D02*
X1293290D01*
Y5256590D01*
X652530D01*
Y5237000D01*
X467000D01*
G01X765000Y5757000D02*
X890530Y5631470D01*
Y5395480D01*
X1323290D01*
Y4711740D01*
X1069440D01*
Y4125480D01*
X1377020D01*
G01X3392780Y178720D02*
X3338530Y124470D01*
X1285000D01*
Y250000D01*
G01X1335000D02*
Y162500D01*
X3119970D01*
X3153220Y195750D01*
G01X935000Y416000D02*
X1852500D01*
Y230010D01*
X2527380D01*
Y315530D01*
X3351250D01*
X3407220Y259560D01*
G01X935000Y416000D02*
Y250000D01*
G01X1439250Y1379240D02*
Y780740D01*
G01X1385000Y250000D02*
Y361750D01*
X1170760D01*
G01X1085000Y1590000D02*
Y1316250D01*
X1237380D01*
Y495440D01*
X1814990D01*
G01X1185000Y1590000D02*
Y1490660D01*
X1128880D01*
Y1376250D01*
X1299500D01*
Y699050D01*
G01X1335000Y1590000D02*
Y1120310D01*
X1355000D01*
Y620550D01*
G01X1385000Y1590000D02*
Y674800D01*
X1436200D01*
X1501500Y609500D01*
G01X985000Y1590000D02*
Y1502500D01*
X980750D01*
Y1262000D01*
G01X1035000Y1590000D02*
Y1207750D01*
X928170D01*
X925240Y1204820D01*
G01X1285000Y1857830D02*
X1297750Y1845080D01*
Y1786000D01*
X1954700D01*
Y1829040D01*
X3490840D01*
G01X1285000Y1857830D02*
Y1590000D01*
G01X1280790Y1862040D02*
X1285000Y1857830D01*
G01X1142980Y1922420D02*
X1335040D01*
Y1890730D01*
X1366730Y1859040D01*
X2990500D01*
Y2595500D01*
X4314750D01*
Y2190550D01*
G01X1142980Y1987420D02*
X1301120D01*
G01X1135000Y1590000D02*
Y1743480D01*
G01X1142980Y2637580D02*
X1045430D01*
X1013680Y2669330D01*
Y2673310D01*
G01X1142980Y2052420D02*
X1013680D01*
G01X1142980Y2117420D02*
X1276200D01*
G01X1142980Y2182420D02*
X1348670D01*
X1425050Y2106040D01*
G01X927020Y3207540D02*
X1187330D01*
Y2850840D01*
G01X1328030Y2796590D02*
X1389230Y2857790D01*
Y3362570D01*
G01X1303790Y2905090D02*
Y3732660D01*
X1318790Y3747660D01*
X1545570D01*
X1560570Y3762660D01*
Y4163840D01*
X1584250Y4187520D01*
Y4232480D01*
X1560570Y4256160D01*
Y4370580D01*
X1545570Y4385580D01*
X1535080D01*
X1504280Y4416380D01*
X1473860D01*
X1443060Y4385580D01*
X1377020D01*
G01X1717020Y2247440D02*
X1455050D01*
Y2727580D01*
X1093680D01*
G01X1389230Y3362570D02*
X1398050Y3371390D01*
Y3625910D01*
X1405550Y3633410D01*
G01X1503930Y4340000D02*
X1500000D01*
X1480560Y4320560D01*
X1377020D01*
G01Y4060460D02*
X1505820D01*
Y3930190D01*
G01X1273000Y5757000D02*
X1368530Y5661470D01*
Y4651740D01*
X1246110D01*
X1123690Y4529320D01*
Y4280840D01*
G01X1527000Y5757000D02*
X1422780Y5652780D01*
Y4881830D01*
G01X1092980Y4892460D02*
X908030D01*
Y4609230D01*
G01X5344930Y1251700D02*
Y402170D01*
X5288290Y345530D01*
X2407380D01*
Y284250D01*
X1906760D01*
X1906750Y284260D01*
G01X1980000Y595000D02*
X2147260D01*
Y824270D01*
G01X1980000Y645000D02*
X1892500D01*
Y338510D01*
X2075250D01*
G01X1980000Y1095000D02*
X1816710D01*
Y750000D01*
G01X1980000Y545000D02*
X2067500D01*
Y543270D01*
X2394260D01*
G01X1860000Y1170000D02*
X1885000Y1195000D01*
X1980000D01*
G01X3992980Y1087440D02*
X3436040D01*
Y880000D01*
X3024520D01*
Y1622750D01*
X1869440D01*
X1822500Y1575810D01*
Y1435000D01*
X1607580D01*
X1576870Y1404290D01*
Y1186780D01*
G01X1980000Y1245000D02*
X1892500D01*
Y1273500D01*
X1836710D01*
G01X1980000Y1345000D02*
X1718130D01*
X1643130Y1270000D01*
G01D02*
Y1042010D01*
X1631120Y1030000D01*
G01X1980000Y1295000D02*
X2060000D01*
X2085000Y1270000D01*
X2091750D01*
G01X1980000Y1145000D02*
X2097500D01*
Y1162530D01*
X2498530D01*
Y484030D01*
X2378660D01*
X2233130Y338500D01*
G01X1980000Y995000D02*
X2161730D01*
X2194250Y1027520D01*
Y1115780D01*
X2211000Y1132530D01*
X2433530D01*
X2468530Y1097530D01*
Y878530D01*
X2373000Y783000D01*
G01Y1037000D02*
X2236000D01*
Y945000D01*
X1980000D01*
G01X3992980Y1282510D02*
X3054520D01*
Y1689230D01*
X1869410D01*
G01X1717020Y1987420D02*
X2750000D01*
Y2625500D01*
X4178000D01*
X4226840Y2674340D01*
Y2820850D01*
G01X1717020Y2377490D02*
X1497730D01*
Y3418570D01*
G01X1717020Y2312460D02*
X1852070D01*
Y2898170D01*
X1926320Y2972420D01*
G01X1717020Y2182420D02*
X1866320D01*
X1956320Y2272420D01*
G01X1717020Y2117420D02*
X1980440D01*
Y2131710D01*
X2371500Y2522760D01*
Y4395070D01*
G01X1717020Y2052420D02*
X2284570D01*
Y2101380D01*
X2485750Y2302560D01*
Y2709750D01*
G01X1717020Y2637580D02*
X1746220D01*
Y3518280D01*
X1673820Y3590680D01*
Y4535580D01*
X1530580D01*
Y4827580D01*
G01X1717020Y2572560D02*
X1822070D01*
Y4204750D01*
X1902070Y4284750D01*
G01X1717020Y2507540D02*
X1611970D01*
Y3175090D01*
X1636220D01*
Y4060390D01*
X1614820Y4081790D01*
G01X1717020Y2442510D02*
X1581970D01*
Y3672430D01*
G01X2140320Y3023500D02*
X2087570D01*
X2034820Y3076250D01*
Y3167490D01*
G01X2246000Y3373000D02*
X2013630Y3605370D01*
Y4051270D01*
G01X2246000Y3119000D02*
X1926320Y3438680D01*
Y3802460D01*
G01X1614820Y4437440D02*
X1539060D01*
X1463300Y4513200D01*
Y4762560D01*
G01X1667720Y4697540D02*
X2010570Y4354690D01*
Y4214020D01*
X2122130D01*
Y4004870D01*
X2246000Y3881000D01*
G01X1796320Y4948390D02*
Y4924210D01*
X1764570Y4892460D01*
X1667020D01*
G01X1516280Y4957490D02*
X1667020D01*
G01X3163500Y4983680D02*
X3089170Y5058010D01*
X2511340D01*
X2250530Y5318820D01*
Y5410910D01*
X2158440Y5503000D01*
X2035000D01*
G01Y5757000D02*
X1876530Y5598530D01*
Y5173250D01*
G01X2253220Y854270D02*
Y630060D01*
X2285760Y597520D01*
G01X5397540Y2972420D02*
Y2267060D01*
X5260680Y2130200D01*
Y633410D01*
X2782530D01*
Y1349250D01*
X2151120D01*
G01X2209160Y1913290D02*
X2850840D01*
G01X2532510Y1758470D02*
X2532520Y1758480D01*
X2805580D01*
X2821890Y1774790D01*
G01X2356460Y2050540D02*
X2518100D01*
X2679750Y2212190D01*
Y4373410D01*
X2140090Y4913070D01*
Y5395470D01*
G01X2066870Y1568500D02*
X2872530D01*
Y663410D01*
X5070870D01*
X5170680Y763220D01*
G01X2140320Y2467490D02*
Y3023500D01*
G01X2084810Y2893920D02*
Y2337440D01*
G01X2540000Y2571250D02*
Y2764000D01*
X2401500D01*
Y2337440D01*
G01X2575750Y2371500D02*
Y2269830D01*
X2411970Y2106050D01*
G01X2272420Y4621740D02*
X2625500Y4268660D01*
Y2492750D01*
G01X2067880Y3867490D02*
Y3615900D01*
X2165520Y3518250D01*
X2341500D01*
Y3023500D01*
X2140320D01*
G01X2246000Y3627000D02*
X2341500Y3722500D01*
Y4237970D01*
X2236450Y4343020D01*
Y4502460D01*
G01X3373000Y4500000D02*
X3217750Y4655250D01*
Y5152640D01*
X2989950D01*
X2597540Y5545050D01*
G01X2521740Y5264780D02*
X2413240D01*
G01X2905090Y5652780D02*
X2413240D01*
G01Y5264780D02*
Y5652780D01*
G01X4567020Y827420D02*
X4426010D01*
Y693410D01*
X2970270D01*
Y1442280D01*
G01X3273000Y220000D02*
X3243000Y250000D01*
X2943980D01*
G01X5463000Y1675000D02*
X5290680Y1502680D01*
Y479410D01*
X5222460Y411190D01*
X2871570D01*
G01X3119000Y2246000D02*
Y2046320D01*
G01X3627000Y2246000D02*
Y1648410D01*
X3845940D01*
Y1509110D01*
X3113240D01*
G01X2821890Y1774790D02*
X3332140D01*
X3457570Y1649360D01*
G01X3119000Y2500000D02*
X3244500Y2374500D01*
Y2130570D01*
X3566070D01*
Y1594160D01*
X3791690D01*
G01X3373000Y4754000D02*
Y5302240D01*
X3324460Y5350780D01*
X3198050D01*
Y5535800D01*
X3997540D01*
G01X3932510Y5380720D02*
X3807430Y5505800D01*
X3306550D01*
X3252300Y5451550D01*
G01X2727580Y5551780D02*
X3079950D01*
Y5242280D01*
X3311010D01*
G01X3490840Y5652780D02*
X2905090D01*
G01X5187760Y5907500D02*
X3006180D01*
X2836500Y5737820D01*
G01X4567020Y957420D02*
X4383590D01*
Y723410D01*
X3776390D01*
X3490300Y1009500D01*
G01X3992980Y1412560D02*
X3886710D01*
Y1391010D01*
X3571840D01*
X3517590Y1336760D01*
G01X3992980Y1347540D02*
X3606870D01*
X3596090Y1336760D01*
G01X3992980Y1217490D02*
X3351790D01*
Y964250D01*
G01X3683190Y1454860D02*
X3705910Y1477580D01*
X3992980D01*
G01X3881000Y2246000D02*
Y2111820D01*
X3815500Y2046320D01*
G01X3373000Y2500000D02*
X3499690Y2373310D01*
X3682160D01*
X3722500Y2332970D01*
Y1703470D01*
X3997540D01*
G01X3992980Y762420D02*
X4353590D01*
Y1172250D01*
X4275090D01*
Y1836220D01*
X3921000D01*
X3842500Y1757720D01*
G01X3627000Y2500000D02*
X3752500Y2374500D01*
Y1866220D01*
X4329340D01*
Y1486590D01*
G01X3511820Y1563360D02*
X3480070Y1595110D01*
X3362560D01*
G01X3627000Y4500000D02*
X3498500Y4628500D01*
Y4928180D01*
G01X3881000Y4500000D02*
X3752500Y4628500D01*
Y4879500D01*
X3609160D01*
Y5163780D01*
G01X4567020Y1412560D02*
X4672070D01*
Y2448710D01*
X4357500Y2763280D01*
Y5018000D01*
X3808580D01*
X3752510Y5074070D01*
Y5242280D01*
X3554910D01*
G01X4567020Y1217490D02*
X4383590D01*
Y2625500D01*
X4297500D01*
Y4352060D01*
X4046280D01*
X3976500Y4421840D01*
Y4626690D01*
X3824340D01*
X3782500Y4668530D01*
Y4939500D01*
X3705920D01*
X3672420Y4973000D01*
G01X4567020Y1282510D02*
X4702070D01*
Y2478600D01*
X4387500Y2793170D01*
Y5078000D01*
X4013900D01*
X3663620Y5428280D01*
X3427580D01*
G01X4437440Y5464650D02*
X4249310Y5652780D01*
X3490840D01*
G01X3992980Y827420D02*
X4299340D01*
Y1118000D01*
G01X4567020Y1347540D02*
X4413600D01*
Y2649620D01*
X4327500Y2735720D01*
Y4634250D01*
X4050320D01*
G01X3992980Y892420D02*
X4245090D01*
Y1736980D01*
X4200100Y1781970D01*
G01X3992980Y957420D02*
X4190840D01*
Y1207930D01*
G01X3992980Y1022420D02*
X4128030D01*
Y1649340D01*
G01X3881000Y2500000D02*
X3994070Y2386930D01*
X4254350D01*
Y1920470D01*
G01X3881000Y4754000D02*
X4060750Y4933750D01*
X4264060D01*
G01X4697540Y5337540D02*
X4673290Y5313290D01*
X4264060D01*
G01X4567020Y1152460D02*
X4732070D01*
Y2527220D01*
X4625500Y2633790D01*
Y5119750D01*
X4229250D01*
X4127580Y5221420D01*
Y5526400D01*
G01X4567020Y1087440D02*
X4903750D01*
Y3216710D01*
X4982250D01*
Y3728180D01*
X4879500Y3830930D01*
Y5159810D01*
X4546400D01*
Y5242280D01*
X4372420D01*
G01X4762560Y5464650D02*
X4652080D01*
X4622480Y5494250D01*
X4577520D01*
X4547920Y5464650D01*
X4437440D01*
G01X4567020Y1022420D02*
X5037930D01*
Y5061930D01*
X4827580Y5272280D01*
G01X4567020Y892420D02*
X5229040D01*
Y2261560D01*
X5242280Y2274800D01*
G01X4567020Y1477580D02*
X4461970D01*
Y1801290D01*
X4570470Y1909790D01*
Y2425750D01*
G01X4754000Y3373000D02*
X4658500Y3277500D01*
Y2732320D01*
X4767990D01*
Y2606550D01*
G01X4873750Y3418560D02*
Y2365750D01*
X4849500Y2341500D01*
G01X4516220Y2136300D02*
Y2504250D01*
G01X4928000Y3306560D02*
Y3471270D01*
X4944250Y3487520D01*
Y3532480D01*
X4928000Y3548730D01*
Y3707000D01*
X4754000Y3881000D01*
G01Y3627000D02*
X4834250Y3546750D01*
X4853250D01*
X4890000Y3510000D01*
G01X4500000Y3881000D02*
X4595500Y3976500D01*
Y4673290D01*
X4571250Y4697540D01*
G01X5000080Y5580000D02*
X5127930D01*
Y5195000D01*
X5916090D01*
Y5787540D01*
G01X5092180Y1621290D02*
Y5135030D01*
X4762560Y5464650D01*
G01X4610080Y5820000D02*
X4879920D01*
G01X5717000Y1421000D02*
X5621470Y1325470D01*
Y841720D01*
X5675720Y787470D01*
G01X5146430Y1009500D02*
Y1794780D01*
G01Y2022060D02*
Y4920840D01*
G01X5530550Y2467490D02*
Y2916910D01*
G01X5339630Y2337440D02*
Y2662560D01*
G01X5621480Y3550840D02*
Y2190550D01*
G01X5557720Y3921740D02*
Y3232510D01*
G01D02*
Y3026670D01*
X5327800D01*
Y2766590D01*
G01X5339630Y2662560D02*
X5204790Y2797400D01*
Y3438760D01*
X5503470Y3737440D01*
G01X5485610Y3102460D02*
Y3200290D01*
X5269090Y3416810D01*
G01X5503470Y3737440D02*
Y4062560D01*
G01X5332280Y4166590D02*
Y4703270D01*
G01Y3997540D02*
Y4166590D01*
G01X5503470Y4437440D02*
Y4762560D01*
G01Y4062560D02*
Y4437440D01*
G01X5645000Y5255000D02*
X5755000D01*
Y5937500D01*
X5440010D01*
X5410010Y5907500D01*
X5187760D01*
G01X5507490Y5657490D02*
Y5592460D01*
X5514370D01*
Y5538210D01*
G01X5455000Y5885000D02*
X5477500Y5907500D01*
X5593000D01*
Y5592460D01*
G01X5080080Y5820000D02*
X5176870D01*
G01X5717000Y1167000D02*
X5842530Y1041470D01*
Y84000D01*
G01X5850050Y1794780D02*
Y1527510D01*
G54D13*
X835000Y250000D03*
Y1590000D03*
X885000Y250000D03*
X935000D03*
X985000D03*
X1035000D03*
X1085000D03*
X1135000D03*
X1185000D03*
X1235000D03*
X1285000D03*
X1335000D03*
X1385000D03*
X1435000D03*
Y1590000D03*
X1385000D03*
X1335000D03*
X1285000D03*
X1235000D03*
X1185000D03*
X1135000D03*
X1085000D03*
X1035000D03*
X985000D03*
X935000D03*
X885000D03*
X1485000Y250000D03*
X1535000D03*
X1585000D03*
X1635000D03*
X1685000D03*
X1735000D03*
X1785000D03*
Y1590000D03*
X1735000D03*
X1685000D03*
X1635000D03*
X1585000D03*
X1535000D03*
X1485000D03*
G54D23*
G01X330000Y131000D02*
Y229920D01*
G01X4313130Y5820000D02*
X4409920D01*
G01X4896710Y5580000D02*
X4799920D01*
G54D14*
X640000Y845000D03*
Y795000D03*
Y745000D03*
Y695000D03*
Y645000D03*
Y595000D03*
Y545000D03*
Y495000D03*
Y445000D03*
Y1395000D03*
Y1345000D03*
Y1295000D03*
Y1245000D03*
Y1195000D03*
Y1145000D03*
Y1095000D03*
Y1045000D03*
Y995000D03*
Y945000D03*
Y895000D03*
X1980000Y445000D03*
Y495000D03*
Y545000D03*
Y595000D03*
Y645000D03*
Y695000D03*
Y745000D03*
Y795000D03*
Y845000D03*
Y895000D03*
Y945000D03*
Y995000D03*
Y1045000D03*
Y1095000D03*
Y1145000D03*
Y1195000D03*
Y1245000D03*
Y1295000D03*
Y1345000D03*
Y1395000D03*
G54D24*
G01X210970Y3077490D02*
X352980D01*
G01X657250D02*
X927020D01*
G01X540930Y4320560D02*
X802980D01*
G01X1013680Y2312460D02*
X1142980D01*
G01X1073080Y3012460D02*
X927020D01*
G01X1070000Y2870000D02*
X1113110Y2913110D01*
Y2919370D01*
X1137330Y2943590D01*
Y3142510D01*
X927020D01*
G01X1247720Y4250840D02*
Y4222260D01*
X1279470Y4190510D01*
X1377020D01*
G01X1530000Y4210000D02*
X1512890Y4227110D01*
X1480790D01*
X1471670Y4236230D01*
X1396320D01*
X1377020Y4255530D01*
G01X1239040Y5022510D02*
X1092980D01*
G01X918210Y5099240D02*
X929910Y5087540D01*
X1092980D01*
G01X1587720Y1922420D02*
X1717020D01*
G01X3463340Y1152460D02*
X3992980D01*
G01X4696320Y762420D02*
X4567020D01*
G54D15*
X927020Y3207540D03*
Y3142510D03*
Y3077490D03*
Y3012460D03*
Y2947440D03*
Y2882420D03*
X352980D03*
Y2947440D03*
Y3012460D03*
Y3077490D03*
Y3142510D03*
Y3207540D03*
X927020Y3337580D03*
Y3272560D03*
X352980D03*
Y3337580D03*
X802980Y3995440D03*
Y4060460D03*
Y4125480D03*
Y4190510D03*
Y4255530D03*
Y4320560D03*
Y4385580D03*
X1142980Y1922420D03*
Y1987420D03*
Y2052420D03*
Y2117420D03*
Y2182420D03*
Y2247440D03*
Y2312460D03*
Y2377490D03*
Y2442510D03*
Y2507540D03*
Y2572560D03*
Y2637580D03*
X1377020Y4385580D03*
Y4320560D03*
Y4255530D03*
Y4190510D03*
Y4125480D03*
Y4060460D03*
Y3995440D03*
X1092980Y4762420D03*
Y4827440D03*
Y4892460D03*
Y4957490D03*
Y5022510D03*
Y5087540D03*
Y5152560D03*
Y5217580D03*
X1717020Y1922420D03*
Y1987420D03*
Y2052420D03*
Y2117420D03*
Y2637580D03*
Y2572560D03*
Y2507540D03*
Y2442510D03*
Y2377490D03*
Y2312460D03*
Y2247440D03*
Y2182420D03*
X1667020Y5022510D03*
Y4957490D03*
Y4892460D03*
Y4827440D03*
Y4762420D03*
Y5217580D03*
Y5152560D03*
Y5087540D03*
X3992980Y762420D03*
Y827420D03*
Y892420D03*
Y957420D03*
Y1022420D03*
Y1087440D03*
Y1152460D03*
Y1217490D03*
Y1282510D03*
Y1347540D03*
Y1412560D03*
Y1477580D03*
X4567020Y762420D03*
Y827420D03*
Y892420D03*
Y957420D03*
Y1412560D03*
Y1347540D03*
Y1282510D03*
Y1217490D03*
Y1152460D03*
Y1087440D03*
Y1022420D03*
Y1477580D03*
G54D25*
G01X0Y0D02*
Y6000000D01*
X6000000D01*
Y0D01*
X0D01*
G54D16*
X2500000Y2865000D03*
Y3119000D03*
X2246000Y2865000D03*
Y3119000D03*
X2500000Y3373000D03*
Y3627000D03*
Y3881000D03*
X2246000Y3373000D03*
Y3627000D03*
Y3881000D03*
X2500000Y4135000D03*
X2246000D03*
X3119000Y2246000D03*
X2865000D03*
X3119000Y2500000D03*
X2865000D03*
Y4500000D03*
X3119000D03*
X2865000Y4754000D03*
X3119000D03*
X3881000Y2246000D03*
X3627000D03*
X3373000D03*
X3881000Y2500000D03*
X3627000D03*
X3373000D03*
Y4500000D03*
X3627000D03*
X3881000D03*
X3373000Y4754000D03*
X3627000D03*
X3881000D03*
X4135000Y2246000D03*
Y2500000D03*
X4500000Y3119000D03*
Y2865000D03*
Y3881000D03*
Y3627000D03*
Y3373000D03*
X4135000Y4500000D03*
X4500000Y4135000D03*
X4135000Y4754000D03*
X4754000Y3119000D03*
Y2865000D03*
Y3881000D03*
Y3627000D03*
Y3373000D03*
Y4135000D03*
G54D17*
X3500000Y3500000D03*
G54D18*
X4409920Y5820000D03*
X5000080Y5580000D03*
X4799920D03*
X4610080Y5820000D03*
X5080080D03*
X4879920D03*
G54D19*
X5345000Y5570000D03*
M02*
