G04 ================== begin FILE IDENTIFICATION RECORD ==================*
G04 Layout Name:  artificiall_eye_ver00_routed.brd*
G04 Film Name:    Drill_Draw*
G04 File Format:  Gerber RS274X*
G04 File Origin:  Cadence Allegro 17.2-P019*
G04 Origin Date:  Wed Jul 18 17:22:37 2018*
G04 *
G04 Layer:  MANUFACTURING/NCLEGEND-1-4*
G04 Layer:  BOARD GEOMETRY/OUTLINE*
G04 *
G04 Offset:    (0.0000 0.0000)*
G04 Mirror:    No*
G04 Mode:      Positive*
G04 Rotation:  0*
G04 FullContactRelief:  No*
G04 UndefLineWidth:     0.2000*
G04 ================== end FILE IDENTIFICATION RECORD ====================*
%FSLAX25Y25*MOMM*%
%IR0*IPPOS*OFA0.00000B0.00000*MIA0B0*SFA1.00000B1.00000*%
%AMMACRO12*
1,1,.2,.51,.51*
20,1,.2,.51,.51,.51,-.51,0.0*
1,1,.2,.51,-.51*
20,1,.2,.51,-.51,-.51,-.51,0.0*
1,1,.2,-.51,-.51*
20,1,.2,-.51,-.51,-.51,.51,0.0*
1,1,.2,-.51,.51*
20,1,.2,-.51,.51,.51,.51,0.0*
1,1,.2,.51,.51*
%
%ADD12MACRO12*%
%AMMACRO11*
1,1,.2,.17145,0.0*
20,1,.2,.17145,0.0,-.17145,0.0,0.0*
1,1,.2,-.17145,0.0*
1,1,.2,0.0,.17145*
20,1,.2,0.0,.17145,0.0,-.17145,0.0*
1,1,.2,0.0,-.17145*
%
%ADD11MACRO11*%
%AMMACRO13*
1,1,.2,0.0,7.5*
20,1,.2,0.0,7.5,-6.495191,3.75,0.0*
1,1,.2,-6.495191,3.75*
20,1,.2,-6.495191,3.75,-6.495191,-3.75,0.0*
1,1,.2,-6.495191,-3.75*
20,1,.2,-6.495191,-3.75,0.0,-7.5,0.0*
1,1,.2,0.0,-7.5*
20,1,.2,0.0,-7.5,6.495191,-3.75,0.0*
1,1,.2,6.495191,-3.75*
20,1,.2,6.495191,-3.75,6.495191,3.75,0.0*
1,1,.2,6.495191,3.75*
20,1,.2,6.495191,3.75,0.0,7.5,0.0*
1,1,.2,0.0,7.5*
%
%ADD13MACRO13*%
%AMMACRO10*
1,1,.2,.51435,0.0*
20,1,.2,.51435,0.0,.257175,.44544,0.0*
1,1,.2,.257175,.44544*
20,1,.2,.257175,.44544,-.257175,.44544,0.0*
1,1,.2,-.257175,.44544*
20,1,.2,-.257175,.44544,-.51435,0.0,0.0*
1,1,.2,-.51435,0.0*
20,1,.2,-.51435,0.0,-.257175,-.44544,0.0*
1,1,.2,-.257175,-.44544*
20,1,.2,-.257175,-.44544,.257175,-.44544,0.0*
1,1,.2,.257175,-.44544*
20,1,.2,.257175,-.44544,.51435,0.0,0.0*
1,1,.2,.51435,0.0*
%
%ADD10MACRO10*%
%ADD14C,.2*%
G75*
%LPD*%
G75*
G54D10*
X270000Y1233000D03*
Y1487000D03*
X203000Y4060000D03*
X213000Y4475000D03*
Y4729000D03*
Y4983000D03*
Y5237000D03*
Y5491000D03*
Y5745000D03*
X457000Y4060000D03*
X467000Y4475000D03*
Y4983000D03*
Y4729000D03*
Y5745000D03*
Y5491000D03*
Y5237000D03*
X765000Y5503000D03*
Y5757000D03*
X1527000Y5503000D03*
X1273000D03*
X1019000D03*
Y5757000D03*
X1273000D03*
X1527000D03*
X2035000Y5503000D03*
X1781000D03*
Y5757000D03*
X2035000D03*
X2373000Y783000D03*
X2627000D03*
X2373000Y1037000D03*
X2627000D03*
X3273000Y220000D03*
X3527000D03*
X5717000Y913000D03*
Y659000D03*
Y405000D03*
X5463000D03*
Y659000D03*
Y913000D03*
X5717000Y1421000D03*
Y1167000D03*
X5463000D03*
Y1421000D03*
X5717000Y1675000D03*
X5463000D03*
X8791500Y535000D03*
G54D11*
X263980Y1816950D03*
X260000Y2436870D03*
X146720Y2893190D03*
X210970Y3077490D03*
X161720Y3642000D03*
X203680Y3563500D03*
X171410Y3408400D03*
X92470Y4609230D03*
X330000Y131000D03*
X854030Y138250D03*
X350250Y526870D03*
X833130Y700010D03*
X830760Y361750D03*
X341750Y683750D03*
X613570Y1456750D03*
X890250Y1467170D03*
X811750Y1412920D03*
X293980Y2043130D03*
X655480Y1793010D03*
X765750Y1707500D03*
X821260Y1793010D03*
X657250Y1535250D03*
X611800Y2301690D03*
X821260D03*
X468660Y2672050D03*
X657250Y3077490D03*
X820000Y2726300D03*
X557550D03*
X611800Y2882420D03*
X443780Y2796590D03*
X711500Y3229040D03*
X603000Y3408400D03*
X807720Y3563500D03*
X773250Y3337580D03*
X496570Y3897990D03*
X540930Y4320560D03*
X673680Y4255530D03*
X657250Y4036490D03*
X595180Y4179780D03*
X816710Y4682310D03*
X1439250Y361750D03*
X940000Y553630D03*
X1033290Y700000D03*
X1117540Y542620D03*
X1062030Y474340D03*
X1439250Y780740D03*
X1170760Y361750D03*
X1299500Y699050D03*
X1355000Y620550D03*
X1183130Y1435750D03*
X1180000Y1090000D03*
X1173510Y995000D03*
X1089260Y1232000D03*
X1439250Y1379240D03*
X1035010Y1153500D03*
X980750Y1262000D03*
X925240Y1204820D03*
X1280790Y1862040D03*
X1055510Y1847260D03*
X1301120Y1987420D03*
X1013680Y2052420D03*
X1135000Y1743480D03*
X1013680Y2312460D03*
X1400790Y2467490D03*
X1013680Y2673310D03*
X1276200Y2117420D03*
X1425050Y2106040D03*
X1443480Y3167490D03*
X1073080Y3012460D03*
X1443480Y2905090D03*
X1070000Y2870000D03*
X1187330Y2850840D03*
X1328030Y2796590D03*
X1303790Y2905090D03*
X1093680Y2727580D03*
X1424550Y3802460D03*
X1369040Y3867490D03*
X1389230Y3362570D03*
X1405550Y3633410D03*
X1247720Y4250840D03*
X1407790Y4502460D03*
X1123690Y4280840D03*
X918210Y5099240D03*
X1352280Y4567490D03*
X1239040Y5022510D03*
X1463300Y4762560D03*
X1422780Y4881830D03*
X1002460Y5334990D03*
X1906750Y284260D03*
X2091750Y750000D03*
X1610000Y575380D03*
X1729480D03*
X2075250Y338510D03*
X1816710Y750000D03*
X1814990Y495440D03*
X1501500Y609500D03*
X1860000Y1170000D03*
X1576870Y1186780D03*
X1836710Y1273500D03*
X1643130Y1270000D03*
X1631120Y1030000D03*
X2091750Y1270000D03*
X1587720Y1922420D03*
X1869410Y1689230D03*
X2066870Y1568500D03*
X1926320Y2694390D03*
X1667720Y2700840D03*
X2084810Y2337440D03*
X1956320Y2272420D03*
X1691970Y2870230D03*
X1943080Y3232510D03*
X2034820Y3167490D03*
X2084810Y2893920D03*
X1926320Y2972420D03*
X2067880Y3867490D03*
X1926320Y3802460D03*
X1497730Y3418570D03*
X1581970Y3672430D03*
X1530000Y4210000D03*
X2067880Y4129770D03*
X1926320D03*
X1503930Y4340000D03*
X2013630Y4051270D03*
X1505820Y3930190D03*
X1614820Y4437440D03*
X1902070Y4284750D03*
X1614820Y4081790D03*
X1926320Y4948390D03*
X1796320D03*
X1516280Y4957490D03*
X1667720Y4697540D03*
X1530580Y4827580D03*
X1796320Y5270000D03*
X1876530Y5173250D03*
X2656870Y260000D03*
X2147260Y824270D03*
X2233130Y338500D03*
X2253220Y854270D03*
X2285760Y597520D03*
X2394260Y543270D03*
X2140000Y1050000D03*
X2532510Y1442280D03*
X2100000Y1460000D03*
X2151120Y1349250D03*
X2597540Y1497790D03*
X2209160Y1913290D03*
X2532510Y1758470D03*
X2356460Y2050540D03*
X2140320Y2467490D03*
X2540000Y2571250D03*
X2401500Y2337440D03*
X2575750Y2371500D03*
X2411970Y2106050D03*
X2625500Y2492750D03*
X2485750Y2709750D03*
X2236450Y4502460D03*
X2371500Y4395070D03*
X2532510Y4928170D03*
X2597540Y4983680D03*
X2216920Y4948390D03*
X2272420Y4621740D03*
X2597540Y5545050D03*
X2140090Y5395470D03*
X2413240Y5264780D03*
X2521740D03*
X2943980Y250000D03*
X3153220Y195750D03*
X2871570Y411190D03*
X3297540Y1182000D03*
X3232510Y1442280D03*
X2970270D03*
X2850840Y1913290D03*
X3119000Y2046320D03*
X3113240Y1509110D03*
X2821890Y1774790D03*
X2836500Y2702500D03*
X3297540Y4983680D03*
X3163500D03*
X3232510Y5296530D03*
X3252300Y5451550D03*
X2727580Y5551780D03*
X2905090Y5652780D03*
X2836500Y5737820D03*
X3163500Y5846320D03*
X3407220Y259560D03*
X3392780Y178720D03*
X3490290Y900010D03*
X3463340Y1152460D03*
X3683190Y1454860D03*
X3517590Y1336760D03*
X3596090D03*
X3351790Y964250D03*
X3490300Y1009500D03*
X3490840Y1829040D03*
X3815500Y2046320D03*
X3791690Y1594160D03*
X3457570Y1649360D03*
X3842500Y1757720D03*
X3511820Y1563360D03*
X3362560Y1595110D03*
X3498500Y4928180D03*
X3672420Y4973000D03*
X3609160Y5163780D03*
X3311010Y5242280D03*
X3554910D03*
X3427580Y5428280D03*
X3490840Y5652780D03*
X3923290Y240000D03*
X4383290D03*
X4299340Y1118000D03*
X4190840Y1207930D03*
X4329340Y1486590D03*
X3997540Y1540840D03*
Y1703470D03*
X4200100Y1781970D03*
X4128030Y1649340D03*
X4254350Y1920470D03*
X4314750Y2190550D03*
X4226840Y2820850D03*
X3997540Y4953000D03*
X4264060Y4933750D03*
X4050320Y4634250D03*
X3932510Y5259040D03*
X3997540Y5535800D03*
X4264060Y5313290D03*
X3932510Y5380720D03*
X4127580Y5526400D03*
X4372420Y5242280D03*
X4437440Y5464650D03*
X4313130Y5820000D03*
X4696320Y762420D03*
X4958000Y1197940D03*
X4617820Y1591290D03*
X5092180Y1621290D03*
X4977250Y2402460D03*
X4767990Y2606550D03*
X4849500Y2341500D03*
X4516220Y2136300D03*
Y2504250D03*
X4570470Y2425750D03*
X4983680Y3102460D03*
Y3836470D03*
X4928000Y3306560D03*
X4890000Y3510000D03*
X4873750Y3418560D03*
X4983680Y4567500D03*
X4571250Y4697540D03*
X4896710Y5580000D03*
X4600000Y5440000D03*
X4697540Y5337540D03*
X4827580Y5272280D03*
X4762560Y5464650D03*
X5170680Y763220D03*
X5675720Y787470D03*
X5146430Y1009500D03*
X5344930Y1251700D03*
X5146430Y1794780D03*
Y2022060D03*
X5242280Y2467490D03*
X5530550D03*
X5339630Y2662560D03*
Y2337440D03*
X5242280Y2274800D03*
X5621480Y2190550D03*
X5259040Y3167490D03*
X5557720Y3232510D03*
X5327800Y2766590D03*
X5530550Y2916910D03*
X5485610Y3102460D03*
X5397540Y2972420D03*
X5259040Y3867490D03*
X5503470Y3737440D03*
X5269090Y3416810D03*
X5621480Y3550840D03*
X5242280Y4502460D03*
X5332280Y4166590D03*
X5557720Y3921740D03*
X5332280Y3997540D03*
X5503470Y4437440D03*
Y4062560D03*
X5332280Y4703270D03*
X5503470Y4762560D03*
X5146430Y4920840D03*
X5523630Y5380000D03*
X5188250Y5595280D03*
X5507490Y5657490D03*
X5514370Y5538210D03*
X5593000Y5592460D03*
X5187760Y5907500D03*
X5176870Y5820000D03*
X5842530Y84000D03*
X5850050Y1794780D03*
Y1527510D03*
X5916090Y5787540D03*
X8791500Y5035000D03*
G54D12*
X2500000Y2865000D03*
Y3119000D03*
X2246000Y2865000D03*
Y3119000D03*
X2500000Y3373000D03*
Y3627000D03*
Y3881000D03*
X2246000Y3373000D03*
Y3627000D03*
Y3881000D03*
X2500000Y4135000D03*
X2246000D03*
X3119000Y2246000D03*
X2865000D03*
X3119000Y2500000D03*
X2865000D03*
Y4500000D03*
X3119000D03*
X2865000Y4754000D03*
X3119000D03*
X3881000Y2246000D03*
X3627000D03*
X3373000D03*
X3881000Y2500000D03*
X3627000D03*
X3373000D03*
Y4500000D03*
X3627000D03*
X3881000D03*
X3373000Y4754000D03*
X3627000D03*
X3881000D03*
X4135000Y2246000D03*
Y2500000D03*
X4500000Y3119000D03*
Y2865000D03*
Y3881000D03*
Y3627000D03*
Y3373000D03*
X4135000Y4500000D03*
X4500000Y4135000D03*
X4135000Y4754000D03*
X4754000Y3119000D03*
Y2865000D03*
Y3881000D03*
Y3627000D03*
Y3373000D03*
Y4135000D03*
X8791500Y2785000D03*
G54D13*
X3500000Y3500000D03*
X8791500Y-1715000D03*
G54D14*
G01X0Y0D02*
Y6000000D01*
X6000000D01*
Y0D01*
X0D01*
G01X7650000Y-2840000D02*
Y8080000D01*
X25363000D01*
Y-2840000D01*
X7650000D01*
G01Y-590000D02*
X25363000D01*
G01X7650000Y1660000D02*
X25363000D01*
G01X7650000Y3910000D02*
X25363000D01*
G01X7929450Y6318750D02*
Y6636250D01*
X8079050D01*
G01X8023930Y6482800D02*
X7929450D01*
G01X8271910Y6636250D02*
X8366380D01*
G01X8319150D02*
Y6318750D01*
G01X8271910D02*
X8366380D01*
G01X8657670Y6477500D02*
X8736410D01*
Y6382250D01*
X8712780Y6350490D01*
X8685230Y6329330D01*
X8645860Y6318750D01*
X8606500Y6329330D01*
X8578940Y6350490D01*
X8555320Y6382250D01*
X8539560Y6419290D01*
X8531690Y6461620D01*
Y6498670D01*
X8539560Y6530410D01*
X8555320Y6567460D01*
X8578940Y6599210D01*
X8602550Y6620370D01*
X8634050Y6636250D01*
X8661600D01*
X8693100Y6625670D01*
X8716720Y6604500D01*
G01X8862340Y6636250D02*
Y6408710D01*
X8878090Y6361070D01*
X8909580Y6329330D01*
X8948950Y6318750D01*
X8988320Y6329330D01*
X9019810Y6361070D01*
X9035560Y6408710D01*
Y6636250D01*
G01X9185120Y6318750D02*
Y6636250D01*
X9283530D01*
X9315030Y6620370D01*
X9334710Y6599210D01*
X9342580Y6556870D01*
X9334710Y6514540D01*
X9311090Y6488090D01*
X9283530Y6472200D01*
X9185120D01*
G01X9283530D02*
X9342580Y6318750D01*
G01X9657480D02*
X9500020D01*
Y6636250D01*
X9657480D01*
G01X9594500Y6482800D02*
X9500020D01*
G01X7650000Y6160000D02*
X25363000D01*
G01X7650000Y6795000D02*
X25363000D01*
G01X7650000Y7430000D02*
X25363000D01*
G01X9933000Y6795000D02*
Y-2840000D01*
G01X10527350Y6318750D02*
Y6636250D01*
X10676950D01*
G01X10621830Y6482800D02*
X10527350D01*
G01X10869810Y6636250D02*
X10964280D01*
G01X10917050D02*
Y6318750D01*
G01X10869810D02*
X10964280D01*
G01X11141410D02*
Y6636250D01*
X11322490Y6318750D01*
Y6636250D01*
G01X11499610D02*
X11594080D01*
G01X11546850D02*
Y6318750D01*
G01X11499610D02*
X11594080D01*
G01X11779080Y6361070D02*
X11810570Y6334620D01*
X11846000Y6318750D01*
X11877500D01*
X11908990Y6334620D01*
X11932610Y6361070D01*
X11944420Y6398130D01*
X11936550Y6435160D01*
X11916860Y6466910D01*
X11881430Y6488090D01*
X11834200Y6498670D01*
X11806640Y6519830D01*
X11794820Y6556870D01*
X11802700Y6593920D01*
X11822380Y6620370D01*
X11849940Y6636250D01*
X11877500D01*
X11905050Y6625670D01*
X11928680Y6599210D01*
G01X12093980Y6318750D02*
Y6636250D01*
G01X12259320D02*
Y6318750D01*
G01Y6477500D02*
X12093980D01*
G01X12570280Y6318750D02*
X12412820D01*
Y6636250D01*
X12570280D01*
G01X12507300Y6482800D02*
X12412820D01*
G01X12719840Y6318750D02*
Y6636250D01*
X12798570D01*
X12830070Y6620370D01*
X12853690Y6599210D01*
X12873380Y6567460D01*
X12889120Y6530410D01*
X12893060Y6477500D01*
X12889120Y6424580D01*
X12873380Y6387540D01*
X12853690Y6355780D01*
X12830070Y6334620D01*
X12798570Y6318750D01*
X12719840D01*
G01X13003250Y6212920D02*
X13239450D01*
G01X13353580Y6361070D02*
X13385070Y6334620D01*
X13420500Y6318750D01*
X13452000D01*
X13483490Y6334620D01*
X13507110Y6361070D01*
X13518920Y6398130D01*
X13511050Y6435160D01*
X13491360Y6466910D01*
X13455930Y6488090D01*
X13408700Y6498670D01*
X13381140Y6519830D01*
X13369320Y6556870D01*
X13377200Y6593920D01*
X13396880Y6620370D01*
X13424440Y6636250D01*
X13452000D01*
X13479550Y6625670D01*
X13503180Y6599210D01*
G01X13703910Y6636250D02*
X13798380D01*
G01X13751150D02*
Y6318750D01*
G01X13703910D02*
X13798380D01*
G01X13991250Y6636250D02*
X14140850D01*
X13991250Y6318750D01*
X14140850D01*
G01X14459680D02*
X14302220D01*
Y6636250D01*
X14459680D01*
G01X14396700Y6482800D02*
X14302220D01*
G01X11704300Y376250D02*
Y693750D01*
X11657060Y630250D01*
G01Y376250D02*
X11751530D01*
G01X12019200Y365670D02*
X12011320Y370960D01*
Y381540D01*
X12019200Y386830D01*
X12027080Y381540D01*
Y370960D01*
X12019200Y365670D01*
G01X12334100Y693750D02*
X12302600Y683170D01*
X12278990Y656710D01*
X12263240Y624960D01*
X12251430Y582620D01*
X12247490Y535000D01*
X12251430Y487370D01*
X12263240Y445040D01*
X12278990Y413280D01*
X12302600Y386830D01*
X12334100Y376250D01*
X12365590Y386830D01*
X12389210Y413280D01*
X12404960Y445040D01*
X12416770Y487370D01*
X12420710Y535000D01*
X12416770Y582620D01*
X12404960Y624960D01*
X12389210Y656710D01*
X12365590Y683170D01*
X12334100Y693750D01*
G01X12574200Y640830D02*
X12597820Y672580D01*
X12625380Y688460D01*
X12656880Y693750D01*
X12696240Y683170D01*
X12723800Y656710D01*
X12731670Y624960D01*
X12727730Y593200D01*
X12711980Y566750D01*
X12633250Y513830D01*
X12597820Y476790D01*
X12574200Y423860D01*
X12566330Y376250D01*
X12731670D01*
G01X12963900D02*
X12991450Y381540D01*
X13022950Y397410D01*
X13042630Y423860D01*
X13050510Y460920D01*
X13042630Y497950D01*
X13019010Y529700D01*
X12983580Y545590D01*
X12944220D01*
X12920600Y556170D01*
X12900910Y582620D01*
X12893040Y619660D01*
X12904850Y656710D01*
X12932400Y683170D01*
X12963900Y693750D01*
X12995390Y683170D01*
X13022950Y656710D01*
X13034760Y619660D01*
X13026880Y582620D01*
X13007200Y556170D01*
X12983580Y545590D01*
X12944220D01*
X12908790Y529700D01*
X12885170Y497950D01*
X12877290Y460920D01*
X12885170Y423860D01*
X12904850Y397410D01*
X12936350Y381540D01*
X12963900Y376250D01*
G01X13270920D02*
X13278800Y445040D01*
X13290610Y503240D01*
X13306350Y556170D01*
X13326040Y614370D01*
X13357530Y693750D01*
X13200070D01*
G01X11704300Y5193750D02*
X11672800Y5183170D01*
X11649190Y5156710D01*
X11633440Y5124960D01*
X11621630Y5082620D01*
X11617690Y5035000D01*
X11621630Y4987370D01*
X11633440Y4945040D01*
X11649190Y4913280D01*
X11672800Y4886830D01*
X11704300Y4876250D01*
X11735790Y4886830D01*
X11759410Y4913280D01*
X11775160Y4945040D01*
X11786970Y4987370D01*
X11790910Y5035000D01*
X11786970Y5082620D01*
X11775160Y5124960D01*
X11759410Y5156710D01*
X11735790Y5183170D01*
X11704300Y5193750D01*
G01X12019200Y4865670D02*
X12011320Y4870960D01*
Y4881540D01*
X12019200Y4886830D01*
X12027080Y4881540D01*
Y4870960D01*
X12019200Y4865670D01*
G01X12247490Y4939750D02*
X12271110Y4902700D01*
X12302600Y4881540D01*
X12338040Y4876250D01*
X12369530Y4881540D01*
X12401030Y4907990D01*
X12420710Y4939750D01*
X12424640Y4971500D01*
X12416770Y5008530D01*
X12389210Y5035000D01*
X12361650Y5045590D01*
X12326220D01*
G01X12361650D02*
X12385280Y5061460D01*
X12404960Y5087910D01*
X12412830Y5119660D01*
X12404960Y5151420D01*
X12385280Y5177870D01*
X12349850Y5193750D01*
X12314420Y5188460D01*
X12278990Y5167290D01*
G01X12696240Y4876250D02*
Y5193750D01*
X12550580Y4966210D01*
X12747420D01*
G01X12889100Y5140830D02*
X12912720Y5172580D01*
X12940280Y5188460D01*
X12971780Y5193750D01*
X13011140Y5183170D01*
X13038700Y5156710D01*
X13046570Y5124960D01*
X13042630Y5093200D01*
X13026880Y5066750D01*
X12948150Y5013830D01*
X12912720Y4976790D01*
X12889100Y4923860D01*
X12881230Y4876250D01*
X13046570D01*
G01X13211870Y4913280D02*
X13239430Y4886830D01*
X13270920Y4876250D01*
X13302420Y4886830D01*
X13329980Y4918570D01*
X13349660Y4966210D01*
X13357530Y5013830D01*
Y5072040D01*
X13349660Y5119660D01*
X13329980Y5162000D01*
X13306350Y5183170D01*
X13278800Y5193750D01*
X13247300Y5183170D01*
X13223690Y5162000D01*
X13207940Y5130250D01*
X13200070Y5087910D01*
X13207940Y5050880D01*
X13227620Y5013830D01*
X13251250Y4992660D01*
X13278800Y4987370D01*
X13310290Y4997950D01*
X13333910Y5024410D01*
X13357530Y5072040D01*
G01X12019200Y-1873750D02*
Y-1556250D01*
X11971960Y-1619750D01*
G01Y-1873750D02*
X12066430D01*
G01X12247490Y-1826140D02*
X12271110Y-1852590D01*
X12298670Y-1868460D01*
X12334100Y-1873750D01*
X12369530Y-1863170D01*
X12397080Y-1842010D01*
X12416770Y-1804960D01*
X12420710Y-1762630D01*
X12412830Y-1720300D01*
X12393150Y-1693830D01*
X12365590Y-1672670D01*
X12338040Y-1667380D01*
X12310480Y-1672670D01*
X12275050Y-1693830D01*
X12286860Y-1556250D01*
X12393150D01*
G01X12649000Y-1884330D02*
X12641120Y-1879040D01*
Y-1868460D01*
X12649000Y-1863170D01*
X12656880Y-1868460D01*
Y-1879040D01*
X12649000Y-1884330D01*
G01X12963900Y-1556250D02*
X12932400Y-1566830D01*
X12908790Y-1593290D01*
X12893040Y-1625040D01*
X12881230Y-1667380D01*
X12877290Y-1715000D01*
X12881230Y-1762630D01*
X12893040Y-1804960D01*
X12908790Y-1836720D01*
X12932400Y-1863170D01*
X12963900Y-1873750D01*
X12995390Y-1863170D01*
X13019010Y-1836720D01*
X13034760Y-1804960D01*
X13046570Y-1762630D01*
X13050510Y-1715000D01*
X13046570Y-1667380D01*
X13034760Y-1625040D01*
X13019010Y-1593290D01*
X12995390Y-1566830D01*
X12963900Y-1556250D01*
G01X12019200Y2626250D02*
Y2943750D01*
X11971960Y2880250D01*
G01Y2626250D02*
X12066430D01*
G01X12334100Y2615670D02*
X12326220Y2620960D01*
Y2631540D01*
X12334100Y2636830D01*
X12341980Y2631540D01*
Y2620960D01*
X12334100Y2615670D01*
G01X12649000Y2943750D02*
X12617500Y2933170D01*
X12593890Y2906710D01*
X12578140Y2874960D01*
X12566330Y2832620D01*
X12562390Y2785000D01*
X12566330Y2737370D01*
X12578140Y2695040D01*
X12593890Y2663280D01*
X12617500Y2636830D01*
X12649000Y2626250D01*
X12680490Y2636830D01*
X12704110Y2663280D01*
X12719860Y2695040D01*
X12731670Y2737370D01*
X12735610Y2785000D01*
X12731670Y2832620D01*
X12719860Y2874960D01*
X12704110Y2906710D01*
X12680490Y2933170D01*
X12649000Y2943750D01*
G01X12889100Y2890830D02*
X12912720Y2922580D01*
X12940280Y2938460D01*
X12971780Y2943750D01*
X13011140Y2933170D01*
X13038700Y2906710D01*
X13046570Y2874960D01*
X13042630Y2843200D01*
X13026880Y2816750D01*
X12948150Y2763830D01*
X12912720Y2726790D01*
X12889100Y2673860D01*
X12881230Y2626250D01*
X13046570D01*
G01X12156930Y6953750D02*
X12255350Y7271250D01*
X12353770Y6953750D01*
G01X12318330Y7064870D02*
X12192360D01*
G01X12491520Y7271250D02*
Y6953750D01*
X12648980D01*
G01X12806420Y7271250D02*
Y6953750D01*
X12963880D01*
G01X13428340Y7271250D02*
Y7043710D01*
X13444090Y6996070D01*
X13475580Y6964330D01*
X13514950Y6953750D01*
X13554320Y6964330D01*
X13585810Y6996070D01*
X13601560Y7043710D01*
Y7271250D01*
G01X13739310Y6953750D02*
Y7271250D01*
X13920390Y6953750D01*
Y7271250D01*
G01X14097510D02*
X14191980D01*
G01X14144750D02*
Y6953750D01*
G01X14097510D02*
X14191980D01*
G01X14459650Y7271250D02*
Y6953750D01*
G01X14369110Y7271250D02*
X14550190D01*
G01X14691880Y6996070D02*
X14723370Y6969620D01*
X14758800Y6953750D01*
X14790300D01*
X14821790Y6969620D01*
X14845410Y6996070D01*
X14857220Y7033130D01*
X14849350Y7070160D01*
X14829660Y7101910D01*
X14794230Y7123090D01*
X14747000Y7133670D01*
X14719440Y7154830D01*
X14707620Y7191870D01*
X14715500Y7228920D01*
X14735180Y7255370D01*
X14762740Y7271250D01*
X14790300D01*
X14817850Y7260670D01*
X14841480Y7234210D01*
G01X15305930Y6953750D02*
X15404350Y7271250D01*
X15502770Y6953750D01*
G01X15467330Y7064870D02*
X15341360D01*
G01X15640520Y6953750D02*
Y7271250D01*
X15738930D01*
X15770430Y7255370D01*
X15790110Y7234210D01*
X15797980Y7191870D01*
X15790110Y7149540D01*
X15766490Y7123090D01*
X15738930Y7107200D01*
X15640520D01*
G01X15738930D02*
X15797980Y6953750D01*
G01X16112880D02*
X15955420D01*
Y7271250D01*
X16112880D01*
G01X16049900Y7117800D02*
X15955420D01*
G01X16616710Y7271250D02*
X16711180D01*
G01X16663950D02*
Y6953750D01*
G01X16616710D02*
X16711180D01*
G01X16888310D02*
Y7271250D01*
X17069390Y6953750D01*
Y7271250D01*
G01X17506290Y6953750D02*
Y7271250D01*
X17608650Y7006670D01*
X17711010Y7271250D01*
Y6953750D01*
G01X17876310Y7271250D02*
X17970780D01*
G01X17923550D02*
Y6953750D01*
G01X17876310D02*
X17970780D01*
G01X18159720Y7271250D02*
Y6953750D01*
X18317180D01*
G01X18474620Y7271250D02*
Y6953750D01*
X18632080D01*
G01X18821010Y7271250D02*
X18915480D01*
G01X18868250D02*
Y6953750D01*
G01X18821010D02*
X18915480D01*
G01X19080790D02*
Y7271250D01*
X19183150Y7006670D01*
X19285510Y7271250D01*
Y6953750D01*
G01X19576780D02*
X19419320D01*
Y7271250D01*
X19576780D01*
G01X19513800Y7117800D02*
X19419320D01*
G01X19812950Y7271250D02*
Y6953750D01*
G01X19722410Y7271250D02*
X19903490D01*
G01X20206580Y6953750D02*
X20049120D01*
Y7271250D01*
X20206580D01*
G01X20143600Y7117800D02*
X20049120D01*
G01X20364020Y6953750D02*
Y7271250D01*
X20462430D01*
X20493930Y7255370D01*
X20513610Y7234210D01*
X20521480Y7191870D01*
X20513610Y7149540D01*
X20489990Y7123090D01*
X20462430Y7107200D01*
X20364020D01*
G01X20462430D02*
X20521480Y6953750D01*
G01X20674980Y6996070D02*
X20706470Y6969620D01*
X20741900Y6953750D01*
X20773400D01*
X20804890Y6969620D01*
X20828510Y6996070D01*
X20840320Y7033130D01*
X20832450Y7070160D01*
X20812760Y7101910D01*
X20777330Y7123090D01*
X20730100Y7133670D01*
X20702540Y7154830D01*
X20690720Y7191870D01*
X20698600Y7228920D01*
X20718280Y7255370D01*
X20745840Y7271250D01*
X20773400D01*
X20800950Y7260670D01*
X20824580Y7234210D01*
G01X12483640Y7603750D02*
Y7921250D01*
X12562370D01*
X12593870Y7905370D01*
X12617490Y7884210D01*
X12637180Y7852460D01*
X12652920Y7815410D01*
X12656860Y7762500D01*
X12652920Y7709580D01*
X12637180Y7672540D01*
X12617490Y7640780D01*
X12593870Y7619620D01*
X12562370Y7603750D01*
X12483640D01*
G01X12806420D02*
Y7921250D01*
X12904830D01*
X12936330Y7905370D01*
X12956010Y7884210D01*
X12963880Y7841870D01*
X12956010Y7799540D01*
X12932390Y7773090D01*
X12904830Y7757200D01*
X12806420D01*
G01X12904830D02*
X12963880Y7603750D01*
G01X13152810Y7921250D02*
X13247280D01*
G01X13200050D02*
Y7603750D01*
G01X13152810D02*
X13247280D01*
G01X13436220Y7921250D02*
Y7603750D01*
X13593680D01*
G01X13751120Y7921250D02*
Y7603750D01*
X13908580D01*
G01X14546260Y7894790D02*
X14522630Y7910670D01*
X14495080Y7921250D01*
X14463590D01*
X14428150Y7905370D01*
X14400600Y7878920D01*
X14380920Y7847160D01*
X14365160Y7794250D01*
X14361230Y7746620D01*
X14369110Y7699000D01*
X14380920Y7667250D01*
X14404540Y7635490D01*
X14432100Y7614330D01*
X14459650Y7603750D01*
X14487200D01*
X14514760Y7614330D01*
X14538380Y7630200D01*
X14558070Y7651360D01*
G01X14691880Y7603750D02*
Y7921250D01*
G01X14857220D02*
Y7603750D01*
G01Y7762500D02*
X14691880D01*
G01X14991030Y7603750D02*
X15089450Y7921250D01*
X15187870Y7603750D01*
G01X15152430Y7714870D02*
X15026460D01*
G01X15325620Y7603750D02*
Y7921250D01*
X15424030D01*
X15455530Y7905370D01*
X15475210Y7884210D01*
X15483080Y7841870D01*
X15475210Y7799540D01*
X15451590Y7773090D01*
X15424030Y7757200D01*
X15325620D01*
G01X15424030D02*
X15483080Y7603750D01*
G01X15719250Y7921250D02*
Y7603750D01*
G01X15628710Y7921250D02*
X15809790D01*
G01X16034150Y7593170D02*
X16026270Y7598460D01*
Y7609040D01*
X16034150Y7614330D01*
X16042030Y7609040D01*
Y7598460D01*
X16034150Y7593170D01*
G01Y7736030D02*
X16026270Y7741330D01*
Y7751910D01*
X16034150Y7757200D01*
X16042030Y7751910D01*
Y7741330D01*
X16034150Y7736030D01*
G01X16663950Y7921250D02*
Y7603750D01*
G01X16573410Y7921250D02*
X16754490D01*
G01X16978850Y7603750D02*
X16947350Y7609040D01*
X16919800Y7630200D01*
X16896180Y7661960D01*
X16880430Y7699000D01*
X16872560Y7741330D01*
Y7783670D01*
X16880430Y7826000D01*
X16896180Y7863040D01*
X16919800Y7894790D01*
X16947350Y7915960D01*
X16978850Y7921250D01*
X17010340Y7915960D01*
X17037900Y7894790D01*
X17061520Y7863040D01*
X17077270Y7826000D01*
X17085140Y7783670D01*
Y7741330D01*
X17077270Y7699000D01*
X17061520Y7661960D01*
X17037900Y7630200D01*
X17010340Y7609040D01*
X16978850Y7603750D01*
G01X17215020D02*
Y7921250D01*
X17309500D01*
X17340990Y7905370D01*
X17364610Y7868330D01*
X17372480Y7826000D01*
X17364610Y7783670D01*
X17344930Y7751910D01*
X17309500Y7736030D01*
X17215020D01*
G01X17923550Y7921250D02*
Y7603750D01*
G01X17868440Y7815410D02*
X17978660D01*
G01X18238450Y7603750D02*
X18214830Y7609040D01*
X18191210Y7630200D01*
X18175460Y7667250D01*
X18167590Y7709580D01*
X18175460Y7751910D01*
X18191210Y7788960D01*
X18214830Y7810120D01*
X18238450Y7815410D01*
X18262070Y7810120D01*
X18285690Y7788960D01*
X18301430Y7751910D01*
X18305380Y7709580D01*
X18301430Y7667250D01*
X18285690Y7630200D01*
X18262070Y7609040D01*
X18238450Y7603750D01*
G01X18899740Y7773090D02*
X18915490Y7788960D01*
X18927300Y7815410D01*
X18935180Y7852460D01*
X18927300Y7884210D01*
X18911550Y7905370D01*
X18884000Y7921250D01*
X18777710D01*
Y7603750D01*
X18907620D01*
X18935180Y7624910D01*
X18950920Y7656670D01*
X18958790Y7693710D01*
X18950920Y7730740D01*
X18927300Y7762500D01*
X18899740Y7773090D01*
X18777710D01*
G01X19183150Y7603750D02*
X19151650Y7609040D01*
X19124100Y7630200D01*
X19100480Y7661960D01*
X19084730Y7699000D01*
X19076860Y7741330D01*
Y7783670D01*
X19084730Y7826000D01*
X19100480Y7863040D01*
X19124100Y7894790D01*
X19151650Y7915960D01*
X19183150Y7921250D01*
X19214640Y7915960D01*
X19242200Y7894790D01*
X19265820Y7863040D01*
X19281570Y7826000D01*
X19289440Y7783670D01*
Y7741330D01*
X19281570Y7699000D01*
X19265820Y7661960D01*
X19242200Y7630200D01*
X19214640Y7609040D01*
X19183150Y7603750D01*
G01X19498050Y7921250D02*
Y7603750D01*
G01X19407510Y7921250D02*
X19588590D01*
G01X19812950D02*
Y7603750D01*
G01X19722410Y7921250D02*
X19903490D01*
G01X20127850Y7603750D02*
X20096350Y7609040D01*
X20068800Y7630200D01*
X20045180Y7661960D01*
X20029430Y7699000D01*
X20021560Y7741330D01*
Y7783670D01*
X20029430Y7826000D01*
X20045180Y7863040D01*
X20068800Y7894790D01*
X20096350Y7915960D01*
X20127850Y7921250D01*
X20159340Y7915960D01*
X20186900Y7894790D01*
X20210520Y7863040D01*
X20226270Y7826000D01*
X20234140Y7783670D01*
Y7741330D01*
X20226270Y7699000D01*
X20210520Y7661960D01*
X20186900Y7630200D01*
X20159340Y7609040D01*
X20127850Y7603750D01*
G01X20340390D02*
Y7921250D01*
X20442750Y7656670D01*
X20545110Y7921250D01*
Y7603750D01*
G01X15050100Y6795000D02*
Y-2840000D01*
G01X15404350Y6636250D02*
Y6318750D01*
G01X15313810Y6636250D02*
X15494890D01*
G01X15719250Y6318750D02*
X15687750Y6324040D01*
X15660200Y6345200D01*
X15636580Y6376960D01*
X15620830Y6414000D01*
X15612960Y6456330D01*
Y6498670D01*
X15620830Y6541000D01*
X15636580Y6578040D01*
X15660200Y6609790D01*
X15687750Y6630960D01*
X15719250Y6636250D01*
X15750740Y6630960D01*
X15778300Y6609790D01*
X15801920Y6578040D01*
X15817670Y6541000D01*
X15825540Y6498670D01*
Y6456330D01*
X15817670Y6414000D01*
X15801920Y6376960D01*
X15778300Y6345200D01*
X15750740Y6324040D01*
X15719250Y6318750D01*
G01X15955420Y6636250D02*
Y6318750D01*
X16112880D01*
G01X16427780D02*
X16270320D01*
Y6636250D01*
X16427780D01*
G01X16364800Y6482800D02*
X16270320D01*
G01X16585220Y6318750D02*
Y6636250D01*
X16683630D01*
X16715130Y6620370D01*
X16734810Y6599210D01*
X16742680Y6556870D01*
X16734810Y6514540D01*
X16711190Y6488090D01*
X16683630Y6472200D01*
X16585220D01*
G01X16683630D02*
X16742680Y6318750D01*
G01X16880430D02*
X16978850Y6636250D01*
X17077270Y6318750D01*
G01X17041830Y6429870D02*
X16915860D01*
G01X17203210Y6318750D02*
Y6636250D01*
X17384290Y6318750D01*
Y6636250D01*
G01X17695260Y6609790D02*
X17671630Y6625670D01*
X17644080Y6636250D01*
X17612590D01*
X17577150Y6620370D01*
X17549600Y6593920D01*
X17529920Y6562160D01*
X17514160Y6509250D01*
X17510230Y6461620D01*
X17518110Y6414000D01*
X17529920Y6382250D01*
X17553540Y6350490D01*
X17581100Y6329330D01*
X17608650Y6318750D01*
X17636200D01*
X17663760Y6329330D01*
X17687380Y6345200D01*
X17707070Y6366360D01*
G01X18002280Y6318750D02*
X17844820D01*
Y6636250D01*
X18002280D01*
G01X17939300Y6482800D02*
X17844820D01*
G01X18120350Y6212920D02*
X18356550D01*
G01X18466740Y6318750D02*
Y6636250D01*
X18545470D01*
X18576970Y6620370D01*
X18600590Y6599210D01*
X18620280Y6567460D01*
X18636020Y6530410D01*
X18639960Y6477500D01*
X18636020Y6424580D01*
X18620280Y6387540D01*
X18600590Y6355780D01*
X18576970Y6334620D01*
X18545470Y6318750D01*
X18466740D01*
G01X18789520D02*
Y6636250D01*
X18887930D01*
X18919430Y6620370D01*
X18939110Y6599210D01*
X18946980Y6556870D01*
X18939110Y6514540D01*
X18915490Y6488090D01*
X18887930Y6472200D01*
X18789520D01*
G01X18887930D02*
X18946980Y6318750D01*
G01X19135910Y6636250D02*
X19230380D01*
G01X19183150D02*
Y6318750D01*
G01X19135910D02*
X19230380D01*
G01X19419320Y6636250D02*
Y6318750D01*
X19576780D01*
G01X19734220Y6636250D02*
Y6318750D01*
X19891680D01*
G01X15675950Y482080D02*
X15770430D01*
G01X15719250Y550880D02*
Y413280D01*
G01X16034150Y693750D02*
X16002650Y683170D01*
X15979040Y656710D01*
X15963290Y624960D01*
X15951480Y582620D01*
X15947540Y535000D01*
X15951480Y487370D01*
X15963290Y445040D01*
X15979040Y413280D01*
X16002650Y386830D01*
X16034150Y376250D01*
X16065640Y386830D01*
X16089260Y413280D01*
X16105010Y445040D01*
X16116820Y487370D01*
X16120760Y535000D01*
X16116820Y582620D01*
X16105010Y624960D01*
X16089260Y656710D01*
X16065640Y683170D01*
X16034150Y693750D01*
G01X16349050Y365670D02*
X16341170Y370960D01*
Y381540D01*
X16349050Y386830D01*
X16356930Y381540D01*
Y370960D01*
X16349050Y365670D01*
G01X16663950Y376250D02*
Y693750D01*
X16616710Y630250D01*
G01Y376250D02*
X16711180D01*
G01X16978850Y693750D02*
X16947350Y683170D01*
X16923740Y656710D01*
X16907990Y624960D01*
X16896180Y582620D01*
X16892240Y535000D01*
X16896180Y487370D01*
X16907990Y445040D01*
X16923740Y413280D01*
X16947350Y386830D01*
X16978850Y376250D01*
X17010340Y386830D01*
X17033960Y413280D01*
X17049710Y445040D01*
X17061520Y487370D01*
X17065460Y535000D01*
X17061520Y582620D01*
X17049710Y624960D01*
X17033960Y656710D01*
X17010340Y683170D01*
X16978850Y693750D01*
G01X17218950Y640830D02*
X17242570Y672580D01*
X17270130Y688460D01*
X17301630Y693750D01*
X17340990Y683170D01*
X17368550Y656710D01*
X17376420Y624960D01*
X17372480Y593200D01*
X17356730Y566750D01*
X17278000Y513830D01*
X17242570Y476790D01*
X17218950Y423860D01*
X17211080Y376250D01*
X17376420D01*
G01X17537790Y365670D02*
X17679510Y693750D01*
G01X17872370Y482080D02*
X17974730D01*
G01X18238450Y693750D02*
X18206950Y683170D01*
X18183340Y656710D01*
X18167590Y624960D01*
X18155780Y582620D01*
X18151840Y535000D01*
X18155780Y487370D01*
X18167590Y445040D01*
X18183340Y413280D01*
X18206950Y386830D01*
X18238450Y376250D01*
X18269940Y386830D01*
X18293560Y413280D01*
X18309310Y445040D01*
X18321120Y487370D01*
X18325060Y535000D01*
X18321120Y582620D01*
X18309310Y624960D01*
X18293560Y656710D01*
X18269940Y683170D01*
X18238450Y693750D01*
G01X18553350Y365670D02*
X18545470Y370960D01*
Y381540D01*
X18553350Y386830D01*
X18561230Y381540D01*
Y370960D01*
X18553350Y365670D01*
G01X18868250Y376250D02*
Y693750D01*
X18821010Y630250D01*
G01Y376250D02*
X18915480D01*
G01X19183150Y693750D02*
X19151650Y683170D01*
X19128040Y656710D01*
X19112290Y624960D01*
X19100480Y582620D01*
X19096540Y535000D01*
X19100480Y487370D01*
X19112290Y445040D01*
X19128040Y413280D01*
X19151650Y386830D01*
X19183150Y376250D01*
X19214640Y386830D01*
X19238260Y413280D01*
X19254010Y445040D01*
X19265820Y487370D01*
X19269760Y535000D01*
X19265820Y582620D01*
X19254010Y624960D01*
X19238260Y656710D01*
X19214640Y683170D01*
X19183150Y693750D01*
G01X19423250Y640830D02*
X19446870Y672580D01*
X19474430Y688460D01*
X19505930Y693750D01*
X19545290Y683170D01*
X19572850Y656710D01*
X19580720Y624960D01*
X19576780Y593200D01*
X19561030Y566750D01*
X19482300Y513830D01*
X19446870Y476790D01*
X19423250Y423860D01*
X19415380Y376250D01*
X19580720D01*
G01X16305750Y-1767920D02*
X16400230D01*
G01X16349050Y-1699120D02*
Y-1836720D01*
G01X16663950Y-1556250D02*
X16632450Y-1566830D01*
X16608840Y-1593290D01*
X16593090Y-1625040D01*
X16581280Y-1667380D01*
X16577340Y-1715000D01*
X16581280Y-1762630D01*
X16593090Y-1804960D01*
X16608840Y-1836720D01*
X16632450Y-1863170D01*
X16663950Y-1873750D01*
X16695440Y-1863170D01*
X16719060Y-1836720D01*
X16734810Y-1804960D01*
X16746620Y-1762630D01*
X16750560Y-1715000D01*
X16746620Y-1667380D01*
X16734810Y-1625040D01*
X16719060Y-1593290D01*
X16695440Y-1566830D01*
X16663950Y-1556250D01*
G01X16978850Y-1884330D02*
X16970970Y-1879040D01*
Y-1868460D01*
X16978850Y-1863170D01*
X16986730Y-1868460D01*
Y-1879040D01*
X16978850Y-1884330D01*
G01X17293750Y-1873750D02*
Y-1556250D01*
X17246510Y-1619750D01*
G01Y-1873750D02*
X17340980D01*
G01X17537790Y-1884330D02*
X17679510Y-1556250D01*
G01X17872370Y-1767920D02*
X17974730D01*
G01X18238450Y-1556250D02*
X18206950Y-1566830D01*
X18183340Y-1593290D01*
X18167590Y-1625040D01*
X18155780Y-1667380D01*
X18151840Y-1715000D01*
X18155780Y-1762630D01*
X18167590Y-1804960D01*
X18183340Y-1836720D01*
X18206950Y-1863170D01*
X18238450Y-1873750D01*
X18269940Y-1863170D01*
X18293560Y-1836720D01*
X18309310Y-1804960D01*
X18321120Y-1762630D01*
X18325060Y-1715000D01*
X18321120Y-1667380D01*
X18309310Y-1625040D01*
X18293560Y-1593290D01*
X18269940Y-1566830D01*
X18238450Y-1556250D01*
G01X18553350Y-1884330D02*
X18545470Y-1879040D01*
Y-1868460D01*
X18553350Y-1863170D01*
X18561230Y-1868460D01*
Y-1879040D01*
X18553350Y-1884330D01*
G01X18868250Y-1873750D02*
Y-1556250D01*
X18821010Y-1619750D01*
G01Y-1873750D02*
X18915480D01*
G01X16305750Y2732080D02*
X16400230D01*
G01X16349050Y2800880D02*
Y2663280D01*
G01X16663950Y2943750D02*
X16632450Y2933170D01*
X16608840Y2906710D01*
X16593090Y2874960D01*
X16581280Y2832620D01*
X16577340Y2785000D01*
X16581280Y2737370D01*
X16593090Y2695040D01*
X16608840Y2663280D01*
X16632450Y2636830D01*
X16663950Y2626250D01*
X16695440Y2636830D01*
X16719060Y2663280D01*
X16734810Y2695040D01*
X16746620Y2737370D01*
X16750560Y2785000D01*
X16746620Y2832620D01*
X16734810Y2874960D01*
X16719060Y2906710D01*
X16695440Y2933170D01*
X16663950Y2943750D01*
G01X16978850Y2615670D02*
X16970970Y2620960D01*
Y2631540D01*
X16978850Y2636830D01*
X16986730Y2631540D01*
Y2620960D01*
X16978850Y2615670D01*
G01X17293750Y2626250D02*
Y2943750D01*
X17246510Y2880250D01*
G01Y2626250D02*
X17340980D01*
G01X17537790Y2615670D02*
X17679510Y2943750D01*
G01X17872370Y2732080D02*
X17974730D01*
G01X18238450Y2943750D02*
X18206950Y2933170D01*
X18183340Y2906710D01*
X18167590Y2874960D01*
X18155780Y2832620D01*
X18151840Y2785000D01*
X18155780Y2737370D01*
X18167590Y2695040D01*
X18183340Y2663280D01*
X18206950Y2636830D01*
X18238450Y2626250D01*
X18269940Y2636830D01*
X18293560Y2663280D01*
X18309310Y2695040D01*
X18321120Y2737370D01*
X18325060Y2785000D01*
X18321120Y2832620D01*
X18309310Y2874960D01*
X18293560Y2906710D01*
X18269940Y2933170D01*
X18238450Y2943750D01*
G01X18553350Y2615670D02*
X18545470Y2620960D01*
Y2631540D01*
X18553350Y2636830D01*
X18561230Y2631540D01*
Y2620960D01*
X18553350Y2615670D01*
G01X18868250Y2626250D02*
Y2943750D01*
X18821010Y2880250D01*
G01Y2626250D02*
X18915480D01*
G01X16305750Y4982080D02*
X16400230D01*
G01X16349050Y5050880D02*
Y4913280D01*
G01X16663950Y5193750D02*
X16632450Y5183170D01*
X16608840Y5156710D01*
X16593090Y5124960D01*
X16581280Y5082620D01*
X16577340Y5035000D01*
X16581280Y4987370D01*
X16593090Y4945040D01*
X16608840Y4913280D01*
X16632450Y4886830D01*
X16663950Y4876250D01*
X16695440Y4886830D01*
X16719060Y4913280D01*
X16734810Y4945040D01*
X16746620Y4987370D01*
X16750560Y5035000D01*
X16746620Y5082620D01*
X16734810Y5124960D01*
X16719060Y5156710D01*
X16695440Y5183170D01*
X16663950Y5193750D01*
G01X16978850Y4865670D02*
X16970970Y4870960D01*
Y4881540D01*
X16978850Y4886830D01*
X16986730Y4881540D01*
Y4870960D01*
X16978850Y4865670D01*
G01X17293750Y5193750D02*
X17262250Y5183170D01*
X17238640Y5156710D01*
X17222890Y5124960D01*
X17211080Y5082620D01*
X17207140Y5035000D01*
X17211080Y4987370D01*
X17222890Y4945040D01*
X17238640Y4913280D01*
X17262250Y4886830D01*
X17293750Y4876250D01*
X17325240Y4886830D01*
X17348860Y4913280D01*
X17364610Y4945040D01*
X17376420Y4987370D01*
X17380360Y5035000D01*
X17376420Y5082620D01*
X17364610Y5124960D01*
X17348860Y5156710D01*
X17325240Y5183170D01*
X17293750Y5193750D01*
G01X17537790Y4865670D02*
X17679510Y5193750D01*
G01X17872370Y4982080D02*
X17974730D01*
G01X18238450Y5193750D02*
X18206950Y5183170D01*
X18183340Y5156710D01*
X18167590Y5124960D01*
X18155780Y5082620D01*
X18151840Y5035000D01*
X18155780Y4987370D01*
X18167590Y4945040D01*
X18183340Y4913280D01*
X18206950Y4886830D01*
X18238450Y4876250D01*
X18269940Y4886830D01*
X18293560Y4913280D01*
X18309310Y4945040D01*
X18321120Y4987370D01*
X18325060Y5035000D01*
X18321120Y5082620D01*
X18309310Y5124960D01*
X18293560Y5156710D01*
X18269940Y5183170D01*
X18238450Y5193750D01*
G01X18553350Y4865670D02*
X18545470Y4870960D01*
Y4881540D01*
X18553350Y4886830D01*
X18561230Y4881540D01*
Y4870960D01*
X18553350Y4865670D01*
G01X18868250Y5193750D02*
X18836750Y5183170D01*
X18813140Y5156710D01*
X18797390Y5124960D01*
X18785580Y5082620D01*
X18781640Y5035000D01*
X18785580Y4987370D01*
X18797390Y4945040D01*
X18813140Y4913280D01*
X18836750Y4886830D01*
X18868250Y4876250D01*
X18899740Y4886830D01*
X18923360Y4913280D01*
X18939110Y4945040D01*
X18950920Y4987370D01*
X18954860Y5035000D01*
X18950920Y5082620D01*
X18939110Y5124960D01*
X18923360Y5156710D01*
X18899740Y5183170D01*
X18868250Y5193750D01*
G01X20167200Y6795000D02*
Y-2840000D01*
G01X20273460Y-1873750D02*
Y-1556250D01*
X20454540Y-1873750D01*
Y-1556250D01*
G01X20678900Y-1873750D02*
X20647400Y-1868460D01*
X20619850Y-1847300D01*
X20596230Y-1815540D01*
X20580480Y-1778500D01*
X20572610Y-1736170D01*
Y-1693830D01*
X20580480Y-1651500D01*
X20596230Y-1614460D01*
X20619850Y-1582710D01*
X20647400Y-1561540D01*
X20678900Y-1556250D01*
X20710390Y-1561540D01*
X20737950Y-1582710D01*
X20761570Y-1614460D01*
X20777320Y-1651500D01*
X20785190Y-1693830D01*
Y-1736170D01*
X20777320Y-1778500D01*
X20761570Y-1815540D01*
X20737950Y-1847300D01*
X20710390Y-1868460D01*
X20678900Y-1873750D01*
G01X20903260D02*
Y-1556250D01*
X21084340Y-1873750D01*
Y-1556250D01*
G01X21257520Y-1767920D02*
X21359880D01*
G01X21544870Y-1873750D02*
Y-1556250D01*
X21639350D01*
X21670840Y-1572130D01*
X21694460Y-1609170D01*
X21702330Y-1651500D01*
X21694460Y-1693830D01*
X21674780Y-1725590D01*
X21639350Y-1741470D01*
X21544870D01*
G01X21859770Y-1556250D02*
Y-1873750D01*
X22017230D01*
G01X22154980D02*
X22253400Y-1556250D01*
X22351820Y-1873750D01*
G01X22316380Y-1762630D02*
X22190410D01*
G01X22568300Y-1556250D02*
Y-1873750D01*
G01X22477760Y-1556250D02*
X22658840D01*
G01X22961930Y-1873750D02*
X22804470D01*
Y-1556250D01*
X22961930D01*
G01X22898950Y-1709700D02*
X22804470D01*
G01X23111490Y-1873750D02*
Y-1556250D01*
X23190220D01*
X23221720Y-1572130D01*
X23245340Y-1593290D01*
X23265030Y-1625040D01*
X23280770Y-1662090D01*
X23284710Y-1715000D01*
X23280770Y-1767920D01*
X23265030Y-1804960D01*
X23245340Y-1836720D01*
X23221720Y-1857880D01*
X23190220Y-1873750D01*
X23111490D01*
G01X20915070Y376250D02*
Y693750D01*
X21009550D01*
X21041040Y677870D01*
X21064660Y640830D01*
X21072530Y598500D01*
X21064660Y556170D01*
X21044980Y524410D01*
X21009550Y508530D01*
X20915070D01*
G01X21229970Y693750D02*
Y376250D01*
X21387430D01*
G01X21525180D02*
X21623600Y693750D01*
X21722020Y376250D01*
G01X21686580Y487370D02*
X21560610D01*
G01X21938500Y693750D02*
Y376250D01*
G01X21847960Y693750D02*
X22029040D01*
G01X22332130Y376250D02*
X22174670D01*
Y693750D01*
X22332130D01*
G01X22269150Y540300D02*
X22174670D01*
G01X22481690Y376250D02*
Y693750D01*
X22560420D01*
X22591920Y677870D01*
X22615540Y656710D01*
X22635230Y624960D01*
X22650970Y587910D01*
X22654910Y535000D01*
X22650970Y482080D01*
X22635230Y445040D01*
X22615540Y413280D01*
X22591920Y392120D01*
X22560420Y376250D01*
X22481690D01*
G01X20915070Y2626250D02*
Y2943750D01*
X21009550D01*
X21041040Y2927870D01*
X21064660Y2890830D01*
X21072530Y2848500D01*
X21064660Y2806170D01*
X21044980Y2774410D01*
X21009550Y2758530D01*
X20915070D01*
G01X21229970Y2943750D02*
Y2626250D01*
X21387430D01*
G01X21525180D02*
X21623600Y2943750D01*
X21722020Y2626250D01*
G01X21686580Y2737370D02*
X21560610D01*
G01X21938500Y2943750D02*
Y2626250D01*
G01X21847960Y2943750D02*
X22029040D01*
G01X22332130Y2626250D02*
X22174670D01*
Y2943750D01*
X22332130D01*
G01X22269150Y2790300D02*
X22174670D01*
G01X22481690Y2626250D02*
Y2943750D01*
X22560420D01*
X22591920Y2927870D01*
X22615540Y2906710D01*
X22635230Y2874960D01*
X22650970Y2837910D01*
X22654910Y2785000D01*
X22650970Y2732080D01*
X22635230Y2695040D01*
X22615540Y2663280D01*
X22591920Y2642120D01*
X22560420Y2626250D01*
X22481690D01*
G01X20915070Y4876250D02*
Y5193750D01*
X21009550D01*
X21041040Y5177870D01*
X21064660Y5140830D01*
X21072530Y5098500D01*
X21064660Y5056170D01*
X21044980Y5024410D01*
X21009550Y5008530D01*
X20915070D01*
G01X21229970Y5193750D02*
Y4876250D01*
X21387430D01*
G01X21525180D02*
X21623600Y5193750D01*
X21722020Y4876250D01*
G01X21686580Y4987370D02*
X21560610D01*
G01X21938500Y5193750D02*
Y4876250D01*
G01X21847960Y5193750D02*
X22029040D01*
G01X22332130Y4876250D02*
X22174670D01*
Y5193750D01*
X22332130D01*
G01X22269150Y5040300D02*
X22174670D01*
G01X22481690Y4876250D02*
Y5193750D01*
X22560420D01*
X22591920Y5177870D01*
X22615540Y5156710D01*
X22635230Y5124960D01*
X22650970Y5087910D01*
X22654910Y5035000D01*
X22650970Y4982080D01*
X22635230Y4945040D01*
X22615540Y4913280D01*
X22591920Y4892120D01*
X22560420Y4876250D01*
X22481690D01*
G01X20915070Y6318750D02*
Y6636250D01*
X21009550D01*
X21041040Y6620370D01*
X21064660Y6583330D01*
X21072530Y6541000D01*
X21064660Y6498670D01*
X21044980Y6466910D01*
X21009550Y6451030D01*
X20915070D01*
G01X21229970Y6636250D02*
Y6318750D01*
X21387430D01*
G01X21525180D02*
X21623600Y6636250D01*
X21722020Y6318750D01*
G01X21686580Y6429870D02*
X21560610D01*
G01X21938500Y6636250D02*
Y6318750D01*
G01X21847960Y6636250D02*
X22029040D01*
G01X22332130Y6318750D02*
X22174670D01*
Y6636250D01*
X22332130D01*
G01X22269150Y6482800D02*
X22174670D01*
G01X22481690Y6318750D02*
Y6636250D01*
X22560420D01*
X22591920Y6620370D01*
X22615540Y6599210D01*
X22635230Y6567460D01*
X22650970Y6530410D01*
X22654910Y6477500D01*
X22650970Y6424580D01*
X22635230Y6387540D01*
X22615540Y6355780D01*
X22591920Y6334620D01*
X22560420Y6318750D01*
X22481690D01*
G01X23394900Y6795000D02*
Y-2840000D01*
G01X24378950Y-1873750D02*
Y-1556250D01*
X24331710Y-1619750D01*
G01Y-1873750D02*
X24426180D01*
G01X24268740Y376250D02*
Y693750D01*
X24123080Y466210D01*
X24319920D01*
G01X24461600Y508530D02*
X24489160Y545590D01*
X24512780Y566750D01*
X24544280Y577330D01*
X24571830Y566750D01*
X24591510Y545590D01*
X24607260Y513830D01*
X24611200Y476790D01*
X24607260Y445040D01*
X24591510Y413280D01*
X24567890Y386830D01*
X24540340Y376250D01*
X24508850Y386830D01*
X24481290Y418570D01*
X24465540Y466210D01*
X24461600Y519120D01*
X24469470Y587910D01*
X24481290Y624960D01*
X24500970Y662000D01*
X24528520Y688460D01*
X24556080Y693750D01*
X24583640Y683170D01*
X24603330Y656710D01*
G01X24268740Y2626250D02*
Y2943750D01*
X24123080Y2716210D01*
X24319920D01*
G01X24536400Y2626250D02*
X24563950Y2631540D01*
X24595450Y2647410D01*
X24615130Y2673860D01*
X24623010Y2710920D01*
X24615130Y2747950D01*
X24591510Y2779700D01*
X24556080Y2795590D01*
X24516720D01*
X24493100Y2806170D01*
X24473410Y2832620D01*
X24465540Y2869660D01*
X24477350Y2906710D01*
X24504900Y2933170D01*
X24536400Y2943750D01*
X24567890Y2933170D01*
X24595450Y2906710D01*
X24607260Y2869660D01*
X24599380Y2832620D01*
X24579700Y2806170D01*
X24556080Y2795590D01*
X24516720D01*
X24481290Y2779700D01*
X24457670Y2747950D01*
X24449790Y2710920D01*
X24457670Y2673860D01*
X24477350Y2647410D01*
X24508850Y2631540D01*
X24536400Y2626250D01*
G01X23989250Y5140830D02*
X24012870Y5172580D01*
X24040430Y5188460D01*
X24071930Y5193750D01*
X24111290Y5183170D01*
X24138850Y5156710D01*
X24146720Y5124960D01*
X24142780Y5093200D01*
X24127030Y5066750D01*
X24048300Y5013830D01*
X24012870Y4976790D01*
X23989250Y4923860D01*
X23981380Y4876250D01*
X24146720D01*
G01X24312020Y4913280D02*
X24339580Y4886830D01*
X24371070Y4876250D01*
X24402570Y4886830D01*
X24430130Y4918570D01*
X24449810Y4966210D01*
X24457680Y5013830D01*
Y5072040D01*
X24449810Y5119660D01*
X24430130Y5162000D01*
X24406500Y5183170D01*
X24378950Y5193750D01*
X24347450Y5183170D01*
X24323840Y5162000D01*
X24308090Y5130250D01*
X24300220Y5087910D01*
X24308090Y5050880D01*
X24327770Y5013830D01*
X24351400Y4992660D01*
X24378950Y4987370D01*
X24410440Y4997950D01*
X24434060Y5024410D01*
X24457680Y5072040D01*
G01X24741090Y4876250D02*
Y5193750D01*
X24595430Y4966210D01*
X24792270D01*
G01X24064050Y6318750D02*
X24032550Y6324040D01*
X24005000Y6345200D01*
X23981380Y6376960D01*
X23965630Y6414000D01*
X23957760Y6456330D01*
Y6498670D01*
X23965630Y6541000D01*
X23981380Y6578040D01*
X24005000Y6609790D01*
X24032550Y6630960D01*
X24064050Y6636250D01*
X24095540Y6630960D01*
X24123100Y6609790D01*
X24146720Y6578040D01*
X24162470Y6541000D01*
X24170340Y6498670D01*
Y6456330D01*
X24162470Y6414000D01*
X24146720Y6376960D01*
X24123100Y6345200D01*
X24095540Y6324040D01*
X24064050Y6318750D01*
G01X24095540Y6403420D02*
X24142780Y6318750D01*
G01X24378950Y6636250D02*
Y6318750D01*
G01X24288410Y6636250D02*
X24469490D01*
G01X24693850Y6318750D02*
Y6461620D01*
X24615120Y6636250D01*
G01X24772580D02*
X24693850Y6461620D01*
M02*
