G04 ================== begin FILE IDENTIFICATION RECORD ==================*
G04 Layout Name:  artificiall_eye_ver00_routed.brd*
G04 Film Name:    Soldermask_Bottom*
G04 File Format:  Gerber RS274X*
G04 File Origin:  Cadence Allegro 17.2-P019*
G04 Origin Date:  Wed Jul 18 17:22:37 2018*
G04 *
G04 Layer:  PIN/SOLDERMASK_BOTTOM*
G04 Layer:  BOARD GEOMETRY/OUTLINE*
G04 *
G04 Offset:    (0.0000 0.0000)*
G04 Mirror:    No*
G04 Mode:      Positive*
G04 Rotation:  0*
G04 FullContactRelief:  No*
G04 UndefLineWidth:     0.2000*
G04 ================== end FILE IDENTIFICATION RECORD ====================*
%FSLAX25Y25*MOMM*%
%IR0*IPPOS*OFA0.00000B0.00000*MIA0B0*SFA1.00000B1.00000*%
%ADD12R,.8X1.8*%
%ADD13R,1.8X.8*%
%ADD16C,15.5*%
%ADD18R,.686X1.067*%
%ADD14R,1.905X.4572*%
%ADD15C,1.66*%
%ADD10C,1.6637*%
%ADD11R,1.3995X1.1506*%
%ADD17R,1.1506X1.3995*%
%ADD19C,.2*%
G75*
%LPD*%
G75*
G54D10*
X270000Y1233000D03*
Y1487000D03*
X203000Y4060000D03*
X213000Y4475000D03*
Y4729000D03*
Y4983000D03*
Y5237000D03*
Y5491000D03*
Y5745000D03*
X457000Y4060000D03*
X467000Y4475000D03*
Y4983000D03*
Y4729000D03*
Y5745000D03*
Y5491000D03*
Y5237000D03*
X765000Y5503000D03*
Y5757000D03*
X1527000Y5503000D03*
X1273000D03*
X1019000D03*
Y5757000D03*
X1273000D03*
X1527000D03*
X2035000Y5503000D03*
X1781000D03*
Y5757000D03*
X2035000D03*
X2373000Y783000D03*
X2627000D03*
X2373000Y1037000D03*
X2627000D03*
X3273000Y220000D03*
X3527000D03*
X5717000Y913000D03*
Y659000D03*
Y405000D03*
X5463000D03*
Y659000D03*
Y913000D03*
X5717000Y1421000D03*
Y1167000D03*
X5463000D03*
Y1421000D03*
X5717000Y1675000D03*
X5463000D03*
G54D11*
X330000Y229920D03*
Y430080D03*
G54D12*
X835000Y250000D03*
Y1590000D03*
X885000Y250000D03*
X935000D03*
X985000D03*
X1035000D03*
X1085000D03*
X1135000D03*
X1185000D03*
X1235000D03*
X1285000D03*
X1335000D03*
X1385000D03*
X1435000D03*
Y1590000D03*
X1385000D03*
X1335000D03*
X1285000D03*
X1235000D03*
X1185000D03*
X1135000D03*
X1085000D03*
X1035000D03*
X985000D03*
X935000D03*
X885000D03*
X1485000Y250000D03*
X1535000D03*
X1585000D03*
X1635000D03*
X1685000D03*
X1735000D03*
X1785000D03*
Y1590000D03*
X1735000D03*
X1685000D03*
X1635000D03*
X1585000D03*
X1535000D03*
X1485000D03*
G54D13*
X640000Y845000D03*
Y795000D03*
Y745000D03*
Y695000D03*
Y645000D03*
Y595000D03*
Y545000D03*
Y495000D03*
Y445000D03*
Y1395000D03*
Y1345000D03*
Y1295000D03*
Y1245000D03*
Y1195000D03*
Y1145000D03*
Y1095000D03*
Y1045000D03*
Y995000D03*
Y945000D03*
Y895000D03*
X1980000Y445000D03*
Y495000D03*
Y545000D03*
Y595000D03*
Y645000D03*
Y695000D03*
Y745000D03*
Y795000D03*
Y845000D03*
Y895000D03*
Y945000D03*
Y995000D03*
Y1045000D03*
Y1095000D03*
Y1145000D03*
Y1195000D03*
Y1245000D03*
Y1295000D03*
Y1345000D03*
Y1395000D03*
G54D14*
X927020Y3207540D03*
Y3142510D03*
Y3077490D03*
Y3012460D03*
Y2947440D03*
Y2882420D03*
X352980D03*
Y2947440D03*
Y3012460D03*
Y3077490D03*
Y3142510D03*
Y3207540D03*
X927020Y3337580D03*
Y3272560D03*
X352980D03*
Y3337580D03*
X802980Y3995440D03*
Y4060460D03*
Y4125480D03*
Y4190510D03*
Y4255530D03*
Y4320560D03*
Y4385580D03*
X1142980Y1922420D03*
Y1987420D03*
Y2052420D03*
Y2117420D03*
Y2182420D03*
Y2247440D03*
Y2312460D03*
Y2377490D03*
Y2442510D03*
Y2507540D03*
Y2572560D03*
Y2637580D03*
X1377020Y4385580D03*
Y4320560D03*
Y4255530D03*
Y4190510D03*
Y4125480D03*
Y4060460D03*
Y3995440D03*
X1092980Y4762420D03*
Y4827440D03*
Y4892460D03*
Y4957490D03*
Y5022510D03*
Y5087540D03*
Y5152560D03*
Y5217580D03*
X1717020Y1922420D03*
Y1987420D03*
Y2052420D03*
Y2117420D03*
Y2637580D03*
Y2572560D03*
Y2507540D03*
Y2442510D03*
Y2377490D03*
Y2312460D03*
Y2247440D03*
Y2182420D03*
X1667020Y5022510D03*
Y4957490D03*
Y4892460D03*
Y4827440D03*
Y4762420D03*
Y5217580D03*
Y5152560D03*
Y5087540D03*
X3992980Y762420D03*
Y827420D03*
Y892420D03*
Y957420D03*
Y1022420D03*
Y1087440D03*
Y1152460D03*
Y1217490D03*
Y1282510D03*
Y1347540D03*
Y1412560D03*
Y1477580D03*
X4567020Y762420D03*
Y827420D03*
Y892420D03*
Y957420D03*
Y1412560D03*
Y1347540D03*
Y1282510D03*
Y1217490D03*
Y1152460D03*
Y1087440D03*
Y1022420D03*
Y1477580D03*
G54D15*
X2500000Y2865000D03*
Y3119000D03*
X2246000Y2865000D03*
Y3119000D03*
X2500000Y3373000D03*
Y3627000D03*
Y3881000D03*
X2246000Y3373000D03*
Y3627000D03*
Y3881000D03*
X2500000Y4135000D03*
X2246000D03*
X3119000Y2246000D03*
X2865000D03*
X3119000Y2500000D03*
X2865000D03*
Y4500000D03*
X3119000D03*
X2865000Y4754000D03*
X3119000D03*
X3881000Y2246000D03*
X3627000D03*
X3373000D03*
X3881000Y2500000D03*
X3627000D03*
X3373000D03*
Y4500000D03*
X3627000D03*
X3881000D03*
X3373000Y4754000D03*
X3627000D03*
X3881000D03*
X4135000Y2246000D03*
Y2500000D03*
X4500000Y3119000D03*
Y2865000D03*
Y3881000D03*
Y3627000D03*
Y3373000D03*
X4135000Y4500000D03*
X4500000Y4135000D03*
X4135000Y4754000D03*
X4754000Y3119000D03*
Y2865000D03*
Y3881000D03*
Y3627000D03*
Y3373000D03*
Y4135000D03*
G54D16*
X3500000Y3500000D03*
G54D17*
X4409920Y5820000D03*
X5000080Y5580000D03*
X4799920D03*
X4610080Y5820000D03*
X5080080D03*
X4879920D03*
G54D18*
X5455000Y5885000D03*
X5645000Y5255000D03*
G54D19*
G01X0Y0D02*
Y6000000D01*
X6000000D01*
Y0D01*
X0D01*
M02*
