G04 ================== begin FILE IDENTIFICATION RECORD ==================*
G04 Layout Name:  artificiall_eye_ver00_routed.brd*
G04 Film Name:    GROUND*
G04 File Format:  Gerber RS274X*
G04 File Origin:  Cadence Allegro 17.2-P019*
G04 Origin Date:  Wed Jul 18 17:22:37 2018*
G04 *
G04 Layer:  BOARD GEOMETRY/OUTLINE*
G04 Layer:  ETCH/GROUND*
G04 Layer:  PIN/GROUND*
G04 Layer:  VIA CLASS/GROUND*
G04 *
G04 Offset:    (0.0000 0.0000)*
G04 Mirror:    No*
G04 Mode:      Positive*
G04 Rotation:  0*
G04 FullContactRelief:  No*
G04 UndefLineWidth:     0.2000*
G04 ================== end FILE IDENTIFICATION RECORD ====================*
%FSLAX25Y25*MOMM*%
%IR0*IPPOS*OFA0.00000B0.00000*MIA0B0*SFA1.00000B1.00000*%
%ADD13C,15.5*%
%ADD11C,.635*%
%ADD12C,1.46*%
%ADD10C,1.4605*%
%ADD14C,.5*%
%ADD15C,.2*%
%ADD18C,16.5004*%
%ADD17C,1.715*%
%ADD16C,1.6354*%
G75*
%LPD*%
G75*
G36*
G01X50010Y50010D02*
Y4523100D01*
G02X63790Y4532660I10201J7D01*
G03X87330Y4527620I28702J76565D01*
G02X96360Y4514190I-638J-10180D01*
G03X330280Y4437760I116641J-39190D01*
G02X349720I9720J-3090D01*
G03X504240Y4592280I117280J37240D01*
G02Y4611720I3090J9720D01*
G03Y4846280I-37240J117280D01*
G02Y4865720I3090J9720D01*
G03Y5100280I-37240J117280D01*
G02Y5119720I3090J9720D01*
G03Y5354280I-37240J117280D01*
G02Y5373720I3090J9720D01*
G03Y5608280I-37240J117280D01*
G02Y5627720I3090J9720D01*
G03X349720Y5782240I-37240J117280D01*
G02X330280I-9720J3090D01*
G03X175760Y5627720I-117280J-37240D01*
G02Y5608280I-3090J-9720D01*
G03Y5373720I37240J-117280D01*
G02Y5354280I-3090J-9720D01*
G03X330280Y5199760I37240J-117280D01*
G02X349720I9720J-3090D01*
G03X429760Y5119720I117280J37240D01*
G02Y5100280I-3090J-9720D01*
G03Y4865720I37240J-117280D01*
G02Y4846280I-3090J-9720D01*
G03X349720Y4766240I37240J-117280D01*
G02X330280I-9720J3090D01*
G03X92760Y4702860I-117278J-37243D01*
G02X83870Y4690550I-9966J-2168D01*
G03X63790Y4685800I8633J-81312D01*
G02X50010Y4695360I-3579J9553D01*
G01Y5949990D01*
X5101650D01*
G02X5111200Y5936210I-3J-10201D01*
G03X5113980Y5872260I76562J-28707D01*
G03X5250650Y5855240I62886J-52262D01*
G03X5264320Y5936210I-62891J52257D01*
G02X5273870Y5949990I9553J3579D01*
G01X5949990D01*
Y5876400D01*
G02X5937160Y5866550I-10199J4D01*
G03Y5708530I-21070J-79010D01*
G02X5949990Y5698680I2631J-9854D01*
G01Y50010D01*
X5931370D01*
G02X5921520Y62850I1J10199D01*
G03X5763540I-78990J21150D01*
G02X5753690Y50010I-9851J-2641D01*
G01X50010D01*
G37*
G36*
G01X330280Y4512240D02*
G03X250240Y4592280I-117280J-37240D01*
G02Y4611720I3090J9720D01*
G03X330280Y4691760I-37240J117280D01*
G02X349720I9720J-3090D01*
G03X429760Y4611720I117280J37240D01*
G02Y4592280I-3090J-9720D01*
G03X349720Y4512240I37240J-117280D01*
G02X330280I-9720J3090D01*
G37*
G36*
G01Y5528240D02*
G03X250240Y5608280I-117280J-37240D01*
G02Y5627720I3090J9720D01*
G03X330280Y5707760I-37240J117280D01*
G02X349720I9720J-3090D01*
G03X429760Y5627720I117280J37240D01*
G02Y5608280I-3090J-9720D01*
G03X349720Y5528240I37240J-117280D01*
G02X330280I-9720J3090D01*
G37*
G36*
G01Y5274240D02*
G03X250240Y5354280I-117280J-37240D01*
G02Y5373720I3090J9720D01*
G03X330280Y5453760I-37240J117280D01*
G02X349720I9720J-3090D01*
G03X429760Y5373720I117280J37240D01*
G02Y5354280I-3090J-9720D01*
G03X349720Y5274240I37240J-117280D01*
G02X330280I-9720J3090D01*
G37*
%LPC*%
G75*
G36*
G01X2918160Y5733500D02*
G02X2823430Y5657100I-13072J-80720D01*
G02X2918160Y5733500I13072J80720D01*
G37*
G36*
G01X2672760Y5491110D02*
G03X2658330Y5490370I-6846J-7564D01*
G02X2652360Y5605720I-60792J54683D01*
G03X2666790Y5606460I6846J7564D01*
G02X2672760Y5491110I60792J-54683D01*
G37*
G36*
G01X5451460Y5597930D02*
G02X5587570Y5674050I56033J59557D01*
G02X5591380Y5510710I5443J-81587D01*
G02X5451860Y5590930I-77007J27505D01*
G03X5451460Y5597930I-3895J3289D01*
G37*
G36*
G01X4680550Y5417520D02*
G03X4687760Y5431620I-2123J9979D01*
G02X4779550Y5384670I74798J33033D01*
G03X4772340Y5370570I2123J-9979D01*
G02X4777790Y5353240I-74796J-33044D01*
G03X4792210Y5346000I10011J1958D01*
G02X4747330Y5256580I35369J-73724D01*
G03X4732910Y5263820I-10011J-1958D01*
G02X4680550Y5417520I-35382J73715D01*
G37*
G36*
G01X2467490Y5325960D02*
G02Y5203600I54250J-61180D01*
G02Y5325960I-54250J61180D01*
G37*
G36*
G01X4344050Y5330270D02*
G03X4356060Y5322400I9974J2123D01*
G02X4292430Y5225300I16359J-80119D01*
G03X4280420Y5233170I-9974J-2123D01*
G02X4344050Y5330270I-16359J80119D01*
G37*
G36*
G01X1794910Y5178150D02*
G03X1786010Y5188880I-10182J611D01*
G02X1877940Y5265100I10307J81118D01*
G03X1886840Y5254370I10182J-611D01*
G02X1794910Y5178150I-10307J-81118D01*
G37*
G36*
G01X3527400Y5165280D02*
G02X3636670Y5240780I27514J77002D01*
G02X3527400Y5165280I-27514J-77002D01*
G37*
G36*
G01X1868530Y4890540D02*
G03X1854110I-7210J-7215D01*
G02Y5006240I-57790J57850D01*
G03X1868530I7210J7215D01*
G02Y4890540I57790J-57850D01*
G37*
G36*
G01X1581420Y4891630D02*
G02X1543550Y4746840I-50836J-64051D01*
G02X1388870Y4796410I-80245J15720D01*
G03X1384370Y4809640I-9286J4222D01*
G02X1429670Y4963310I38407J72190D01*
G03X1435160Y4967750I430J5083D01*
G02X1579830Y4906030I81123J-10261D01*
G03X1581420Y4891630I7929J-6412D01*
G37*
G36*
G01X1597730Y4357480D02*
G03X1585430Y4346670I-2134J-9974D01*
G02X1521020Y4419960I-81497J-6674D01*
G03X1533320Y4430770I2134J9974D01*
G02X1597730Y4357480I81497J6674D01*
G37*
G36*
G01X5571210Y4016770D02*
G03X5577230Y4001150I8451J-5713D01*
G02X5489980Y3967530I-19504J-79409D01*
G03X5483960Y3983150I-8451J5713D01*
G02X5571210Y4016770I19504J79409D01*
G37*
G36*
G01X145080Y3485810D02*
G03X148650Y3503010I-3291J9654D01*
G02X230010Y3486090I55020J60492D01*
G03X226440Y3468890I3291J-9654D01*
G02X145080Y3485810I-55020J-60492D01*
G37*
G36*
G01X1473350Y3340520D02*
G03X1466980Y3337230I-1521J-4866D01*
G02X1413610Y3440620I-77747J25337D01*
G03X1419980Y3443910I1521J4866D01*
G02X1473350Y3340520I77747J-25337D01*
G37*
G36*
G01X797980Y3259640D02*
G03X791140Y3247600I3091J-9719D01*
G02X686770Y3306980I-79637J-18561D01*
G03X693610Y3319020I-3091J9719D01*
G02X797980Y3259640I79637J18561D01*
G37*
G36*
G01X2023280Y3248440D02*
G02X1954620Y3151560I11542J-80950D01*
G02X2023280Y3248440I-11542J80950D01*
G37*
G36*
G01X5476240Y2994630D02*
G03X5490990Y2988470I9817J2767D01*
G02X5451850Y2894700I39558J-71565D01*
G03X5437100Y2900860I-9817J-2767D01*
G02X5401450Y3054100I-39561J71563D01*
G03X5411220Y3068520I490J10188D01*
G02X5475580Y3183610I74392J33940D01*
G03X5483570Y3198030I-1259J10121D01*
G02X5567750Y3151360I74144J34483D01*
G03X5559760Y3136940I1259J-10121D01*
G02X5481700Y3020780I-74147J-34481D01*
G03X5471930Y3006360I-490J-10188D01*
G02X5476240Y2994630I-74374J-33984D01*
G37*
G36*
G01X1090710Y2645860D02*
G02X1016650Y2755030I-77028J27451D01*
G02X1100150Y2809090I77024J-27454D01*
G03X1110530Y2822760I800J10169D01*
G02X1214390Y2928000I76798J28078D01*
G03X1227310Y2934020I3378J9626D01*
G02X1374440Y2863920I76481J-28929D01*
G02X1248640Y2777020I-46407J-67327D01*
G03X1233030Y2783030I-9903J-2444D01*
G02X1180860Y2769330I-45692J67812D01*
G03X1170480Y2755660I-800J-10169D01*
G02X1090710Y2645860I-76799J-28082D01*
G37*
G36*
G01X5271300Y2707480D02*
G02X5396130Y2721670I56502J59110D01*
G02X5271300Y2707480I-56502J-59110D01*
G37*
G36*
G01X4488710Y2427250D02*
G02X4597980Y2502750I27514J77002D01*
G02X4488710Y2427250I-27514J-77002D01*
G37*
G36*
G01X5259700Y2354690D02*
G02X5322210Y2257550I79929J-17248D01*
G02X5259700Y2354690I-79929J17248D01*
G37*
G36*
G01X2050660Y2263140D02*
G03X2036410Y2255930I-4261J-9266D01*
G02X1990470Y2346720I-80090J16492D01*
G03X2004720Y2353930I4261J9266D01*
G02X2061390Y2415780I80088J-16494D01*
G03X2067540Y2430210I-2925J9772D01*
G02X2163740Y2389150I72775J37282D01*
G03X2157590Y2374720I2925J-9772D01*
G02X2050660Y2263140I-72778J-37282D01*
G37*
G36*
G01X2333490Y2129020D02*
G02X2434940Y2027570I78480J-22970D01*
G02X2333490Y2129020I-78480J22970D01*
G37*
G36*
G01X1350460Y1922220D02*
G03X1348210Y1908310I6158J-8133D01*
G02X1231450Y1927240I-67416J-46272D01*
G03X1233700Y1941150I-6158J8133D01*
G02X1234280Y2034520I67420J46268D01*
G03X1231520Y2048940I-8338J5878D01*
G02X1346010Y2159990I44676J68484D01*
G03X1362520Y2158730I8709J5313D01*
G02X1390360Y2031990I62530J-52692D01*
G03X1376610Y2018840I-4332J-9234D01*
G02X1350460Y1922220I-75491J-31417D01*
G37*
G36*
G01X2889110Y1841030D02*
G03X2885900Y1825670I4776J-9014D01*
G02X2783620Y1847050I-64010J-50881D01*
G03X2786830Y1862410I-4776J9014D01*
G02X2889110Y1841030I64010J50881D01*
G37*
G36*
G01X1053990Y1754640D02*
G03X1045180Y1766150I-10104J1393D01*
G02X1136520Y1836100I10336J81114D01*
G03X1145330Y1824590I10104J-1393D01*
G02X1053990Y1754640I-10336J-81114D01*
G37*
G36*
G01X684080Y1703410D02*
G03X671850Y1712900I-10188J-504D01*
G02X729180Y1828440I-16368J80115D01*
G03X747560I9190J4416D01*
G02X847130Y1715440I73697J-35430D01*
G02X684080Y1703410I-81382J-7949D01*
G37*
G36*
G01X3379930Y1675010D02*
G02X3538860Y1640530I77639J-25657D01*
G02X3435970Y1532820I-27038J-77170D01*
G03X3419410Y1536340I-9464J-3809D01*
G02X3379930Y1675010I-56852J58769D01*
G37*
G36*
G01X695120Y1462780D02*
G02X575700Y1529220I-81548J-6031D01*
G02X695120Y1462780I81548J6031D01*
G37*
G36*
G01X3067470Y1441350D02*
G03X3051610Y1433940I-5712J-8451D01*
G02X3016040Y1510040I-81342J8343D01*
G03X3031900Y1517450I5712J8451D01*
G02X3067470Y1441350I81342J-8343D01*
G37*
G36*
G01X813250Y1494680D02*
G02X888750Y1385410I77002J-27514D01*
G02X813250Y1494680I-77002J27514D01*
G37*
G36*
G01X3674490Y1360000D02*
G02X3556840Y1265030I-78398J-23238D01*
G02Y1408490I-39250J71730D01*
G02X3595130Y1418520I39249J-71732D01*
G03X3604790Y1431620I-119J10200D01*
G02X3684150Y1373100I78396J23244D01*
G03X3674490Y1360000I119J-10200D01*
G37*
G36*
G01X2069350Y1348640D02*
G02X2173520Y1270610I81768J612D01*
G02X2069350Y1348640I-81768J-612D01*
G37*
G36*
G01X1787640Y1208090D02*
G02X1909070Y1235410I49072J65410D01*
G02X1787640Y1208090I-49072J-65410D01*
G37*
G36*
G01X952080Y1127580D02*
G02X901760Y1283150I-26840J77241D01*
G02X1050810Y1304170I78990J-21148D01*
G02X1116770Y1155000I38448J-72167D01*
G02X958530Y1124570I-81757J-1502D01*
G03X952080Y1127580I-4770J-1805D01*
G37*
G36*
G01X4272610Y1208410D02*
G03X4284640Y1198440I10198J63D01*
G02X4217570Y1117520I14700J-80439D01*
G03X4205540Y1127490I-10198J-63D01*
G02X4272610Y1208410I-14700J80439D01*
G37*
G36*
G01X3444220Y941950D02*
G03X3428860Y936930I-5746J-8427D01*
G02X3397870Y1031800I-77070J27321D01*
G03X3413230Y1036820I5746J8427D01*
G02X3444220Y941950I77070J-27321D01*
G37*
G36*
G01X1423830Y664700D02*
G03X1440070Y663470I8584J5507D01*
G02X1432670Y565350I61429J-53972D01*
G03X1416430Y566580I-8584J-5507D01*
G02X1273240Y621610I-61428J53971D01*
G02X1342030Y768890I26262J77438D01*
G03X1357530Y777950I5306J8712D01*
G02X1396720Y710900I81722J2787D01*
G03X1381220Y701840I-5306J-8712D01*
G02X1381260Y697990I-81721J-2774D01*
G02X1423830Y664700I-26258J-77441D01*
G37*
G36*
G01X1141260Y454130D02*
G03X1153320Y441640I9883J-2525D01*
G02X1091530Y381960I17443J-79887D01*
G03X1079470Y394450I-9883J2525D01*
G02X1036300Y551960I-17440J79891D01*
G02X1143270Y465000I81238J-9341D01*
G02X1141260Y454130I-81229J9399D01*
G37*
G36*
G01X2145440Y380460D02*
G03X2162950I8755J5234D01*
G02X2162940Y296550I70180J-41963D01*
G03X2145430I-8755J-5234D01*
G02X2145440Y380460I-70180J41963D01*
G37*
G36*
G01X3452060Y122400D02*
G02X3339650Y116560I-59283J56320D01*
G02X3194550Y125200I-66648J103439D01*
G02X3163860Y276830I-41331J70555D01*
G02X3348890Y316860I109140J-56830D01*
G02X3459200Y322680I58332J-57301D01*
G02X3452060Y122400I67801J-102684D01*
G37*
G36*
G01X1640380Y1111240D02*
G02X1573630Y1088150I-9265J-81242D01*
G03X1567610Y1105540I-7171J7255D01*
G02X1561410Y1267080I9259J81244D01*
G02X1658590Y1189700I81720J2918D01*
G02X1634360Y1128630I-81719J-2919D01*
G03X1640380Y1111240I7171J-7255D01*
G37*
G36*
G01X307240Y1350280D02*
G02X232760I-37240J-117280D01*
G03Y1369720I-3090J9720D01*
G02X307240I37240J117280D01*
G03Y1350280I3090J-9720D01*
G37*
G36*
G01X3842760Y1658020D02*
G02X3785800Y1675720I-51074J-63858D01*
G03X3791430Y1693860I-737J10172D01*
G02X3923580Y1768340I51072J63860D01*
G03X3940770Y1762320I10113J1324D01*
G02X4075610Y1727780I56769J-58851D01*
G03X4090090Y1721770I9743J3026D01*
G02X4119010Y1730610I37950J-72428D01*
G03X4127000Y1745320I-1126J10137D01*
G02X4179430Y1861080I73098J36646D01*
G03X4185440Y1876440I-2583J9867D01*
G02X4275020Y1841360I68902J44033D01*
G03X4269010Y1826000I2583J-9867D01*
G02X4209120Y1700700I-68907J-44027D01*
G03X4201130Y1685990I1126J-10137D01*
G02X4049960Y1625030I-73098J-36648D01*
G03X4035480Y1631040I-9743J-3026D01*
G02X3916460Y1692850I-37944J72433D01*
G03X3899270Y1698870I-10113J-1324D01*
G02X3848390Y1676160I-56775J58848D01*
G03X3842760Y1658020I737J-10172D01*
G37*
G36*
G01X545950Y2645360D02*
G02X399590Y2715830I-77290J26698D01*
G03X396840Y2729640I-8612J5464D01*
G02X523860Y2813100I46937J66953D01*
G03X536480Y2805310I9990J2066D01*
G02X547770Y2807480I21041J-79016D01*
G03X553780Y2824800I-1223J10127D01*
G02X621580Y2801240I58017J57622D01*
G03X615570Y2783920I1223J-10127D01*
G02X545950Y2645360I-58020J-57618D01*
G37*
G36*
G01X1708190Y2771890D02*
G02X1648810Y2780390I-40469J-71051D01*
G03X1651500Y2799180I-2359J9925D01*
G02X1710880Y2790680I40469J71051D01*
G03X1708190Y2771890I2359J-9925D01*
G37*
G36*
G01X548190Y3961410D02*
G02X421530Y3930470I-51617J-63419D01*
G03X415600Y3944120I-9363J4046D01*
G02X339720Y4022760I41402J115877D01*
G03X320280I-9720J-3090D01*
G02Y4097240I-117280J37240D01*
G03X339720I9720J3090D01*
G02X499810Y4175360I117278J-37241D01*
G03X513540Y4184360I3545J9566D01*
G02X592130Y4261490I81640J-4582D01*
G02X676730Y4173820I81551J-5959D01*
G02X662430Y4133260I-81553J5952D01*
G03X669310Y4117370I8385J-5804D01*
G02X583500Y4001180I-12058J-80876D01*
G03X565320Y4001620I-9202J-4402D01*
G02X547160Y3976260I-108318J58383D01*
G03X548190Y3961410I7471J-6943D01*
G37*
G36*
G01X5364510Y4072690D02*
G02X5300050I-32230J-75150D01*
G03Y4091440I-4018J9375D01*
G02X5364510I32230J75150D01*
G03Y4072690I4018J-9375D01*
G37*
G36*
G01X2329100Y4464990D02*
G02X2293830Y4420630I42404J-69916D01*
G03X2278850Y4432540I-9688J3190D01*
G02X2194840Y4572850I-42392J69923D01*
G03X2198830Y4586080I-5187J8781D01*
G02X2314030Y4551350I73586J35660D01*
G03X2310040Y4538120I5187J-8781D01*
G02X2314120Y4476900I-73590J-35650D01*
G03X2329100Y4464990I9688J-3190D01*
G37*
G36*
G01X3991970Y5436850D02*
G02X3930860Y5462470I-59458J-56132D01*
G03X3938080Y5479670I-200J10199D01*
G02X4059510Y5589150I59458J56134D01*
G03X4073930Y5588110I7728J6656D01*
G02X4065610Y5473050I53650J-61710D01*
G03X4051190Y5474090I-7728J-6656D01*
G02X3999190Y5454050I-53645J61713D01*
G03X3991970Y5436850I200J-10199D01*
G37*
G36*
G01X1071360Y5379020D02*
G02X943460Y5391610I-68904J-44030D01*
G03X942450Y5406660I-7355J7065D01*
G02X901720Y5465760I76549J96341D01*
G03X882280I-9720J-3090D01*
G02X727760Y5620280I-117280J37240D01*
G03Y5639720I-3090J9720D01*
G02X882280Y5794240I37240J117280D01*
G03X901720I9720J3090D01*
G02X1136280I117280J-37240D01*
G03X1155720I9720J3090D01*
G02X1390280I117280J-37240D01*
G03X1409720I9720J3090D01*
G02X1644280I117280J-37240D01*
G03X1663720I9720J3090D01*
G02X1898280I117280J-37240D01*
G03X1917720I9720J3090D01*
G02X2072240Y5639720I117280J-37240D01*
G03Y5620280I3090J-9720D01*
G02X2156010Y5480700I-37241J-117278D01*
G03X2159800Y5474830I5017J-919D01*
G02X2060300Y5377590I-19709J-79359D01*
G03X2054510Y5381510I-4978J-1116D01*
G02X1917720Y5465760I-19512J121492D01*
G03X1898280I-9720J-3090D01*
G02X1663720I-117280J37240D01*
G03X1644280I-9720J-3090D01*
G02X1409720I-117280J37240D01*
G03X1390280I-9720J-3090D01*
G02X1155720I-117280J37240D01*
G03X1136280I-9720J-3090D01*
G02X1075290Y5393580I-117280J37240D01*
G03X1071360Y5379020I4667J-9070D01*
G37*
G36*
G01X2982280Y4462850D02*
G02X2827850Y4617280I-117280J37150D01*
G03Y4636720I-3080J9720D01*
G02X2982280Y4791150I37150J117280D01*
G03X3001720I9720J3080D01*
G02X3236280I117280J-37150D01*
G03X3255720I9720J3080D01*
G02X3417630Y4868640I117278J-37150D01*
G03X3429890Y4883690I3702J9503D01*
G02X3478020Y4849020I68604J44495D01*
G03X3467620Y4832620I-2560J-9874D01*
G02X3490280Y4791150I-94616J-78626D01*
G03X3509720I9720J3080D01*
G02X3744280I117280J-37150D01*
G03X3763720I9720J3080D01*
G02X3998280I117280J-37150D01*
G03X4017720I9720J3080D01*
G02X4172150Y4636720I117280J-37150D01*
G03Y4617280I3080J-9720D01*
G02X4017720Y4462850I-37150J-117280D01*
G03X3998280I-9720J-3080D01*
G02X3763720I-117280J37150D01*
G03X3744280I-9720J-3080D01*
G02X3509720I-117280J37150D01*
G03X3490280I-9720J-3080D01*
G02X3255720I-117280J37150D01*
G03X3236280I-9720J-3080D01*
G02X3001720I-117280J37150D01*
G03X2982280I-9720J-3080D01*
G37*
G36*
G01X4617280Y2827850D02*
G02X4462850Y2982280I-117280J37150D01*
G03Y3001720I-3080J9720D01*
G02Y3236280I37150J117280D01*
G03Y3255720I-3080J9720D01*
G02Y3490280I37150J117280D01*
G03Y3509720I-3080J9720D01*
G02Y3744280I37150J117280D01*
G03Y3763720I-3080J9720D01*
G02Y3998280I37150J117280D01*
G03Y4017720I-3080J9720D01*
G02X4617280Y4172150I37150J117280D01*
G03X4636720I9720J3080D01*
G02X4791150Y4017720I117280J-37150D01*
G03Y3998280I3080J-9720D01*
G02Y3763720I-37150J-117280D01*
G03Y3744280I3080J-9720D01*
G02X4874800Y3603750I-37152J-117276D01*
G03X4885390Y3591640I10017J-1925D01*
G02X4948140Y3452500I4611J-81640D01*
G02X4952060Y3395020I-74390J-33947D01*
G03X4958070Y3382600I9767J-2938D01*
G02X4851790Y3276930I-30068J-76040D01*
G03X4835520Y3280870I-9507J-3698D01*
G02X4791150Y3255720I-81531J92124D01*
G03Y3236280I3080J-9720D01*
G02Y3001720I-37150J-117280D01*
G03Y2982280I3080J-9720D01*
G02X4636720Y2827850I-37150J-117280D01*
G03X4617280I-9720J-3080D01*
G37*
G36*
G01X2650950Y2403620D02*
G02X2544790Y2447180I-75197J-32121D01*
G03X2550300Y2460630I-3867J9438D01*
G02X2543790Y2489570I75200J32118D01*
G02X2471090Y2615280I-3793J81683D01*
G03X2465080Y2630640I-8593J5493D01*
G02X2423100Y2762300I20670J79113D01*
G03X2422410Y2769530I-3907J3275D01*
G02X2382720Y2827850I77589J95469D01*
G03X2363280I-9720J-3080D01*
G02X2133600Y2815000I-117278J37149D01*
G03X2119900Y2820060I-9317J-4150D01*
G02X2143390Y2950970I-35090J73859D01*
G03X2157990Y2950960I7305J7117D01*
G02X2208850Y2982280I88008J-85960D01*
G03Y3001720I-3080J9720D01*
G02Y3236280I37150J117280D01*
G03Y3255720I-3080J9720D01*
G02Y3490280I37150J117280D01*
G03Y3509720I-3080J9720D01*
G02Y3744280I37150J117280D01*
G03Y3763720I-3080J9720D01*
G02X2144480Y3811520I37154J117276D01*
G03X2128500Y3812610I-8420J-5756D01*
G02X2023100Y3799070I-60620J54879D01*
G03X2007400Y3791860I-5587J-8533D01*
G02X1971100Y3870880I-81080J10601D01*
G03X1986800Y3878090I5587J8533D01*
G02X2119530Y3930890I81082J-10597D01*
G03X2135160Y3934370I6442J7905D01*
G02X2208850Y3998280I110843J-53367D01*
G03Y4017720I-3080J9720D01*
G02X2141520Y4070060I37157J117275D01*
G03X2125650Y4071900I-8666J-5381D01*
G02X2095390Y4052770I-57764J57874D01*
G02X1932240Y4043400I-81758J-1500D01*
G03X1927110Y4048000I-5074J-498D01*
G02X1873350Y4192060I-789J81767D01*
G03X1870660Y4209250I-6605J7772D01*
G02X1955040Y4222460I31404J75499D01*
G03X1957730Y4205270I6605J-7772D01*
G02X1989250Y4181980I-31418J-75494D01*
G03X2004950I7850J6515D01*
G02X2122150Y4190930I62929J-52211D01*
G03X2137890Y4193700I6771J7630D01*
G02X2363280Y4172150I108113J-58700D01*
G03X2382720I9720J3080D01*
G02X2537150Y4017720I117280J-37150D01*
G03Y3998280I3080J-9720D01*
G02Y3763720I-37150J-117280D01*
G03Y3744280I3080J-9720D01*
G02Y3509720I-37150J-117280D01*
G03Y3490280I3080J-9720D01*
G02Y3255720I-37150J-117280D01*
G03Y3236280I3080J-9720D01*
G02Y3001720I-37150J-117280D01*
G03Y2982280I3080J-9720D01*
G02X2558910Y2757000I-37148J-117279D01*
G03X2556920Y2750020I2448J-4472D01*
G02X2554660Y2665720I-71168J-40272D01*
G03X2560670Y2650360I8593J-5493D01*
G02X2621710Y2574430I-20667J-79114D01*
G02X2656460Y2417070I3786J-81681D01*
G03X2650950Y2403620I3867J-9438D01*
G37*
G36*
G01X3164280Y2114410D02*
G02X3073720I-45280J-68090D01*
G03X3071970Y2132330I-5649J8494D01*
G02X3001720Y2208850I47024J113677D01*
G03X2982280I-9720J-3080D01*
G02X2827850Y2363280I-117280J37150D01*
G03Y2382720I-3080J9720D01*
G02X2806690Y2608320I37150J117277D01*
G03X2805700Y2626750I-4833J8982D01*
G02X2887010Y2638200I30794J75749D01*
G03X2891150Y2620210I6301J-8021D01*
G02X2982280Y2537150I-26148J-120211D01*
G03X3001720I9720J3080D01*
G02X3236280I117280J-37150D01*
G03X3255720I9720J3080D01*
G02X3490280I117280J-37150D01*
G03X3509720I9720J3080D01*
G02X3744280I117280J-37150D01*
G03X3763720I9720J3080D01*
G02X3998280I117280J-37150D01*
G03X4017720I9720J3080D01*
G02X4172150Y2382720I117280J-37150D01*
G03Y2363280I3080J-9720D01*
G02X4256220Y2266970I-37151J-117277D01*
G03X4271650Y2260040I10051J1735D01*
G02X4239990Y2157420I43099J-69491D01*
G03X4223340Y2160390I-9327J-4130D01*
G02X4017720Y2208850I-88344J85611D01*
G03X3998280I-9720J-3080D01*
G02X3879210Y2122990I-117279J37149D01*
G03X3872010Y2105420I-152J-10198D01*
G02X3804980Y2127410I-56511J-59100D01*
G03X3809590Y2145830I-1313J10116D01*
G02X3763720Y2208850I71405J100177D01*
G03X3744280I-9720J-3080D01*
G02X3509720I-117280J37150D01*
G03X3490280I-9720J-3080D01*
G02X3255720I-117280J37150D01*
G03X3236280I-9720J-3080D01*
G02X3166030Y2132330I-117274J37157D01*
G03X3164280Y2114410I3899J-9426D01*
G37*
G36*
G01X2369370Y621160D02*
G02X2317020Y516440I24892J-77888D01*
G03X2310650Y519630I-4820J-1669D01*
G02X2279190Y679030I-24884J77893D01*
G03X2285610Y696370I-826J10164D01*
G02X2250390Y772550I87387J86633D01*
G02X2216710Y781100I2821J81722D01*
G02X2183770Y897440I-69448J43170D01*
G02X2323690Y895740I69446J-43170D01*
G02X2335760Y900280I49297J-112745D01*
G03Y919720I-3090J9720D01*
G02X2490280Y1074240I37240J117280D01*
G03X2509720I9720J3090D01*
G02X2664240Y919720I117280J-37240D01*
G03Y900280I3090J-9720D01*
G02X2509720Y745760I-37240J-117280D01*
G03X2490280I-9720J-3090D01*
G02X2362000Y660440I-117281J37238D01*
G03X2352730Y644430I-914J-10159D01*
G02X2363000Y624350I-66968J-46917D01*
G03X2369370Y621160I4820J1669D01*
G37*
G36*
G01X5580280Y367760D02*
G02X5425760Y522280I-117280J37240D01*
G03Y541720I-3090J9720D01*
G02Y776280I37240J117280D01*
G03Y795720I-3090J9720D01*
G02Y1030280I37240J117280D01*
G03Y1049720I-3090J9720D01*
G02X5339990Y1170080I37241J117279D01*
G02X5353770Y1332990I4930J81621D01*
G03X5363150Y1349090I1102J10141D01*
G02X5425760Y1538280I99850J71911D01*
G03Y1557720I-3090J9720D01*
G02X5580280Y1712240I37240J117280D01*
G03X5599720I9720J3090D01*
G02X5755170Y1791980I117280J-37240D01*
G03X5768510Y1800910I3169J9695D01*
G02X5847610Y1713050I81539J-6128D01*
G03X5837330Y1700720I-304J-10197D01*
G02X5828510Y1622970I-120331J-25725D01*
G03X5839110Y1608550I9240J-4313D01*
G02X5849520Y1445740I10940J-81038D01*
G03X5839320Y1434430I-63J-10197D01*
G02X5754240Y1303720I-122317J-13428D01*
G03Y1284280I3090J-9720D01*
G02Y1049720I-37240J-117280D01*
G03Y1030280I3090J-9720D01*
G02X5756980Y796620I-37237J-117283D01*
G02X5756610Y775500I-81259J-9140D01*
G02X5754240Y541720I-39610J-116500D01*
G03Y522280I3090J-9720D01*
G02X5599720Y367760I-37240J-117280D01*
G03X5580280I-9720J-3090D01*
G37*
G54D18*
X3500000Y3500000D03*
G54D17*
X213000Y4983000D03*
G54D16*
X341750Y683750D03*
X263980Y1816950D03*
X293980Y2043130D03*
X611800Y2301690D03*
X603000Y3408400D03*
X833130Y700010D03*
X830760Y361750D03*
X1439250Y1379240D03*
X1173510Y995000D03*
X1013680Y2052420D03*
X820000Y2726300D03*
X821260Y2301690D03*
X807720Y3563500D03*
X1405550Y3633410D03*
X1123690Y4280840D03*
X816710Y4682310D03*
X1814990Y495440D03*
X1906750Y284260D03*
X1816710Y750000D03*
X2066870Y1568500D03*
X1869410Y1689230D03*
X2209160Y1913290D03*
X1926320Y2694390D03*
Y2972420D03*
X1581970Y3672430D03*
X1505820Y3930190D03*
X1614820Y4081790D03*
X2216920Y4948390D03*
X1667720Y4697540D03*
X2871570Y411190D03*
X2943980Y250000D03*
X2532510Y1758470D03*
X2401500Y2337440D03*
X3490840Y1829040D03*
X3163500Y4983680D03*
X3672420Y4973000D03*
X3311010Y5242280D03*
X3163500Y5846320D03*
X3490840Y5652780D03*
X3252300Y5451550D03*
X3427580Y5428280D03*
X4383290Y240000D03*
X4329340Y1486590D03*
X4516220Y2136300D03*
X4226840Y2820850D03*
X4264060Y4933750D03*
X4437440Y5464650D03*
X5170680Y763220D03*
X5146430Y1009500D03*
X5092180Y1621290D03*
X5146430Y2022060D03*
Y1794780D03*
X4849500Y2341500D03*
X4767990Y2606550D03*
X5269090Y3416810D03*
X4571250Y4697540D03*
X5146430Y4920840D03*
X5621480Y2190550D03*
X5530550Y2467490D03*
X5503470Y3737440D03*
X5621480Y3550840D03*
X5503470Y4437440D03*
X5332280Y4703270D03*
X5503470Y4762560D03*
%LPD*%
G75*
G36*
G01X882280Y5540240D02*
G03X802240Y5620280I-117280J-37240D01*
G02Y5639720I3090J9720D01*
G03X882280Y5719760I-37240J117280D01*
G02X901720I9720J-3090D01*
G03X981760Y5639720I117280J37240D01*
G02Y5620280I-3090J-9720D01*
G03X901720Y5540240I37240J-117280D01*
G02X882280I-9720J3090D01*
G37*
G36*
G01X1390280D02*
G03X1310240Y5620280I-117280J-37240D01*
G02Y5639720I3090J9720D01*
G03X1390280Y5719760I-37240J117280D01*
G02X1409720I9720J-3090D01*
G03X1489760Y5639720I117280J37240D01*
G02Y5620280I-3090J-9720D01*
G03X1409720Y5540240I37240J-117280D01*
G02X1390280I-9720J3090D01*
G37*
G36*
G01X1136280D02*
G03X1056240Y5620280I-117280J-37240D01*
G02Y5639720I3090J9720D01*
G03X1136280Y5719760I-37240J117280D01*
G02X1155720I9720J-3090D01*
G03X1235760Y5639720I117280J37240D01*
G02Y5620280I-3090J-9720D01*
G03X1155720Y5540240I37240J-117280D01*
G02X1136280I-9720J3090D01*
G37*
G36*
G01X1898280D02*
G03X1818240Y5620280I-117280J-37240D01*
G02Y5639720I3090J9720D01*
G03X1898280Y5719760I-37240J117280D01*
G02X1917720I9720J-3090D01*
G03X1997760Y5639720I117280J37240D01*
G02Y5620280I-3090J-9720D01*
G03X1917720Y5540240I37240J-117280D01*
G02X1898280I-9720J3090D01*
G37*
G36*
G01X1644280D02*
G03X1564240Y5620280I-117280J-37240D01*
G02Y5639720I3090J9720D01*
G03X1644280Y5719760I-37240J117280D01*
G02X1663720I9720J-3090D01*
G03X1743760Y5639720I117280J37240D01*
G02Y5620280I-3090J-9720D01*
G03X1663720Y5540240I37240J-117280D01*
G02X1644280I-9720J3090D01*
G37*
G36*
G01X2490280Y820240D02*
G03X2410240Y900280I-117280J-37240D01*
G02Y919720I3090J9720D01*
G03X2490280Y999760I-37240J117280D01*
G02X2509720I9720J-3090D01*
G03X2589760Y919720I117280J37240D01*
G02Y900280I-3090J-9720D01*
G03X2509720Y820240I37240J-117280D01*
G02X2490280I-9720J3090D01*
G37*
G36*
G01X2363280Y3156150D02*
G03X2283150Y3236280I-117280J-37150D01*
G02Y3255720I3080J9720D01*
G03X2363280Y3335850I-37150J117280D01*
G02X2382720I9720J-3080D01*
G03X2462850Y3255720I117280J37150D01*
G02Y3236280I-3080J-9720D01*
G03X2382720Y3156150I37150J-117280D01*
G02X2363280I-9720J3080D01*
G37*
G36*
G01Y2902150D02*
G03X2283150Y2982280I-117280J-37150D01*
G02Y3001720I3080J9720D01*
G03X2363280Y3081850I-37150J117280D01*
G02X2382720I9720J-3080D01*
G03X2462850Y3001720I117280J37150D01*
G02Y2982280I-3080J-9720D01*
G03X2382720Y2902150I37150J-117280D01*
G02X2363280I-9720J3080D01*
G37*
G36*
G01Y3664150D02*
G03X2283150Y3744280I-117280J-37150D01*
G02Y3763720I3080J9720D01*
G03X2363280Y3843850I-37150J117280D01*
G02X2382720I9720J-3080D01*
G03X2462850Y3763720I117280J37150D01*
G02Y3744280I-3080J-9720D01*
G03X2382720Y3664150I37150J-117280D01*
G02X2363280I-9720J3080D01*
G37*
G36*
G01Y3410150D02*
G03X2283150Y3490280I-117280J-37150D01*
G02Y3509720I3080J9720D01*
G03X2363280Y3589850I-37150J117280D01*
G02X2382720I9720J-3080D01*
G03X2462850Y3509720I117280J37150D01*
G02Y3490280I-3080J-9720D01*
G03X2382720Y3410150I37150J-117280D01*
G02X2363280I-9720J3080D01*
G37*
G36*
G01Y3918150D02*
G03X2283150Y3998280I-117280J-37150D01*
G02Y4017720I3080J9720D01*
G03X2363280Y4097850I-37150J117280D01*
G02X2382720I9720J-3080D01*
G03X2462850Y4017720I117280J37150D01*
G02Y3998280I-3080J-9720D01*
G03X2382720Y3918150I37150J-117280D01*
G02X2363280I-9720J3080D01*
G37*
G36*
G01X3236280Y2283150D02*
G03X3156150Y2363280I-117280J-37150D01*
G02Y2382720I3080J9720D01*
G03X3236280Y2462850I-37150J117280D01*
G02X3255720I9720J-3080D01*
G03X3335850Y2382720I117280J37150D01*
G02Y2363280I-3080J-9720D01*
G03X3255720Y2283150I37150J-117280D01*
G02X3236280I-9720J3080D01*
G37*
G36*
G01X2982280D02*
G03X2902150Y2363280I-117280J-37150D01*
G02Y2382720I3080J9720D01*
G03X2982280Y2462850I-37150J117280D01*
G02X3001720I9720J-3080D01*
G03X3081850Y2382720I117280J37150D01*
G02Y2363280I-3080J-9720D01*
G03X3001720Y2283150I37150J-117280D01*
G02X2982280I-9720J3080D01*
G37*
G36*
G01X3236280Y4537150D02*
G03X3156150Y4617280I-117280J-37150D01*
G02Y4636720I3080J9720D01*
G03X3236280Y4716850I-37150J117280D01*
G02X3255720I9720J-3080D01*
G03X3335850Y4636720I117280J37150D01*
G02Y4617280I-3080J-9720D01*
G03X3255720Y4537150I37150J-117280D01*
G02X3236280I-9720J3080D01*
G37*
G36*
G01X2982280D02*
G03X2902150Y4617280I-117280J-37150D01*
G02Y4636720I3080J9720D01*
G03X2982280Y4716850I-37150J117280D01*
G02X3001720I9720J-3080D01*
G03X3081850Y4636720I117280J37150D01*
G02Y4617280I-3080J-9720D01*
G03X3001720Y4537150I37150J-117280D01*
G02X2982280I-9720J3080D01*
G37*
G36*
G01X3744280Y2283150D02*
G03X3664150Y2363280I-117280J-37150D01*
G02Y2382720I3080J9720D01*
G03X3744280Y2462850I-37150J117280D01*
G02X3763720I9720J-3080D01*
G03X3843850Y2382720I117280J37150D01*
G02Y2363280I-3080J-9720D01*
G03X3763720Y2283150I37150J-117280D01*
G02X3744280I-9720J3080D01*
G37*
G36*
G01X3490280D02*
G03X3410150Y2363280I-117280J-37150D01*
G02Y2382720I3080J9720D01*
G03X3490280Y2462850I-37150J117280D01*
G02X3509720I9720J-3080D01*
G03X3589850Y2382720I117280J37150D01*
G02Y2363280I-3080J-9720D01*
G03X3509720Y2283150I37150J-117280D01*
G02X3490280I-9720J3080D01*
G37*
G36*
G01X3744280Y4537150D02*
G03X3664150Y4617280I-117280J-37150D01*
G02Y4636720I3080J9720D01*
G03X3744280Y4716850I-37150J117280D01*
G02X3763720I9720J-3080D01*
G03X3843850Y4636720I117280J37150D01*
G02Y4617280I-3080J-9720D01*
G03X3763720Y4537150I37150J-117280D01*
G02X3744280I-9720J3080D01*
G37*
G36*
G01X3490280D02*
G03X3410150Y4617280I-117280J-37150D01*
G02Y4636720I3080J9720D01*
G03X3490280Y4716850I-37150J117280D01*
G02X3509720I9720J-3080D01*
G03X3589850Y4636720I117280J37150D01*
G02Y4617280I-3080J-9720D01*
G03X3509720Y4537150I37150J-117280D01*
G02X3490280I-9720J3080D01*
G37*
G36*
G01X3998280Y2283150D02*
G03X3918150Y2363280I-117280J-37150D01*
G02Y2382720I3080J9720D01*
G03X3998280Y2462850I-37150J117280D01*
G02X4017720I9720J-3080D01*
G03X4097850Y2382720I117280J37150D01*
G02Y2363280I-3080J-9720D01*
G03X4017720Y2283150I37150J-117280D01*
G02X3998280I-9720J3080D01*
G37*
G36*
G01X4617280Y3156150D02*
G03X4537150Y3236280I-117280J-37150D01*
G02Y3255720I3080J9720D01*
G03X4617280Y3335850I-37150J117280D01*
G02X4636720I9720J-3080D01*
G03X4716850Y3255720I117280J37150D01*
G02Y3236280I-3080J-9720D01*
G03X4636720Y3156150I37150J-117280D01*
G02X4617280I-9720J3080D01*
G37*
G36*
G01Y2902150D02*
G03X4537150Y2982280I-117280J-37150D01*
G02Y3001720I3080J9720D01*
G03X4617280Y3081850I-37150J117280D01*
G02X4636720I9720J-3080D01*
G03X4716850Y3001720I117280J37150D01*
G02Y2982280I-3080J-9720D01*
G03X4636720Y2902150I37150J-117280D01*
G02X4617280I-9720J3080D01*
G37*
G36*
G01Y3664150D02*
G03X4537150Y3744280I-117280J-37150D01*
G02Y3763720I3080J9720D01*
G03X4617280Y3843850I-37150J117280D01*
G02X4636720I9720J-3080D01*
G03X4716850Y3763720I117280J37150D01*
G02Y3744280I-3080J-9720D01*
G03X4636720Y3664150I37150J-117280D01*
G02X4617280I-9720J3080D01*
G37*
G36*
G01Y3410150D02*
G03X4537150Y3490280I-117280J-37150D01*
G02Y3509720I3080J9720D01*
G03X4617280Y3589850I-37150J117280D01*
G02X4636720I9720J-3080D01*
G03X4716850Y3509720I117280J37150D01*
G02Y3490280I-3080J-9720D01*
G03X4636720Y3410150I37150J-117280D01*
G02X4617280I-9720J3080D01*
G37*
G36*
G01Y3918150D02*
G03X4537150Y3998280I-117280J-37150D01*
G02Y4017720I3080J9720D01*
G03X4617280Y4097850I-37150J117280D01*
G02X4636720I9720J-3080D01*
G03X4716850Y4017720I117280J37150D01*
G02Y3998280I-3080J-9720D01*
G03X4636720Y3918150I37150J-117280D01*
G02X4617280I-9720J3080D01*
G37*
G36*
G01X5580280Y696240D02*
G03X5500240Y776280I-117280J-37240D01*
G02Y795720I3090J9720D01*
G03X5580280Y875760I-37240J117280D01*
G02X5599720I9720J-3090D01*
G03X5615760Y843060I117278J37243D01*
G03X5616940Y730620I59960J-55597D01*
G03X5599720Y696240I100060J-71620D01*
G02X5580280I-9720J3090D01*
G37*
G36*
G01Y442240D02*
G03X5500240Y522280I-117280J-37240D01*
G02Y541720I3090J9720D01*
G03X5580280Y621760I-37240J117280D01*
G02X5599720I9720J-3090D01*
G03X5679760Y541720I117280J37240D01*
G02Y522280I-3090J-9720D01*
G03X5599720Y442240I37240J-117280D01*
G02X5580280I-9720J3090D01*
G37*
G36*
G01Y1204240D02*
G03X5500240Y1284280I-117280J-37240D01*
G02Y1303720I3090J9720D01*
G03X5580280Y1383760I-37240J117280D01*
G02X5599720I9720J-3090D01*
G03X5679760Y1303720I117280J37240D01*
G02Y1284280I-3090J-9720D01*
G03X5599720Y1204240I37240J-117280D01*
G02X5580280I-9720J3090D01*
G37*
G36*
G01Y950240D02*
G03X5500240Y1030280I-117280J-37240D01*
G02Y1049720I3090J9720D01*
G03X5580280Y1129760I-37240J117280D01*
G02X5599720I9720J-3090D01*
G03X5679760Y1049720I117280J37240D01*
G02Y1030280I-3090J-9720D01*
G03X5599720Y950240I37240J-117280D01*
G02X5580280I-9720J3090D01*
G37*
G36*
G01Y1458240D02*
G03X5500240Y1538280I-117280J-37240D01*
G02Y1557720I3090J9720D01*
G03X5580280Y1637760I-37240J117280D01*
G02X5599720I9720J-3090D01*
G03X5679760Y1557720I117280J37240D01*
G02Y1538280I-3090J-9720D01*
G03X5599720Y1458240I37240J-117280D01*
G02X5580280I-9720J3090D01*
G37*
G54D10*
X270000Y1233000D03*
Y1487000D03*
X203000Y4060000D03*
X213000Y4475000D03*
Y4729000D03*
Y4983000D03*
Y5237000D03*
Y5491000D03*
Y5745000D03*
X457000Y4060000D03*
X467000Y4475000D03*
Y4983000D03*
Y4729000D03*
Y5745000D03*
Y5491000D03*
Y5237000D03*
X765000Y5503000D03*
Y5757000D03*
X1527000Y5503000D03*
X1273000D03*
X1019000D03*
Y5757000D03*
X1273000D03*
X1527000D03*
X2035000Y5503000D03*
X1781000D03*
Y5757000D03*
X2035000D03*
X2373000Y783000D03*
X2627000D03*
X2373000Y1037000D03*
X2627000D03*
X3273000Y220000D03*
X3527000D03*
X5717000Y913000D03*
Y659000D03*
Y405000D03*
X5463000D03*
Y659000D03*
Y913000D03*
X5717000Y1421000D03*
Y1167000D03*
X5463000D03*
Y1421000D03*
X5717000Y1675000D03*
X5463000D03*
G54D11*
X263980Y1816950D03*
X260000Y2436870D03*
X146720Y2893190D03*
X210970Y3077490D03*
X161720Y3642000D03*
X203680Y3563500D03*
X171410Y3408400D03*
X92470Y4609230D03*
X330000Y131000D03*
X854030Y138250D03*
X350250Y526870D03*
X833130Y700010D03*
X830760Y361750D03*
X341750Y683750D03*
X613570Y1456750D03*
X890250Y1467170D03*
X811750Y1412920D03*
X293980Y2043130D03*
X655480Y1793010D03*
X765750Y1707500D03*
X821260Y1793010D03*
X657250Y1535250D03*
X611800Y2301690D03*
X821260D03*
X468660Y2672050D03*
X657250Y3077490D03*
X820000Y2726300D03*
X557550D03*
X611800Y2882420D03*
X443780Y2796590D03*
X711500Y3229040D03*
X603000Y3408400D03*
X807720Y3563500D03*
X773250Y3337580D03*
X496570Y3897990D03*
X540930Y4320560D03*
X673680Y4255530D03*
X657250Y4036490D03*
X595180Y4179780D03*
X816710Y4682310D03*
X1439250Y361750D03*
X940000Y553630D03*
X1033290Y700000D03*
X1117540Y542620D03*
X1062030Y474340D03*
X1439250Y780740D03*
X1170760Y361750D03*
X1299500Y699050D03*
X1355000Y620550D03*
X1183130Y1435750D03*
X1180000Y1090000D03*
X1173510Y995000D03*
X1089260Y1232000D03*
X1439250Y1379240D03*
X1035010Y1153500D03*
X980750Y1262000D03*
X925240Y1204820D03*
X1280790Y1862040D03*
X1055510Y1847260D03*
X1301120Y1987420D03*
X1013680Y2052420D03*
X1135000Y1743480D03*
X1013680Y2312460D03*
X1400790Y2467490D03*
X1013680Y2673310D03*
X1276200Y2117420D03*
X1425050Y2106040D03*
X1443480Y3167490D03*
X1073080Y3012460D03*
X1443480Y2905090D03*
X1070000Y2870000D03*
X1187330Y2850840D03*
X1328030Y2796590D03*
X1303790Y2905090D03*
X1093680Y2727580D03*
X1424550Y3802460D03*
X1369040Y3867490D03*
X1389230Y3362570D03*
X1405550Y3633410D03*
X1247720Y4250840D03*
X1407790Y4502460D03*
X1123690Y4280840D03*
X918210Y5099240D03*
X1352280Y4567490D03*
X1239040Y5022510D03*
X1463300Y4762560D03*
X1422780Y4881830D03*
X1002460Y5334990D03*
X1906750Y284260D03*
X2091750Y750000D03*
X1610000Y575380D03*
X1729480D03*
X2075250Y338510D03*
X1816710Y750000D03*
X1814990Y495440D03*
X1501500Y609500D03*
X1860000Y1170000D03*
X1576870Y1186780D03*
X1836710Y1273500D03*
X1643130Y1270000D03*
X1631120Y1030000D03*
X2091750Y1270000D03*
X1587720Y1922420D03*
X1869410Y1689230D03*
X2066870Y1568500D03*
X1926320Y2694390D03*
X1667720Y2700840D03*
X2084810Y2337440D03*
X1956320Y2272420D03*
X1691970Y2870230D03*
X1943080Y3232510D03*
X2034820Y3167490D03*
X2084810Y2893920D03*
X1926320Y2972420D03*
X2067880Y3867490D03*
X1926320Y3802460D03*
X1497730Y3418570D03*
X1581970Y3672430D03*
X1530000Y4210000D03*
X2067880Y4129770D03*
X1926320D03*
X1503930Y4340000D03*
X2013630Y4051270D03*
X1505820Y3930190D03*
X1614820Y4437440D03*
X1902070Y4284750D03*
X1614820Y4081790D03*
X1926320Y4948390D03*
X1796320D03*
X1516280Y4957490D03*
X1667720Y4697540D03*
X1530580Y4827580D03*
X1796320Y5270000D03*
X1876530Y5173250D03*
X2656870Y260000D03*
X2147260Y824270D03*
X2233130Y338500D03*
X2253220Y854270D03*
X2285760Y597520D03*
X2394260Y543270D03*
X2140000Y1050000D03*
X2532510Y1442280D03*
X2100000Y1460000D03*
X2151120Y1349250D03*
X2597540Y1497790D03*
X2209160Y1913290D03*
X2532510Y1758470D03*
X2356460Y2050540D03*
X2140320Y2467490D03*
X2540000Y2571250D03*
X2401500Y2337440D03*
X2575750Y2371500D03*
X2411970Y2106050D03*
X2625500Y2492750D03*
X2485750Y2709750D03*
X2236450Y4502460D03*
X2371500Y4395070D03*
X2532510Y4928170D03*
X2597540Y4983680D03*
X2216920Y4948390D03*
X2272420Y4621740D03*
X2597540Y5545050D03*
X2140090Y5395470D03*
X2413240Y5264780D03*
X2521740D03*
X2943980Y250000D03*
X3153220Y195750D03*
X2871570Y411190D03*
X3297540Y1182000D03*
X3232510Y1442280D03*
X2970270D03*
X2850840Y1913290D03*
X3119000Y2046320D03*
X3113240Y1509110D03*
X2821890Y1774790D03*
X2836500Y2702500D03*
X3297540Y4983680D03*
X3163500D03*
X3232510Y5296530D03*
X3252300Y5451550D03*
X2727580Y5551780D03*
X2905090Y5652780D03*
X2836500Y5737820D03*
X3163500Y5846320D03*
X3407220Y259560D03*
X3392780Y178720D03*
X3490290Y900010D03*
X3463340Y1152460D03*
X3683190Y1454860D03*
X3517590Y1336760D03*
X3596090D03*
X3351790Y964250D03*
X3490300Y1009500D03*
X3490840Y1829040D03*
X3815500Y2046320D03*
X3791690Y1594160D03*
X3457570Y1649360D03*
X3842500Y1757720D03*
X3511820Y1563360D03*
X3362560Y1595110D03*
X3498500Y4928180D03*
X3672420Y4973000D03*
X3609160Y5163780D03*
X3311010Y5242280D03*
X3554910D03*
X3427580Y5428280D03*
X3490840Y5652780D03*
X3923290Y240000D03*
X4383290D03*
X4299340Y1118000D03*
X4190840Y1207930D03*
X4329340Y1486590D03*
X3997540Y1540840D03*
Y1703470D03*
X4200100Y1781970D03*
X4128030Y1649340D03*
X4254350Y1920470D03*
X4314750Y2190550D03*
X4226840Y2820850D03*
X3997540Y4953000D03*
X4264060Y4933750D03*
X4050320Y4634250D03*
X3932510Y5259040D03*
X3997540Y5535800D03*
X4264060Y5313290D03*
X3932510Y5380720D03*
X4127580Y5526400D03*
X4372420Y5242280D03*
X4437440Y5464650D03*
X4313130Y5820000D03*
X4696320Y762420D03*
X4958000Y1197940D03*
X4617820Y1591290D03*
X5092180Y1621290D03*
X4977250Y2402460D03*
X4767990Y2606550D03*
X4849500Y2341500D03*
X4516220Y2136300D03*
Y2504250D03*
X4570470Y2425750D03*
X4983680Y3102460D03*
Y3836470D03*
X4928000Y3306560D03*
X4890000Y3510000D03*
X4873750Y3418560D03*
X4983680Y4567500D03*
X4571250Y4697540D03*
X4896710Y5580000D03*
X4600000Y5440000D03*
X4697540Y5337540D03*
X4827580Y5272280D03*
X4762560Y5464650D03*
X5170680Y763220D03*
X5675720Y787470D03*
X5146430Y1009500D03*
X5344930Y1251700D03*
X5146430Y1794780D03*
Y2022060D03*
X5242280Y2467490D03*
X5530550D03*
X5339630Y2662560D03*
Y2337440D03*
X5242280Y2274800D03*
X5621480Y2190550D03*
X5259040Y3167490D03*
X5557720Y3232510D03*
X5327800Y2766590D03*
X5530550Y2916910D03*
X5485610Y3102460D03*
X5397540Y2972420D03*
X5259040Y3867490D03*
X5503470Y3737440D03*
X5269090Y3416810D03*
X5621480Y3550840D03*
X5242280Y4502460D03*
X5332280Y4166590D03*
X5557720Y3921740D03*
X5332280Y3997540D03*
X5503470Y4437440D03*
Y4062560D03*
X5332280Y4703270D03*
X5503470Y4762560D03*
X5146430Y4920840D03*
X5523630Y5380000D03*
X5188250Y5595280D03*
X5507490Y5657490D03*
X5514370Y5538210D03*
X5593000Y5592460D03*
X5187760Y5907500D03*
X5176870Y5820000D03*
X5842530Y84000D03*
X5850050Y1794780D03*
Y1527510D03*
X5916090Y5787540D03*
G54D12*
X2500000Y2865000D03*
Y3119000D03*
X2246000Y2865000D03*
Y3119000D03*
X2500000Y3373000D03*
Y3627000D03*
Y3881000D03*
X2246000Y3373000D03*
Y3627000D03*
Y3881000D03*
X2500000Y4135000D03*
X2246000D03*
X3119000Y2246000D03*
X2865000D03*
X3119000Y2500000D03*
X2865000D03*
Y4500000D03*
X3119000D03*
X2865000Y4754000D03*
X3119000D03*
X3881000Y2246000D03*
X3627000D03*
X3373000D03*
X3881000Y2500000D03*
X3627000D03*
X3373000D03*
Y4500000D03*
X3627000D03*
X3881000D03*
X3373000Y4754000D03*
X3627000D03*
X3881000D03*
X4135000Y2246000D03*
Y2500000D03*
X4500000Y3119000D03*
Y2865000D03*
Y3881000D03*
Y3627000D03*
Y3373000D03*
X4135000Y4500000D03*
X4500000Y4135000D03*
X4135000Y4754000D03*
X4754000Y3119000D03*
Y2865000D03*
Y3881000D03*
Y3627000D03*
Y3373000D03*
Y4135000D03*
G54D13*
X3500000Y3500000D03*
G54D14*
G01X213000Y4892150D02*
Y4983000D01*
G01D02*
Y5073850D01*
G01X122150Y4983000D02*
X213000D01*
G01D02*
X303850D01*
G54D15*
G01X0Y0D02*
Y6000000D01*
X6000000D01*
Y0D01*
X0D01*
M02*
